SplineFontDB: 3.2
FontName: killfeedicons
FullName: killfeedicons
FamilyName: killfeedicons
Weight: Book
Copyright: Copyright (c) 2025, AdamTomaszewski
Version: 001.000
ItalicAngle: 0
UnderlinePosition: -138
UnderlineWidth: 51
Ascent: 800
Descent: 200
InvalidEm: 0
sfntRevision: 0x00010000
LayerCount: 2
Layer: 0 1 "Back" 1
Layer: 1 1 "Fore" 0
XUID: [1021 151 -1366936484 9303411]
StyleMap: 0x0000
FSType: 0
OS2Version: 4
OS2_WeightWidthSlopeOnly: 0
OS2_UseTypoMetrics: 1
CreationTime: 1740749992
ModificationTime: 1756048230
PfmFamily: 17
TTFWeight: 400
TTFWidth: 5
LineGap: 90
VLineGap: 0
Panose: 2 0 5 3 0 0 0 0 0 0
OS2TypoAscent: 800
OS2TypoAOffset: 0
OS2TypoDescent: -200
OS2TypoDOffset: 0
OS2TypoLinegap: 90
OS2WinAscent: 864
OS2WinAOffset: 0
OS2WinDescent: 174
OS2WinDOffset: 0
HheadAscent: 864
HheadAOffset: 0
HheadDescent: -174
HheadDOffset: 0
OS2SubXSize: 650
OS2SubYSize: 700
OS2SubXOff: 0
OS2SubYOff: 140
OS2SupXSize: 650
OS2SupYSize: 700
OS2SupXOff: 0
OS2SupYOff: 480
OS2StrikeYSize: 49
OS2StrikeYPos: 258
OS2CapHeight: 754
OS2Vendor: 'PfEd'
OS2CodePages: 00000001.00000000
OS2UnicodeRanges: 00000001.00000000.00000000.00000000
MarkAttachClasses: 1
DEI: 91125
ShortTable: cvt  2
  33
  633
EndShort
ShortTable: maxp 16
  1
  0
  46
  434
  38
  0
  0
  2
  0
  1
  1
  0
  64
  46
  0
  0
EndShort
LangName: 1033 "" "" "Regular" "" "" "Version 001.000"
GaspTable: 1 65535 2 0
Encoding: UnicodeBmp
UnicodeInterp: none
NameList: AGL For New Fonts
DisplaySize: -48
AntiAlias: 1
FitToEm: 0
WinInfo: 0 38 14
BeginPrivate: 0
EndPrivate
BeginChars: 65538 46

StartChar: .notdef
Encoding: 65536 -1 0
Width: 364
GlyphClass: 1
Flags: W
LayerCount: 2
Fore
SplineSet
33 0 m 1,0,-1
 33 666 l 1,1,-1
 298 666 l 1,2,-1
 298 0 l 1,3,-1
 33 0 l 1,0,-1
66 33 m 1,4,-1
 265 33 l 1,5,-1
 265 633 l 1,6,-1
 66 633 l 1,7,-1
 66 33 l 1,4,-1
EndSplineSet
EndChar

StartChar: uni0000
Encoding: 0 0 1
Width: 240
GlyphClass: 1
Flags: W
LayerCount: 2
Fore
SplineSet
122 80 m 0,0,1
 110 82 110 82 104.5 86.5 c 128,-1,2
 99 91 99 91 98 102 c 0,3,4
 86 166 86 166 110 217 c 0,5,6
 112 223 112 223 116 228.5 c 128,-1,7
 120 234 120 234 122.5 237 c 128,-1,8
 125 240 125 240 131 243 c 128,-1,9
 137 246 137 246 139 247 c 128,-1,10
 141 248 141 248 149.5 251.5 c 128,-1,11
 158 255 158 255 160 256 c 0,12,13
 175 261 175 261 183 278 c 128,-1,14
 191 295 191 295 185 310 c 0,15,16
 178 332 178 332 168.5 337.5 c 128,-1,17
 159 343 159 343 129 341 c 0,18,19
 104 340 104 340 94 325 c 128,-1,20
 84 310 84 310 78 275 c 0,21,22
 76 268 76 268 67 261 c 128,-1,23
 58 254 58 254 51 256 c 0,24,25
 29 260 29 260 29 278 c 0,26,27
 33 306 33 306 40.5 324.5 c 128,-1,28
 48 343 48 343 66 363 c 0,29,30
 90 390 90 390 134 390 c 0,31,32
 206 390 206 390 224 327 c 0,33,34
 232 302 232 302 228.5 281.5 c 128,-1,35
 225 261 225 261 207 242 c 0,36,37
 201 235 201 235 178.5 219.5 c 128,-1,38
 156 204 156 204 152 193 c 0,39,40
 146 180 146 180 144 166.5 c 128,-1,41
 142 153 142 153 142 133 c 128,-1,42
 142 113 142 113 141 105 c 0,43,44
 141 97 141 97 134.5 88.5 c 128,-1,45
 128 80 128 80 122 80 c 0,0,1
122 0 m 0,46,47
 93 0 93 0 93 32 c 0,48,49
 93 61 93 61 122 61 c 0,50,51
 135 61 135 61 143.5 52.5 c 128,-1,52
 152 44 152 44 152 32 c 0,53,54
 152 18 152 18 143 9 c 128,-1,55
 134 0 134 0 122 0 c 0,46,47
EndSplineSet
EndChar

StartChar: exclam
Encoding: 33 33 3
Width: 978
GlyphClass: 1
Flags: W
LayerCount: 2
Fore
SplineSet
706 736 m 1,0,-1
 781 693 l 1,1,-1
 687 530 l 1,2,-1
 612 574 l 1,3,-1
 706 736 l 1,0,-1
896 580 m 1,4,-1
 939 505 l 1,5,-1
 776 410 l 1,6,-1
 734 485 l 1,7,-1
 896 580 l 1,4,-1
938 63 m 1,8,-1
 876 2 l 1,9,-1
 742 134 l 1,10,-1
 803 196 l 1,11,-1
 938 63 l 1,8,-1
184 195 m 1,12,-1
 246 134 l 1,13,-1
 113 2 l 1,14,-1
 51 62 l 1,15,-1
 184 195 l 1,12,-1
518 558 m 1,16,-1
 430 558 l 1,17,-1
 430 746 l 1,18,-1
 518 746 l 1,19,-1
 518 558 l 1,16,-1
365 578 m 1,20,-1
 292 535 l 1,21,-1
 196 698 l 1,22,-1
 272 742 l 1,23,-1
 365 578 l 1,20,-1
246 482 m 1,24,-1
 203 406 l 1,25,-1
 40 501 l 1,26,-1
 83 576 l 1,27,-1
 246 482 l 1,24,-1
944 352 m 1,28,-1
 944 266 l 1,29,-1
 756 266 l 1,30,-1
 756 352 l 1,31,-1
 944 352 l 1,28,-1
224 352 m 1,32,-1
 224 266 l 1,33,-1
 36 266 l 1,34,-1
 36 352 l 1,35,-1
 224 352 l 1,32,-1
258 215 m 1,36,-1
 258 438 l 1,37,-1
 379 438 l 1,38,-1
 379 523 l 1,39,-1
 601 524 l 1,40,-1
 601 404 l 1,41,-1
 722 404 l 1,42,-1
 722 128 l 1,43,-1
 515 128 l 1,44,-1
 515 301 l 1,45,-1
 463 301 l 1,46,-1
 463 215 l 1,47,-1
 258 215 l 1,36,-1
EndSplineSet
EndChar

StartChar: quotedbl
Encoding: 34 34 4
Width: 824
GlyphClass: 1
Flags: W
LayerCount: 2
Fore
SplineSet
286 370 m 256,0,1
 286 404 286 404 304 404 c 2,2,3
 304 404 304 404 373 404 c 1,4,5
 373 404 373 404 373 474 c 0,6,7
 373 478 373 478 374 480.5 c 128,-1,8
 375 483 375 483 378 484.5 c 128,-1,9
 381 486 381 486 383.5 487 c 128,-1,10
 386 488 386 488 390.5 488.5 c 128,-1,11
 395 489 395 489 397.5 489 c 128,-1,12
 400 489 400 489 406 489 c 128,-1,13
 412 489 412 489 414 489 c 0,14,15
 417 489 417 489 422.5 489 c 128,-1,16
 428 489 428 489 431 489 c 128,-1,17
 434 489 434 489 439 489 c 128,-1,18
 444 489 444 489 447 488 c 128,-1,19
 450 487 450 487 453 485.5 c 128,-1,20
 456 484 456 484 457 481 c 128,-1,21
 458 478 458 478 458 474 c 2,22,-1
 458 404 l 1,23,-1
 527 404 l 2,24,25
 544 404 544 404 544 370 c 256,26,27
 544 336 544 336 527 336 c 2,28,-1
 457 336 l 1,29,-1
 457 266 l 2,30,31
 457 255 457 255 447 252.5 c 128,-1,32
 437 250 437 250 419 250 c 0,33,34
 417 250 417 250 415.5 250 c 128,-1,35
 414 250 414 250 412 250 c 0,36,37
 400 250 400 250 393.5 250.5 c 128,-1,38
 387 251 387 251 380 254.5 c 128,-1,39
 373 258 373 258 373 266 c 2,40,-1
 373 336 l 1,41,-1
 304 336 l 2,42,43
 286 336 286 336 286 370 c 256,0,1
596.5 446 m 128,-1,45
 610 446 610 446 620.5 438.5 c 128,-1,46
 631 431 631 431 631 419 c 2,47,-1
 631 316 l 2,48,49
 631 305 631 305 620.5 298.5 c 128,-1,50
 610 292 610 292 596 292 c 128,-1,51
 582 292 582 292 571 298.5 c 128,-1,52
 560 305 560 305 560 316 c 2,53,-1
 560 419 l 2,54,55
 560 431 560 431 571.5 438.5 c 128,-1,44
 583 446 583 446 596.5 446 c 128,-1,45
231.5 446 m 128,-1,57
 245 446 245 446 255.5 438.5 c 128,-1,58
 266 431 266 431 266 419 c 2,59,-1
 266 316 l 2,60,61
 266 305 266 305 256 298.5 c 128,-1,62
 246 292 246 292 232 292 c 128,-1,63
 218 292 218 292 207 298.5 c 128,-1,64
 196 305 196 305 196 316 c 2,65,-1
 196 419 l 2,66,67
 196 431 196 431 207 438.5 c 128,-1,56
 218 446 218 446 231.5 446 c 128,-1,57
336 549 m 128,-1,69
 336 562 336 562 343 573 c 128,-1,70
 350 584 350 584 362 584 c 2,71,-1
 464 584 l 2,72,73
 476 584 476 584 483 573 c 128,-1,74
 490 562 490 562 490 549 c 128,-1,75
 490 536 490 536 483 525 c 128,-1,76
 476 514 476 514 464 514 c 2,77,-1
 362 514 l 2,78,79
 350 514 350 514 343 525 c 128,-1,68
 336 536 336 536 336 549 c 128,-1,69
336 188.5 m 128,-1,81
 336 202 336 202 343 212.5 c 128,-1,82
 350 223 350 223 362 223 c 2,83,-1
 464 223 l 2,84,85
 476 223 476 223 483 212.5 c 128,-1,86
 490 202 490 202 490 189 c 128,-1,87
 490 176 490 176 483 165 c 128,-1,88
 476 154 476 154 464 154 c 2,89,-1
 362 154 l 2,90,91
 350 154 350 154 343 164.5 c 128,-1,80
 336 175 336 175 336 188.5 c 128,-1,81
410 627 m 0,92,93
 514 628 514 628 590 556 c 128,-1,94
 666 484 666 484 668 381 c 0,95,96
 669 277 669 277 594.5 202 c 128,-1,97
 520 127 520 127 416 126 c 0,98,99
 311 125 311 125 236.5 199.5 c 128,-1,100
 162 274 162 274 160 379 c 0,101,102
 159 480 159 480 233 553 c 128,-1,103
 307 626 307 626 410 627 c 0,92,93
36 375 m 0,104,105
 37 272 37 272 89 184.5 c 128,-1,106
 141 97 141 97 229 46 c 128,-1,107
 317 -5 317 -5 419 -4 c 0,108,109
 523 -2 523 -2 608.5 51 c 128,-1,110
 694 104 694 104 742 192.5 c 128,-1,111
 790 281 790 281 789 385 c 0,112,113
 788 490 788 490 737.5 579 c 128,-1,114
 687 668 687 668 599.5 719.5 c 128,-1,115
 512 771 512 771 408 769 c 0,116,117
 305 767 305 767 218.5 713 c 128,-1,118
 132 659 132 659 83.5 569 c 128,-1,119
 35 479 35 479 36 375 c 0,104,105
EndSplineSet
EndChar

StartChar: numbersign
Encoding: 35 35 5
Width: 996
GlyphClass: 1
Flags: W
LayerCount: 2
Fore
SplineSet
430 281 m 1,0,-1
 430 195 l 1,1,-1
 568 195 l 1,2,-1
 568 281 l 1,3,-1
 430 281 l 1,0,-1
550 418 m 1,4,-1
 550 316 l 1,5,-1
 670 316 l 1,6,-1
 670 418 l 1,7,-1
 550 418 l 1,4,-1
327 418 m 1,8,-1
 327 316 l 1,9,-1
 448 316 l 1,10,-1
 448 418 l 1,11,-1
 327 418 l 1,8,-1
241 539 m 1,12,-1
 430 539 l 1,13,-1
 430 470 l 1,14,-1
 566 470 l 1,15,-1
 566 539 l 1,16,-1
 756 539 l 1,17,-1
 756 178 l 1,18,-1
 584 180 l 1,19,-1
 584 58 l 1,20,-1
 412 58 l 1,21,-1
 412 178 l 1,22,-1
 242 178 l 1,23,-1
 241 539 l 1,12,-1
359 682 m 1,24,-1
 389 700 l 1,25,-1
 440 609 l 1,26,-1
 410 592 l 1,27,-1
 359 682 l 1,24,-1
619 700 m 1,28,-1
 649 682 l 1,29,-1
 598 592 l 1,30,-1
 568 609 l 1,31,-1
 619 700 l 1,28,-1
481 710 m 1,32,-1
 517 710 l 1,33,-1
 517 607 l 1,34,-1
 481 607 l 1,35,-1
 481 710 l 1,32,-1
772 676 m 1,36,-1
 772 539 l 1,37,-1
 962 539 l 1,38,-1
 962 676 l 1,39,-1
 772 676 l 1,36,-1
36 676 m 1,40,-1
 36 539 l 1,41,-1
 224 539 l 1,42,-1
 224 676 l 1,43,-1
 36 676 l 1,40,-1
772 146 m 1,44,-1
 772 8 l 1,45,-1
 962 8 l 1,46,-1
 962 146 l 1,47,-1
 772 146 l 1,44,-1
36 146 m 1,48,-1
 36 8 l 1,49,-1
 224 8 l 1,50,-1
 224 146 l 1,51,-1
 36 146 l 1,48,-1
EndSplineSet
EndChar

StartChar: dollar
Encoding: 36 36 6
Width: 996
GlyphClass: 1
Flags: W
LayerCount: 2
Fore
SplineSet
430 286 m 1,0,-1
 430 201 l 1,1,-1
 568 201 l 1,2,-1
 568 286 l 1,3,-1
 430 286 l 1,0,-1
550 424 m 1,4,-1
 550 321 l 1,5,-1
 670 321 l 1,6,-1
 670 422 l 1,7,-1
 550 424 l 1,4,-1
327 424 m 1,8,-1
 327 321 l 1,9,-1
 448 321 l 1,10,-1
 448 424 l 1,11,-1
 327 424 l 1,8,-1
566 545 m 1,12,-1
 756 545 l 1,13,-1
 756 183 l 1,14,-1
 584 184 l 1,15,-1
 584 64 l 1,16,-1
 412 64 l 1,17,-1
 412 183 l 1,18,-1
 242 183 l 1,19,-1
 241 545 l 1,20,-1
 566 545 l 1,12,-1
772 682 m 1,21,-1
 772 545 l 1,22,-1
 962 545 l 1,23,-1
 962 682 l 1,24,-1
 772 682 l 1,21,-1
36 682 m 1,25,-1
 36 545 l 1,26,-1
 224 545 l 1,27,-1
 224 682 l 1,28,-1
 36 682 l 1,25,-1
772 152 m 1,29,-1
 772 13 l 1,30,-1
 962 13 l 1,31,-1
 962 152 l 1,32,-1
 772 152 l 1,29,-1
36 152 m 1,33,-1
 36 13 l 1,34,-1
 224 13 l 1,35,-1
 224 152 l 1,36,-1
 36 152 l 1,33,-1
EndSplineSet
EndChar

StartChar: percent
Encoding: 37 37 7
Width: 900
GlyphClass: 1
Flags: W
LayerCount: 2
Fore
SplineSet
826 104 m 128,-1,1
 826 63 826 63 806 32.5 c 128,-1,2
 786 2 786 2 750 2 c 2,3,-1
 322 2 l 2,4,5
 287 2 287 2 269.5 31.5 c 128,-1,6
 252 61 252 61 252 103.5 c 128,-1,7
 252 146 252 146 269.5 176 c 128,-1,8
 287 206 287 206 322 206 c 2,9,-1
 750 206 l 2,10,11
 786 206 786 206 806 175.5 c 128,-1,0
 826 145 826 145 826 104 c 128,-1,1
772.5 696 m 128,-1,13
 808 696 808 696 837 677 c 128,-1,14
 866 658 866 658 866 626 c 2,15,-1
 866 292 l 2,16,17
 866 261 866 261 838 244 c 128,-1,18
 810 227 810 227 773 227 c 128,-1,19
 736 227 736 227 708 244 c 128,-1,20
 680 261 680 261 680 292 c 2,21,-1
 680 626 l 2,22,23
 680 658 680 658 708.5 677 c 128,-1,12
 737 696 737 696 772.5 696 c 128,-1,13
552 745 m 128,-1,25
 590 745 590 745 620 725.5 c 128,-1,26
 650 706 650 706 650 673 c 2,27,-1
 650 292 l 2,28,29
 650 259 650 259 620.5 242 c 128,-1,30
 591 225 591 225 552 225 c 128,-1,31
 513 225 513 225 483.5 242 c 128,-1,32
 454 259 454 259 454 292 c 2,33,-1
 454 673 l 2,34,35
 454 706 454 706 484 725.5 c 128,-1,24
 514 745 514 745 552 745 c 128,-1,25
341.5 716 m 128,-1,37
 379 716 379 716 409.5 696 c 128,-1,38
 440 676 440 676 440 643 c 2,39,-1
 440 292 l 2,40,41
 440 259 440 259 410 242 c 128,-1,42
 380 225 380 225 341 225 c 128,-1,43
 302 225 302 225 272.5 242 c 128,-1,44
 243 259 243 259 243 292 c 2,45,-1
 243 643 l 2,46,47
 243 676 243 676 273.5 696 c 128,-1,36
 304 716 304 716 341.5 716 c 128,-1,37
130 667 m 128,-1,49
 166 667 166 667 194.5 647.5 c 128,-1,50
 223 628 223 628 223 596 c 2,51,-1
 223 292 l 2,52,53
 223 261 223 261 195 244 c 128,-1,54
 167 227 167 227 130 227 c 128,-1,55
 93 227 93 227 64.5 244 c 128,-1,56
 36 261 36 261 36 292 c 2,57,-1
 36 596 l 2,58,59
 36 628 36 628 65 647.5 c 128,-1,48
 94 667 94 667 130 667 c 128,-1,49
EndSplineSet
EndChar

StartChar: ampersand
Encoding: 38 38 8
Width: 992
GlyphClass: 1
Flags: W
LayerCount: 2
Fore
SplineSet
676 471 m 1,0,-1
 757 471 l 1,1,-1
 757 572 l 1,2,-1
 676 572 l 1,3,-1
 676 471 l 1,0,-1
495 391 m 1,4,-1
 596 391 l 1,5,-1
 596 572 l 1,6,-1
 495 572 l 1,7,-1
 495 391 l 1,4,-1
316 391 m 1,8,-1
 416 391 l 1,9,-1
 416 572 l 1,10,-1
 316 572 l 1,11,-1
 316 391 l 1,8,-1
136 391 m 1,12,-1
 238 391 l 1,13,-1
 238 572 l 1,14,-1
 136 572 l 1,15,-1
 136 391 l 1,12,-1
655 12 m 1,16,-1
 655 194 l 1,17,-1
 817 194 l 1,18,-1
 817 12 l 1,19,-1
 655 12 l 1,16,-1
156 12 m 1,20,-1
 156 194 l 1,21,-1
 318 194 l 1,22,-1
 318 12 l 1,23,-1
 156 12 l 1,20,-1
36 112 m 1,24,-1
 36 693 l 1,25,-1
 837 693 l 1,26,-1
 837 493 l 1,27,-1
 957 493 l 1,28,-1
 957 112 l 1,29,-1
 836 112 l 1,30,-1
 836 211 l 1,31,-1
 637 211 l 1,32,-1
 637 112 l 1,33,-1
 334 112 l 1,34,-1
 334 211 l 1,35,-1
 138 211 l 1,36,-1
 138 112 l 1,37,-1
 36 112 l 1,24,-1
EndSplineSet
EndChar

StartChar: parenleft
Encoding: 40 40 9
Width: 618
GlyphClass: 1
Flags: W
LayerCount: 2
Fore
SplineSet
36 442 m 1,0,-1
 200 442 l 1,1,-1
 200 -32 l 1,2,-1
 419 -32 l 1,3,-1
 419 442 l 1,4,-1
 584 442 l 1,5,-1
 310 699 l 1,6,-1
 36 442 l 1,0,-1
EndSplineSet
EndChar

StartChar: parenright
Encoding: 41 41 10
Width: 618
GlyphClass: 1
Flags: W
LayerCount: 2
Fore
SplineSet
36 224 m 1,0,-1
 200 224 l 1,1,-1
 200 699 l 1,2,-1
 419 699 l 1,3,-1
 419 224 l 1,4,-1
 584 224 l 1,5,-1
 310 -32 l 1,6,-1
 36 224 l 1,0,-1
EndSplineSet
EndChar

StartChar: asterisk
Encoding: 42 42 11
Width: 726
GlyphClass: 1
Flags: W
LayerCount: 2
Fore
SplineSet
693 83 m 1,0,-1
 693 771 l 1,1,-1
 37 771 l 1,2,-1
 36 83 l 1,3,-1
 364 -106 l 1,4,-1
 693 83 l 1,0,-1
76 107 m 1,5,-1
 77 732 l 1,6,-1
 651 732 l 1,7,-1
 651 107 l 1,8,-1
 364 -58 l 1,9,-1
 76 107 l 1,5,-1
EndSplineSet
EndChar

StartChar: plus
Encoding: 43 43 12
Width: 726
GlyphClass: 1
Flags: W
LayerCount: 2
Fore
SplineSet
693 83 m 1,0,-1
 693 771 l 1,1,-1
 37 771 l 1,2,-1
 36 83 l 1,3,-1
 364 -106 l 1,4,-1
 693 83 l 1,0,-1
76 107 m 1,5,-1
 77 732 l 1,6,-1
 651 732 l 1,7,-1
 651 107 l 1,8,-1
 364 -58 l 1,9,-1
 76 107 l 1,5,-1
604 144 m 1,10,11
 604 144 604 144 604 237 c 1,12,-1
 363 98 l 1,13,14
 124 236 124 236 122 238 c 1,15,16
 122 238 122 238 122 142 c 1,17,-1
 364 4 l 1,18,-1
 604 144 l 1,10,11
EndSplineSet
EndChar

StartChar: comma
Encoding: 44 44 13
Width: 725
GlyphClass: 1
Flags: W
LayerCount: 2
Fore
SplineSet
692 83 m 1,0,-1
 692 771 l 1,1,-1
 37 771 l 1,2,-1
 36 83 l 1,3,-1
 364 -106 l 1,4,-1
 692 83 l 1,0,-1
76 107 m 1,5,-1
 77 732 l 1,6,-1
 651 732 l 1,7,-1
 651 107 l 1,8,-1
 364 -58 l 1,9,-1
 76 107 l 1,5,-1
604 144 m 1,10,11
 604 144 604 144 604 237 c 1,12,-1
 363 98 l 1,13,14
 124 236 124 236 122 238 c 1,15,16
 122 238 122 238 122 142 c 1,17,-1
 363 4 l 1,18,-1
 604 144 l 1,10,11
604 236 m 1,19,20
 604 236 604 236 604 144 c 1,21,-1
 363 6 l 1,22,-1
 122 144 l 1,23,-1
 124 237 l 1,24,-1
 363 97 l 1,25,-1
 604 236 l 1,19,20
122 237 m 1,26,-1
 122 142 l 1,27,-1
 363 6 l 1,28,-1
 604 144 l 1,29,-1
 604 237 l 1,30,-1
 363 98 l 1,31,-1
 122 237 l 1,26,-1
606 294 m 1,32,33
 606 294 606 294 606 387 c 1,34,-1
 364 248 l 1,35,36
 126 386 126 386 124 387 c 1,37,38
 124 387 124 387 124 292 c 1,39,-1
 364 154 l 1,40,-1
 606 294 l 1,32,33
EndSplineSet
EndChar

StartChar: hyphen
Encoding: 45 45 14
Width: 726
GlyphClass: 1
Flags: W
LayerCount: 2
Fore
SplineSet
693 83 m 1,0,-1
 693 771 l 1,1,-1
 37 771 l 1,2,-1
 36 83 l 1,3,-1
 364 -106 l 1,4,-1
 693 83 l 1,0,-1
76 107 m 1,5,-1
 77 732 l 1,6,-1
 651 732 l 1,7,-1
 651 107 l 1,8,-1
 364 -58 l 1,9,-1
 76 107 l 1,5,-1
604 144 m 1,10,11
 604 144 604 144 604 237 c 1,12,-1
 363 98 l 1,13,14
 124 236 124 236 122 238 c 1,15,16
 122 238 122 238 122 142 c 1,17,-1
 364 4 l 1,18,-1
 604 144 l 1,10,11
606 294 m 1,19,20
 606 294 606 294 606 387 c 1,21,-1
 364 248 l 1,22,23
 126 386 126 386 124 387 c 1,24,25
 124 387 124 387 124 292 c 1,26,-1
 364 154 l 1,27,-1
 606 294 l 1,19,20
604 442 m 1,28,29
 604 442 604 442 604 536 c 1,30,-1
 363 396 l 1,31,32
 124 536 124 536 122 537 c 1,33,34
 122 537 122 537 122 442 c 1,35,-1
 364 304 l 1,36,-1
 604 442 l 1,28,29
EndSplineSet
EndChar

StartChar: period
Encoding: 46 46 15
Width: 725
GlyphClass: 1
Flags: W
LayerCount: 2
Fore
SplineSet
692 83 m 1,0,-1
 692 771 l 1,1,-1
 37 771 l 1,2,-1
 36 83 l 1,3,-1
 364 -106 l 1,4,-1
 692 83 l 1,0,-1
76 107 m 1,5,-1
 77 732 l 1,6,-1
 651 732 l 1,7,-1
 651 107 l 1,8,-1
 364 -58 l 1,9,-1
 76 107 l 1,5,-1
604 144 m 1,10,11
 604 144 604 144 604 237 c 1,12,-1
 363 98 l 1,13,14
 124 236 124 236 122 238 c 1,15,16
 122 238 122 238 122 142 c 1,17,-1
 363 4 l 1,18,-1
 604 144 l 1,10,11
606 294 m 1,19,20
 606 294 606 294 606 387 c 1,21,-1
 364 248 l 1,22,23
 126 386 126 386 124 387 c 1,24,25
 124 387 124 387 124 292 c 1,26,-1
 364 154 l 1,27,-1
 606 294 l 1,19,20
604 442 m 1,28,29
 604 442 604 442 604 536 c 1,30,-1
 363 396 l 1,31,32
 124 536 124 536 122 537 c 1,33,34
 122 537 122 537 122 442 c 1,35,-1
 364 304 l 1,36,-1
 604 442 l 1,28,29
122 684 m 1,37,38
 122 684 122 684 122 592 c 1,39,-1
 364 452 l 1,40,-1
 604 592 l 1,41,-1
 604 684 l 1,42,-1
 122 684 l 1,37,38
EndSplineSet
EndChar

StartChar: zero
Encoding: 48 48 16
Width: 2383
GlyphClass: 1
Flags: W
LayerCount: 2
Fore
SplineSet
868 560 m 1,0,-1
 868 570 l 1,1,-1
 851 570 l 1,2,-1
 851 560 l 1,3,-1
 834 560 l 1,4,-1
 834 570 l 1,5,-1
 817 570 l 1,6,-1
 817 560 l 1,7,-1
 797 560 l 1,8,-1
 797 570 l 1,9,-1
 779 570 l 1,10,-1
 779 560 l 1,11,-1
 759 560 l 1,12,-1
 759 570 l 1,13,-1
 742 570 l 1,14,-1
 742 560 l 1,15,-1
 726 560 l 1,16,-1
 726 570 l 1,17,-1
 707 570 l 1,18,-1
 707 560 l 1,19,-1
 693 560 l 1,20,-1
 693 570 l 1,21,-1
 652 570 l 1,22,-1
 650 535 l 1,23,-1
 53 531 l 1,24,25
 36 483 36 483 36 483 c 257,26,27
 36 483 36 483 36 196 c 0,28,29
 38 190 38 190 44 178 c 128,-1,30
 50 166 50 166 52 160 c 1,31,-1
 509 261 l 1,32,33
 743 323 743 323 757 326 c 1,34,-1
 791 302 l 1,35,-1
 819 252 l 1,36,-1
 825 203 l 1,37,-1
 740 81 l 1,38,-1
 720 -4 l 1,39,-1
 722 -45 l 1,40,41
 784 -70 784 -70 784 -70 c 1,42,-1
 834 -74 l 1,43,-1
 992 -126 l 1,44,-1
 1195 -144 l 1,45,-1
 1195 -138 l 1,46,-1
 1387 -120 l 1,47,-1
 1367 290 l 1,48,-1
 1388 266 l 1,49,-1
 2186 313 l 1,50,-1
 2198 353 l 1,51,-1
 2348 353 l 1,52,-1
 2348 413 l 1,53,-1
 2197 413 l 1,54,-1
 2190 523 l 1,55,56
 2179 523 2179 523 2159 523.5 c 128,-1,57
 2139 524 2139 524 2128 524 c 1,58,-1
 2128 550 l 1,59,-1
 2117 550 l 1,60,-1
 2117 576 l 1,61,-1
 2111 586 l 1,62,-1
 2108 586 l 1,63,64
 2108 629 2108 629 2102 700 c 1,65,66
 2091 701 2091 701 2076 701 c 1,67,68
 2062 642 2062 642 2059 626 c 0,69,70
 2059 625 2059 625 2054 586 c 1,71,-1
 2062 586 l 1,72,-1
 2062 584 l 1,73,74
 2050 584 2050 584 2050 584 c 1,75,76
 2050 583 2050 583 2047 580 c 128,-1,77
 2044 577 2044 577 2044 576 c 2,78,-1
 2044 551 l 1,79,-1
 2032 551 l 1,80,-1
 2032 560 l 1,81,-1
 2016 560 l 1,82,-1
 2016 551 l 1,83,-1
 1998 551 l 1,84,-1
 1998 560 l 1,85,-1
 1981 560 l 1,86,-1
 1981 551 l 1,87,-1
 1961 551 l 1,88,-1
 1961 560 l 1,89,-1
 1945 560 l 1,90,-1
 1945 551 l 1,91,-1
 1924 551 l 1,92,-1
 1924 560 l 1,93,-1
 1906 560 l 1,94,-1
 1906 551 l 1,95,-1
 1890 551 l 1,96,-1
 1890 560 l 1,97,-1
 1874 560 l 1,98,-1
 1874 551 l 1,99,-1
 1858 551 l 1,100,-1
 1858 560 l 1,101,-1
 1816 560 l 1,102,-1
 1816 540 l 1,103,-1
 1789 532 l 1,104,-1
 1505 533 l 1,105,-1
 1517 604 l 1,106,107
 1478 596 1478 596 1474 592 c 0,108,109
 1457 578 1457 578 1450 570 c 2,110,-1
 1434 535 l 1,111,-1
 988 535 l 1,112,-1
 988 560 l 1,113,-1
 977 560 l 1,114,115
 977 586 977 586 977 586 c 2,116,117
 976 588 976 588 972.5 592 c 128,-1,118
 969 596 969 596 967 598 c 0,119,120
 966 598 966 598 964.5 598.5 c 128,-1,121
 963 599 963 599 963 601 c 2,122,-1
 963 722 l 1,123,124
 929 722 929 722 915 720 c 0,125,126
 910 716 910 716 906 708 c 2,127,-1
 880 600 l 1,128,-1
 895 598 l 1,129,130
 890 598 890 598 886 595 c 0,131,132
 885 594 885 594 882.5 591.5 c 128,-1,133
 880 589 880 589 880 588 c 0,134,135
 878 580 878 580 878 560 c 1,136,-1
 868 560 l 1,0,-1
964 152 m 1,137,-1
 1151 152 l 1,138,-1
 1164 -124 l 1,139,140
 990 -94 990 -94 990 -94 c 1,141,-1
 870 -67 l 1,142,143
 876 -6 876 -6 876 -6 c 1,144,-1
 900 69 l 1,145,-1
 964 152 l 1,137,-1
1000 250 m 1,146,147
 1022 250 1022 250 1068.5 249 c 128,-1,148
 1115 248 1115 248 1137 248 c 1,149,-1
 1146 258 l 1,150,-1
 1151 170 l 1,151,-1
 964 170 l 1,152,-1
 962 215 l 1,153,-1
 1000 250 l 1,146,147
EndSplineSet
EndChar

StartChar: one
Encoding: 49 49 17
Width: 1347
GlyphClass: 1
Flags: W
LayerCount: 2
Fore
SplineSet
1243 692 m 1,0,1
 1216 706 1216 706 1205.5 709.5 c 128,-1,2
 1195 713 1195 713 1172 716 c 0,3,4
 1133 720 1133 720 1075 707 c 1,5,-1
 1053 698 l 1,6,-1
 1033 683 l 1,7,-1
 1006 671 l 1,8,-1
 955 632 l 1,9,-1
 923 600 l 1,10,-1
 901 569 l 1,11,-1
 892 546 l 1,12,-1
 898 508 l 1,13,-1
 903 495 l 1,14,15
 913 484 913 484 915 480 c 1,16,-1
 880 440 l 1,17,-1
 857 465 l 1,18,-1
 848 468 l 1,19,-1
 834 470 l 1,20,-1
 784 485 l 1,21,-1
 762 518 l 1,22,-1
 718 537 l 1,23,-1
 695 574 l 1,24,25
 634 606 634 606 632 606 c 2,26,-1
 616 595 l 1,27,28
 592 626 592 626 590 626 c 2,29,-1
 580 625 l 1,30,31
 574 616 574 616 574 614 c 2,32,-1
 598 584 l 1,33,34
 598 584 598 584 584 572 c 1,35,-1
 539 586 l 1,36,-1
 508 580 l 1,37,-1
 508 576 l 1,38,-1
 505 576 l 1,39,-1
 501 570 l 1,40,-1
 481 570 l 1,41,-1
 460 555 l 1,42,-1
 446 552 l 1,43,-1
 448 546 l 1,44,-1
 432 535 l 1,45,46
 429 517 429 517 428 513 c 1,47,-1
 408 513 l 1,48,49
 408 511 408 511 407 507.5 c 128,-1,50
 406 504 406 504 406 502 c 2,51,-1
 408 490 l 1,52,-1
 420 491 l 1,53,-1
 418 481 l 1,54,-1
 290 370 l 1,55,-1
 275 340 l 1,56,-1
 275 319 l 1,57,-1
 251 301 l 2,58,59
 202 262 202 262 200 262 c 2,60,-1
 195 242 l 1,61,-1
 206 203 l 1,62,63
 220 186 220 186 224 182 c 1,64,-1
 188 154 l 1,65,-1
 93 132 l 1,66,67
 52 134 52 134 52 134 c 1,68,-1
 51 124 l 1,69,-1
 36 119 l 1,70,-1
 37 88 l 1,71,72
 46 90 46 90 64 94.5 c 128,-1,73
 82 99 82 99 92 101 c 0,74,75
 131 94 131 94 148 93 c 1,76,77
 144 81 144 81 144 80 c 2,78,-1
 150 70 l 1,79,80
 128 62 128 62 128 61 c 2,81,-1
 128 51 l 1,82,-1
 131 39 l 1,83,-1
 136 30 l 1,84,-1
 157 38 l 1,85,-1
 122 13 l 2,86,87
 123 10 123 10 126.5 4 c 128,-1,88
 130 -2 130 -2 131 -4 c 0,89,90
 143 -12 143 -12 144 -12 c 2,91,-1
 180 13 l 1,92,-1
 184 6 l 1,93,-1
 102 -51 l 1,94,-1
 122 -70 l 1,95,-1
 199 -14 l 1,96,97
 203 -20 203 -20 206 -24.5 c 128,-1,98
 209 -29 209 -29 212 -33 c 2,99,-1
 224 -42 l 1,100,101
 246 -43 246 -43 248 -43 c 0,102,103
 254 -38 254 -38 255 -37 c 2,104,-1
 263 -43 l 2,105,106
 264 -42 264 -42 267.5 -39.5 c 128,-1,107
 271 -37 271 -37 274.5 -34 c 128,-1,108
 278 -31 278 -31 278 -31 c 1,109,-1
 275 -20 l 1,110,-1
 284 -13 l 1,111,112
 286 6 286 6 286 10 c 1,113,114
 291 9 291 9 299.5 8.5 c 128,-1,115
 308 8 308 8 312 8 c 0,116,117
 319 11 319 11 321 13 c 0,118,119
 329 8 329 8 331 8 c 2,120,-1
 340 12 l 1,121,-1
 343 4 l 1,122,-1
 414 28 l 1,123,-1
 416 13 l 1,124,-1
 448 -14 l 1,125,-1
 514 -16 l 1,126,-1
 707 -6 l 1,127,-1
 779 -16 l 2,128,129
 858 -28 858 -28 860 -28 c 0,130,131
 863 -27 863 -27 864 -27 c 2,132,-1
 866 -44 l 1,133,-1
 860 -79 l 1,134,-1
 837 -118 l 1,135,-1
 837 -126 l 1,136,-1
 848 -136 l 1,137,138
 853 -126 853 -126 863 -106.5 c 128,-1,139
 873 -87 873 -87 878 -77 c 2,140,-1
 886 -43 l 1,141,-1
 886 -26 l 1,142,-1
 900 -24 l 1,143,-1
 902 -52 l 1,144,145
 915 -64 915 -64 916 -65 c 2,146,-1
 921 -65 l 1,147,-1
 919 -88 l 1,148,149
 896 -125 896 -125 896 -126 c 0,150,151
 902 -136 902 -136 903 -136 c 2,152,-1
 915 -134 l 1,153,-1
 923 -144 l 1,154,155
 931 -138 931 -138 946 -124 c 128,-1,156
 961 -110 961 -110 969 -104 c 1,157,-1
 983 -34 l 1,158,159
 977 2 977 2 977 8 c 1,160,-1
 1008 25 l 1,161,-1
 1010 122 l 1,162,163
 1000 133 1000 133 983 152 c 1,164,-1
 955 241 l 1,165,-1
 963 327 l 1,166,167
 943 359 943 359 939 365 c 1,168,-1
 944 368 l 1,169,170
 948 364 948 364 950 364 c 0,171,172
 959 369 959 369 959 370 c 2,173,-1
 958 377 l 1,174,-1
 963 380 l 1,175,-1
 963 386 l 1,176,-1
 971 391 l 1,177,-1
 980 388 l 1,178,179
 986 392 986 392 987 392 c 0,180,181
 992 387 992 387 994 387 c 2,182,-1
 1002 392 l 1,183,-1
 1004 395 l 1,184,-1
 1018 392 l 2,185,186
 1019 390 1019 390 1070 382 c 1,187,188
 1072 377 1072 377 1076 373 c 2,189,-1
 1083 369 l 1,190,-1
 1094 371 l 2,191,192
 1099 374 1099 374 1103 379 c 1,193,194
 1110 371 1110 371 1112 371 c 2,195,-1
 1139 379 l 1,196,-1
 1164 386 l 1,197,-1
 1195 392 l 1,198,-1
 1247 410 l 1,199,-1
 1266 422 l 1,200,-1
 1292 466 l 1,201,-1
 1312 519 l 1,202,-1
 1310 562 l 1,203,-1
 1298 613 l 1,204,-1
 1276 665 l 1,205,-1
 1243 692 l 1,0,1
1101 376 m 1024,206,-1
1094 371 m 1024,207,-1
1083 369 m 1024,208,-1
1076 373 m 1024,209,-1
1072 379 m 1024,210,-1
980 388 m 1024,211,-1
963 380 m 1024,212,-1
1010 122 m 1024,213,-1
916 -65 m 1024,214,-1
902 -52 m 1024,215,-1
837 -118 m 1024,216,-1
860 -28 m 1024,217,-1
312 8 m 1024,218,-1
284 -13 m 1024,219,-1
248 -43 m 1024,220,-1
224 -42 m 1024,221,-1
212 -33 m 1024,222,-1
131 -4 m 1024,223,-1
148 93 m 1024,224,-1
200 262 m 1024,225,-1
275 340 m 1024,226,-1
406 502 m 1024,227,-1
432 535 m 1024,228,-1
481 570 m 1024,229,-1
580 625 m 1024,230,-1
848 468 m 1024,231,-1
857 465 m 1024,232,-1
1131 538 m 2,233,234
 1127 538 1127 538 1118 544 c 128,-1,235
 1109 550 1109 550 1103 557 c 0,236,237
 1091 576 1091 576 1094 582 c 0,238,239
 1097 584 1097 584 1106.5 581 c 128,-1,240
 1116 578 1116 578 1125 569 c 0,241,242
 1133 560 1133 560 1133 539 c 0,243,244
 1131 538 1131 538 1131 538 c 2,233,234
1103 381 m 1,245,-1
 1108 392 l 1,246,-1
 1150 408 l 1,247,-1
 1148 412 l 1,248,-1
 1150 432 l 1,249,-1
 1178 454 l 1,250,-1
 1209 462 l 1,251,-1
 1229 458 l 1,252,-1
 1239 442 l 1,253,254
 1238 436 1238 436 1238 424.5 c 128,-1,255
 1238 413 1238 413 1237 407 c 1,256,-1
 1234 407 l 1,257,258
 1238 442 1238 442 1238 442 c 1,259,-1
 1228 457 l 1,260,-1
 1208 460 l 1,261,-1
 1178 451 l 1,262,-1
 1151 430 l 1,263,-1
 1150 412 l 2,264,265
 1150 410 1150 410 1152 408 c 1,266,-1
 1109 389 l 1,267,-1
 1105 380 l 1,268,-1
 1103 381 l 1,245,-1
1174 404 m 1,269,-1
 1162 410 l 1,270,-1
 1162 422 l 1,271,-1
 1172 436 l 1,272,-1
 1188 446 l 1,273,-1
 1206 452 l 1,274,-1
 1217 446 l 1,275,276
 1219 434 1219 434 1219 434 c 1,277,-1
 1209 418 l 1,278,-1
 1190 408 l 1,279,-1
 1174 404 l 1,269,-1
1162 422 m 1024,280,-1
1172 436 m 1024,281,-1
1206 452 m 1024,282,-1
1217 446 m 1024,283,-1
1219 434 m 1024,284,-1
1209 418 m 1024,285,-1
1062 628 m 1,286,287
 1056 631 1056 631 1044.5 644 c 128,-1,288
 1033 657 1033 657 1036 669 c 0,289,290
 1039 671 1039 671 1042 671 c 0,291,292
 1058 670 1058 670 1063 655 c 0,293,294
 1067 639 1067 639 1062 628 c 1,286,287
EndSplineSet
EndChar

StartChar: two
Encoding: 50 50 18
Width: 1452
GlyphClass: 1
Flags: W
LayerCount: 2
Fore
SplineSet
89 -142 m 1,0,-1
 36 -50 l 1,1,-1
 42 -26 l 1,2,-1
 229 81 l 1,3,-1
 187 154 l 1,4,-1
 193 178 l 1,5,-1
 337 262 l 1,6,-1
 363 255 l 1,7,-1
 380 227 l 1,8,-1
 404 242 l 1,9,-1
 381 278 l 1,10,-1
 387 302 l 1,11,-1
 511 374 l 1,12,-1
 531 413 l 1,13,-1
 527 438 l 1,14,-1
 536 446 l 1,15,-1
 688 535 l 1,16,-1
 695 535 l 1,17,-1
 716 521 l 1,18,-1
 712 546 l 1,19,-1
 720 554 l 1,20,-1
 866 639 l 1,21,-1
 880 643 l 1,22,-1
 901 626 l 1,23,-1
 937 626 l 1,24,-1
 947 618 l 1,25,-1
 974 574 l 1,26,-1
 992 584 l 1,27,-1
 976 609 l 1,28,-1
 983 635 l 1,29,-1
 1125 718 l 1,30,-1
 1151 710 l 1,31,-1
 1172 676 l 1,32,-1
 1195 690 l 1,33,-1
 1195 704 l 1,34,-1
 1208 728 l 1,35,-1
 1233 742 l 1,36,-1
 1258 742 l 1,37,-1
 1282 728 l 1,38,-1
 1419 490 l 1,39,-1
 1395 462 l 1,40,-1
 1395 458 l 1,41,-1
 1367 428 l 1,42,-1
 1351 428 l 1,43,-1
 1312 495 l 1,44,-1
 1286 480 l 1,45,-1
 1306 446 l 1,46,-1
 1300 422 l 1,47,-1
 1154 337 l 1,48,-1
 1131 344 l 1,49,-1
 1115 370 l 1,50,-1
 1096 359 l 1,51,-1
 1122 314 l 1,52,-1
 1124 300 l 1,53,-1
 1108 270 l 1,54,-1
 1111 244 l 1,55,-1
 1102 233 l 1,56,-1
 955 150 l 1,57,-1
 945 146 l 1,58,-1
 923 162 l 1,59,-1
 926 136 l 1,60,-1
 916 128 l 1,61,-1
 770 43 l 1,62,-1
 759 39 l 1,63,-1
 738 56 l 1,64,-1
 693 57 l 1,65,-1
 569 -16 l 1,66,-1
 548 -8 l 1,67,-1
 526 30 l 1,68,-1
 502 16 l 1,69,-1
 518 -13 l 1,70,-1
 512 -37 l 1,71,-1
 368 -120 l 1,72,-1
 343 -114 l 1,73,-1
 301 -40 l 1,74,-1
 113 -148 l 1,75,-1
 89 -142 l 1,0,-1
EndSplineSet
EndChar

StartChar: three
Encoding: 51 51 19
Width: 1438
GlyphClass: 1
Flags: W
LayerCount: 2
Fore
SplineSet
982 324 m 1,0,-1
 998 269 l 1,1,2
 996 260 996 260 991 242 c 128,-1,3
 986 224 986 224 983 214 c 1,4,-1
 902 219 l 2,5,6
 895 219 895 219 879.5 218 c 128,-1,7
 864 217 864 217 857 217 c 1,8,-1
 858 223 l 1,9,-1
 914 224 l 1,10,11
 912 260 912 260 904 324 c 1,12,-1
 982 324 l 1,0,-1
535 325 m 1,13,-1
 712 325 l 1,14,15
 714 317 714 317 719 299.5 c 128,-1,16
 724 282 724 282 726 274 c 0,17,18
 725 269 725 269 723.5 259.5 c 128,-1,19
 722 250 722 250 722 245 c 0,20,21
 703 217 703 217 670 172 c 1,22,-1
 535 226 l 1,23,-1
 535 325 l 1,13,-1
107 281 m 1,24,-1
 128 281 l 1,25,-1
 128 327 l 1,26,-1
 223 364 l 1,27,-1
 286 330 l 1,28,-1
 286 261 l 1,29,-1
 243 205 l 1,30,-1
 163 231 l 1,31,-1
 107 264 l 1,32,-1
 107 281 l 1,24,-1
992 590 m 1,33,-1
 992 694 l 1,34,-1
 962 694 l 1,35,-1
 962 650 l 1,36,-1
 908 612 l 1,37,-1
 908 576 l 1,38,-1
 803 576 l 1,39,-1
 803 564 l 1,40,-1
 824 564 l 1,41,-1
 754 544 l 1,42,-1
 524 544 l 1,43,-1
 505 560 l 1,44,-1
 349 560 l 1,45,-1
 313 536 l 1,46,-1
 313 537 l 1,47,-1
 122 537 l 1,48,49
 120 557 120 557 116 601.5 c 128,-1,50
 112 646 112 646 110 669 c 1,51,-1
 97 680 l 1,52,53
 91 679 91 679 73.5 678 c 128,-1,54
 56 677 56 677 46 676 c 1,55,-1
 39 667 l 1,56,-1
 36 658 l 1,57,-1
 51 472 l 1,58,59
 44 283 44 283 44 281 c 1,60,-1
 49 281 l 1,61,62
 48 273 48 273 47 258 c 128,-1,63
 46 243 46 243 45 235 c 1,64,-1
 138 169 l 1,65,-1
 256 118 l 1,66,67
 290 122 290 122 290 122 c 1,68,-1
 290 124 l 1,69,-1
 308 124 l 1,70,-1
 307 -138 l 1,71,-1
 369 -134 l 1,72,-1
 495 -87 l 1,73,-1
 495 122 l 1,74,-1
 532 122 l 1,75,-1
 586 97 l 1,76,-1
 692 2 l 1,77,78
 700 12 700 12 718.5 30 c 128,-1,79
 737 48 737 48 746 57 c 0,80,81
 827 178 827 178 833 186 c 1,82,83
 859 186 859 186 910.5 184.5 c 128,-1,84
 962 183 962 183 988 183 c 1,85,86
 1007 195 1007 195 1016 202 c 1,87,-1
 1033 269 l 1,88,-1
 1032 286 l 1,89,-1
 1133 286 l 1,90,-1
 1128 177 l 1,91,-1
 1128 -2 l 1,92,-1
 1136 -30 l 1,93,-1
 1136 -45 l 1,94,-1
 1210 -45 l 1,95,-1
 1210 -30 l 1,96,-1
 1219 -4 l 1,97,-1
 1219 181 l 1,98,99
 1214 275 1214 275 1214 286 c 1,100,-1
 1275 286 l 1,101,-1
 1275 321 l 1,102,103
 1280 321 1280 321 1280 322 c 2,104,-1
 1283 337 l 1,105,-1
 1283 355 l 1,106,-1
 1405 355 l 1,107,-1
 1405 418 l 1,108,-1
 1283 418 l 1,109,-1
 1283 425 l 1,110,-1
 1306 425 l 1,111,112
 1314 438 1314 438 1331 463.5 c 128,-1,113
 1348 489 1348 489 1357 502 c 2,114,-1
 1383 531 l 1,115,-1
 1383 580 l 1,116,-1
 1320 580 l 1,117,118
 1316 576 1316 576 1309.5 568.5 c 128,-1,119
 1303 561 1303 561 1300 558 c 0,120,121
 1283 542 1283 542 1281 540 c 2,122,-1
 1096 540 l 1,123,-1
 1072 564 l 1,124,-1
 1087 564 l 1,125,-1
 1087 574 l 1,126,-1
 1024 574 l 1,127,-1
 1024 590 l 1,128,-1
 992 590 l 1,33,-1
EndSplineSet
EndChar

StartChar: four
Encoding: 52 52 20
Width: 2264
GlyphClass: 1
Flags: W
LayerCount: 2
Fore
SplineSet
692 326 m 1,0,1
 692 326 692 326 868 326 c 1,2,3
 886 275 886 275 886 275 c 1,4,-1
 880 246 l 1,5,6
 872 234 872 234 854.5 209 c 128,-1,7
 837 184 837 184 828 172 c 1,8,-1
 692 225 l 1,9,-1
 692 326 l 1,0,1
1142 326 m 1,10,-1
 1160 270 l 1,11,12
 1157 261 1157 261 1152.5 242.5 c 128,-1,13
 1148 224 1148 224 1145 215 c 1,14,-1
 1052 221 l 2,15,16
 1046 221 1046 221 1034 220 c 128,-1,17
 1022 219 1022 219 1016 219 c 1,18,19
 1018 225 1018 225 1018 225 c 1,20,21
 1028 225 1028 225 1046.5 225.5 c 128,-1,22
 1065 226 1065 226 1075 226 c 1,23,24
 1073 243 1073 243 1070 276.5 c 128,-1,25
 1067 310 1067 310 1065 326 c 1,26,-1
 1142 326 l 1,10,-1
280 331 m 1,27,-1
 377 370 l 1,28,-1
 444 333 l 1,29,-1
 444 262 l 1,30,31
 436 252 436 252 421.5 232.5 c 128,-1,32
 407 213 407 213 399 202 c 1,33,34
 319 230 319 230 319 230 c 2,35,36
 312 234 312 234 299 241 c 128,-1,37
 286 248 286 248 280 252 c 1,38,-1
 280 331 l 1,27,-1
880 246 m 1024,39,-1
1028 223 m 1,40,41
 1027 223 1027 223 1024 222 c 128,-1,42
 1021 221 1021 221 1020 221 c 1,43,-1
 1028 223 l 1,40,41
1250 576 m 1,44,-1
 1274 576 l 1,45,-1
 1274 701 l 1,46,-1
 1077 701 l 1,47,-1
 1077 655 l 1,48,49
 1022 616 1022 616 1022 615 c 2,50,-1
 1022 580 l 1,51,-1
 963 580 l 1,52,-1
 963 568 l 1,53,-1
 964 568 l 1,54,-1
 913 548 l 1,55,-1
 680 548 l 1,56,-1
 659 564 l 1,57,-1
 659 564 l 1,58,-1
 659 564 l 1,59,-1
 659 564 l 1,60,-1
 658 564 l 1,61,-1
 658 564 l 1,62,-1
 657 564 l 1,63,-1
 657 564 l 1,64,-1
 656 564 l 1,65,-1
 655 564 l 1,66,-1
 654 564 l 1,67,-1
 653 564 l 1,68,-1
 652 564 l 1,69,-1
 651 564 l 1,70,-1
 650 564 l 1,71,-1
 649 564 l 1,72,-1
 648 564 l 1,73,-1
 647 564 l 1,74,-1
 646 564 l 1,75,-1
 645 564 l 1,76,-1
 644 564 l 1,77,-1
 643 564 l 1,78,-1
 642 564 l 1,79,-1
 641 564 l 1,80,-1
 640 564 l 1,81,-1
 639 564 l 1,82,-1
 638 564 l 1,83,-1
 637 564 l 1,84,-1
 636 564 l 1,85,-1
 635 564 l 1,86,-1
 634 564 l 1,87,-1
 633 564 l 1,88,-1
 632 564 l 1,89,-1
 630 564 l 1,90,-1
 629 564 l 1,91,-1
 628 564 l 1,92,-1
 627 564 l 1,93,-1
 626 564 l 1,94,-1
 625 564 l 1,95,-1
 624 564 l 1,96,-1
 623 564 l 1,97,-1
 622 564 l 1,98,-1
 620 564 l 1,99,-1
 619 564 l 1,100,-1
 618 564 l 1,101,-1
 617 564 l 1,102,-1
 615 564 l 1,103,-1
 614 564 l 1,104,-1
 613 564 l 1,105,-1
 612 564 l 1,106,-1
 610 564 l 1,107,-1
 609 564 l 1,108,-1
 608 564 l 1,109,-1
 607 564 l 1,110,-1
 605 564 l 1,111,-1
 604 564 l 1,112,-1
 603 564 l 1,113,-1
 601 564 l 1,114,-1
 600 564 l 1,115,-1
 598 564 l 1,116,-1
 597 564 l 1,117,-1
 596 564 l 1,118,-1
 594 564 l 1,119,-1
 593 564 l 1,120,-1
 591 564 l 1,121,-1
 590 564 l 1,122,-1
 589 564 l 1,123,-1
 587 564 l 1,124,-1
 586 564 l 1,125,-1
 584 564 l 1,126,-1
 583 564 l 1,127,-1
 581 564 l 1,128,-1
 580 564 l 1,129,-1
 578 564 l 1,130,-1
 577 564 l 1,131,-1
 575 564 l 1,132,-1
 574 564 l 1,133,-1
 572 564 l 1,134,-1
 570 564 l 1,135,-1
 569 564 l 1,136,-1
 567 564 l 1,137,-1
 566 564 l 1,138,-1
 564 564 l 1,139,-1
 562 564 l 1,140,-1
 561 564 l 1,141,-1
 559 564 l 1,142,-1
 558 564 l 1,143,-1
 556 564 l 1,144,-1
 554 564 l 1,145,-1
 553 564 l 1,146,-1
 551 564 l 1,147,-1
 549 564 l 1,148,-1
 548 564 l 1,149,-1
 546 564 l 1,150,-1
 544 564 l 1,151,-1
 543 564 l 1,152,-1
 541 564 l 1,153,-1
 539 564 l 1,154,-1
 537 564 l 1,155,-1
 536 564 l 1,156,-1
 534 564 l 1,157,-1
 532 564 l 1,158,-1
 530 564 l 1,159,-1
 529 564 l 1,160,-1
 527 564 l 1,161,-1
 525 564 l 1,162,-1
 523 564 l 1,163,-1
 521 564 l 1,164,-1
 520 564 l 1,165,-1
 518 564 l 1,166,-1
 516 564 l 1,167,-1
 514 564 l 1,168,-1
 505 564 l 1,169,170
 477 544 477 544 469 540 c 1,171,172
 469 543 469 543 468 543 c 2,173,-1
 278 543 l 1,174,175
 264 554 264 554 264 554 c 1,176,177
 48 563 48 563 46 563 c 2,178,-1
 39 555 l 1,179,-1
 36 543 l 1,180,-1
 51 475 l 1,181,-1
 51 244 l 1,182,-1
 282 172 l 1,183,-1
 282 175 l 1,184,-1
 292 169 l 1,185,186
 410 117 410 117 412 117 c 2,187,-1
 444 122 l 1,188,-1
 444 124 l 1,189,-1
 463 124 l 1,190,-1
 463 -140 l 1,191,192
 474 -140 474 -140 495 -137.5 c 128,-1,193
 516 -135 516 -135 527 -134 c 0,194,195
 652 -89 652 -89 652 -88 c 2,196,-1
 652 122 l 1,197,-1
 689 122 l 1,198,-1
 745 95 l 1,199,200
 850 0 850 0 850 0 c 1,201,202
 859 9 859 9 878 29 c 128,-1,203
 897 49 897 49 906 58 c 0,204,205
 985 176 985 176 992 186 c 1,206,-1
 1051 186 l 1,207,208
 1103 148 1103 148 1105 148 c 2,209,-1
 1150 158 l 1,210,-1
 1176 203 l 1,211,-1
 1195 269 l 1,212,213
 1192 284 1192 284 1192 288 c 1,214,-1
 1295 288 l 1,215,-1
 1290 176 l 1,216,-1
 1290 -4 l 1,217,-1
 1298 -31 l 1,218,-1
 1298 -46 l 1,219,-1
 1375 -46 l 1,220,-1
 1375 -31 l 1,221,-1
 1382 -4 l 1,222,-1
 1382 183 l 1,223,224
 1377 275 1377 275 1377 288 c 1,225,-1
 1439 288 l 1,226,-1
 1439 324 l 1,227,228
 1441 323 1441 323 1442 325 c 2,229,-1
 1448 338 l 1,230,-1
 1448 358 l 1,231,-1
 1539 358 l 1,232,-1
 1539 312 l 1,233,-1
 1713 312 l 1,234,-1
 1768 321 l 1,235,-1
 2229 321 l 1,236,-1
 2229 460 l 1,237,-1
 1768 460 l 1,238,-1
 1713 470 l 1,239,-1
 1539 470 l 1,240,-1
 1539 420 l 1,241,-1
 1448 420 l 1,242,-1
 1448 428 l 1,243,-1
 1471 428 l 1,244,-1
 1520 503 l 1,245,-1
 1549 535 l 1,246,-1
 1549 584 l 1,247,248
 1538 584 1538 584 1516.5 584 c 128,-1,249
 1495 584 1495 584 1484 584 c 1,250,251
 1472 570 1472 570 1446 544 c 1,252,-1
 1259 544 l 1,253,254
 1241 560 1241 560 1235 568 c 1,255,-1
 1250 568 l 1,256,-1
 1250 576 l 1,44,-1
1484 584 m 1024,257,-1
1549 535 m 1024,258,-1
1448 338 m 1024,259,-1
1195 269 m 1024,260,-1
1150 158 m 1024,261,-1
412 117 m 1024,262,-1
36 543 m 1024,263,-1
39 555 m 1024,264,-1
EndSplineSet
EndChar

StartChar: five
Encoding: 53 53 21
Width: 1988
GlyphClass: 1
Flags: W
LayerCount: 2
Fore
SplineSet
913 49 m 1,0,1
 913 49 913 49 902.5 52.5 c 128,-1,2
 892 56 892 56 880.5 59 c 128,-1,3
 869 62 869 62 868 62 c 0,4,5
 847 89 847 89 845 91 c 2,6,-1
 839 134 l 1,7,-1
 817 190 l 1,8,-1
 809 201 l 1,9,10
 730 230 730 230 730 230 c 1,11,12
 650 232 650 232 650 232 c 257,13,14
 650 232 650 232 635.5 239 c 128,-1,15
 621 246 621 246 605 254 c 2,16,-1
 590 261 l 1,17,-1
 463 308 l 1,18,-1
 377 324 l 1,19,20
 164 264 164 264 164 264 c 1,21,22
 165 264 165 264 151.5 267.5 c 128,-1,23
 138 271 138 271 124 274.5 c 128,-1,24
 110 278 110 278 110 278 c 1,25,-1
 88 312 l 1,26,-1
 61 380 l 1,27,28
 61 380 61 380 36 493 c 1,29,-1
 104 550 l 1,30,31
 103 550 103 550 211.5 553.5 c 128,-1,32
 320 557 320 557 428 560 c 2,33,-1
 537 564 l 1,34,-1
 695 536 l 1,35,36
 695 536 695 536 719.5 520.5 c 128,-1,37
 744 505 744 505 770 490 c 2,38,-1
 795 475 l 2,39,40
 801 469 801 469 892 440 c 0,41,42
 893 440 893 440 905 440.5 c 128,-1,43
 917 441 917 441 933.5 441.5 c 128,-1,44
 950 442 950 442 967 442 c 128,-1,45
 984 442 984 442 996 442 c 128,-1,46
 1008 442 1008 442 1008 442 c 1,47,-1
 1038 389 l 1,48,-1
 1052 389 l 1,49,-1
 1133 359 l 2,50,51
 1196 337 1196 337 1196 336 c 0,52,53
 1278 310 1278 310 1559 230 c 1,54,-1
 1645 197 l 1,55,-1
 1738 140 l 1,56,-1
 1809 83 l 1,57,-1
 1882 8 l 1,58,59
 1953 -89 1953 -89 1954 -91 c 1,60,61
 1941 -94 1941 -94 1914 -99 c 128,-1,62
 1887 -104 1887 -104 1874 -107 c 2,63,-1
 1790 -112 l 1,64,-1
 1675 -112 l 1,65,-1
 1570 -99 l 1,66,-1
 1444 -75 l 1,67,-1
 1113 32 l 1,68,69
 1075 56 1075 56 1073 57 c 2,70,-1
 1065 73 l 1,71,-1
 1052 88 l 1,72,73
 1052 88 1052 88 1018 99 c 1,74,-1
 968 64 l 1,75,76
 968 64 968 64 954.5 60.5 c 128,-1,77
 941 57 941 57 927 53 c 2,78,-1
 913 49 l 1,0,1
110 278 m 1024,79,-1
845 91 m 1024,80,-1
868 62 m 1024,81,-1
1073 57 m 1024,82,-1
915 328 m 0,83,84
 915 349 915 349 902.5 362.5 c 128,-1,85
 890 376 890 376 872 376 c 128,-1,86
 854 376 854 376 841 362.5 c 128,-1,87
 828 349 828 349 828 328 c 0,88,89
 828 309 828 309 841 294.5 c 128,-1,90
 854 280 854 280 872 280 c 128,-1,91
 890 280 890 280 902.5 294.5 c 128,-1,92
 915 309 915 309 915 328 c 0,83,84
892 328 m 0,93,94
 892 319 892 319 886 313 c 128,-1,95
 880 307 880 307 872 307 c 0,96,97
 862 307 862 307 855 313.5 c 128,-1,98
 848 320 848 320 848 328 c 0,99,100
 848 338 848 338 855 344.5 c 128,-1,101
 862 351 862 351 872 351 c 0,102,103
 880 351 880 351 886 344.5 c 128,-1,104
 892 338 892 338 892 328 c 0,93,94
EndSplineSet
EndChar

StartChar: six
Encoding: 54 54 22
Width: 1442
GlyphClass: 1
Flags: W
LayerCount: 2
Fore
SplineSet
557 150 m 1,0,-1
 518 195 l 1,1,-1
 531 196 l 1,2,3
 532 210 532 210 533.5 237.5 c 128,-1,4
 535 265 535 265 536 278 c 1,5,-1
 580 298 l 1,6,7
 580 298 580 298 577 288.5 c 128,-1,8
 574 279 574 279 574 278 c 2,9,-1
 592 218 l 1,10,-1
 628 172 l 1,11,-1
 645 172 l 1,12,13
 622 215 622 215 622 215 c 1,14,-1
 622 263 l 1,15,-1
 641 298 l 1,16,-1
 763 298 l 1,17,-1
 763 160 l 2,18,19
 762 159 762 159 760.5 155 c 128,-1,20
 759 151 759 151 758 150 c 2,21,-1
 557 150 l 1,0,-1
854 463 m 1,22,-1
 868 463 l 1,23,-1
 868 432 l 1,24,-1
 854 432 l 1,25,-1
 854 463 l 1,22,-1
854 523 m 1,26,-1
 870 523 l 1,27,-1
 870 511 l 1,28,-1
 854 511 l 1,29,-1
 854 523 l 1,26,-1
851 595 m 1,30,-1
 868 595 l 1,31,-1
 868 580 l 1,32,-1
 851 580 l 1,33,-1
 851 595 l 1,30,-1
549 590 m 1,34,-1
 549 596 l 1,35,-1
 745 596 l 1,36,-1
 745 580 l 1,37,-1
 724 580 l 1,38,-1
 724 523 l 1,39,-1
 745 523 l 1,40,-1
 745 511 l 1,41,-1
 718 511 l 1,42,-1
 718 590 l 1,43,-1
 549 590 l 1,34,-1
549 377 m 1,44,-1
 718 377 l 1,45,-1
 718 463 l 1,46,-1
 748 463 l 1,47,48
 748 381 748 381 748 369 c 1,49,-1
 578 369 l 2,50,51
 573 369 573 369 563.5 370 c 128,-1,52
 554 371 554 371 549 371 c 1,53,-1
 549 377 l 1,44,-1
530 656 m 1,54,-1
 530 680 l 1,55,-1
 502 680 l 1,56,-1
 502 635 l 1,57,-1
 430 635 l 1,58,59
 430 633 430 633 426 627 c 1,60,-1
 307 627 l 1,61,62
 307 626 307 626 307.5 606 c 128,-1,63
 308 586 308 586 308 586 c 1,64,-1
 364 570 l 1,65,-1
 377 550 l 1,66,-1
 373 524 l 1,67,-1
 327 484 l 1,68,-1
 316 484 l 1,69,-1
 286 481 l 1,70,-1
 252 460 l 1,71,-1
 227 383 l 1,72,-1
 136 244 l 2,73,74
 137 243 137 243 36 -81 c 1,75,76
 54 -90 54 -90 91.5 -108.5 c 128,-1,77
 129 -127 129 -127 148 -136 c 1,78,79
 319 -132 319 -132 320 -132 c 0,80,81
 324 -105 324 -105 330.5 -51 c 128,-1,82
 337 3 337 3 340 30 c 1,83,-1
 365 68 l 1,84,-1
 347 113 l 1,85,86
 357 173 357 173 358 181 c 1,87,-1
 480 190 l 1,88,-1
 538 125 l 1,89,-1
 796 125 l 1,90,-1
 825 158 l 1,91,-1
 825 307 l 1,92,-1
 833 308 l 1,93,-1
 833 302 l 1,94,-1
 1137 302 l 1,95,-1
 1154 262 l 1,96,-1
 1241 262 l 1,97,-1
 1241 405 l 1,98,-1
 1271 373 l 1,99,-1
 1377 373 l 1,100,-1
 1377 520 l 1,101,-1
 1407 520 l 1,102,-1
 1407 582 l 1,103,-1
 1377 582 l 1,104,-1
 1377 662 l 1,105,-1
 1288 662 l 1,106,-1
 1288 645 l 1,107,-1
 1087 645 l 1,108,-1
 1087 652 l 1,109,-1
 560 652 l 1,110,111
 560 649 560 649 559 643 c 128,-1,112
 558 637 558 637 558 634 c 1,113,-1
 557 634 l 1,114,-1
 557 656 l 1,115,-1
 530 656 l 1,54,-1
796 125 m 1024,116,-1
EndSplineSet
EndChar

StartChar: seven
Encoding: 55 55 23
Width: 2949
GlyphClass: 1
Flags: W
LayerCount: 2
Fore
SplineSet
1220 176 m 1,0,1
 1218 186 1218 186 1215 206.5 c 128,-1,2
 1212 227 1212 227 1210 237 c 1,3,4
 1211 237 1211 237 1249 238 c 128,-1,5
 1287 239 1287 239 1294 239 c 1,6,-1
 1294 182 l 1,7,8
 1262 157 1262 157 1262 157 c 1,9,-1
 1229 152 l 1,10,11
 1224 156 1224 156 1213 164 c 128,-1,12
 1202 172 1202 172 1196 176 c 1,13,-1
 1220 176 l 1,0,1
2433 377 m 1,14,15
 2463 377 2463 377 2524.5 378.5 c 128,-1,16
 2586 380 2586 380 2616 380 c 1,17,-1
 2638 370 l 1,18,-1
 2636 367 l 1,19,-1
 2433 367 l 1,20,-1
 2433 377 l 1,14,15
1878 515 m 1,21,-1
 1870 515 l 1,22,-1
 1870 493 l 1,23,24
 1866 493 1866 493 1866 491 c 2,25,-1
 1864 481 l 1,26,-1
 1857 481 l 1,27,-1
 1854 491 l 1,28,29
 1846 491 1846 491 1846 490 c 0,30,31
 1843 474 1843 474 1843 463 c 1,32,33
 1812 463 1812 463 1810 462 c 2,34,-1
 1796 440 l 1,35,-1
 1796 465 l 1,36,-1
 1744 465 l 1,37,-1
 1744 475 l 1,38,39
 1646 474 1646 474 1646 474 c 1,40,-1
 1646 463 l 1,41,42
 1606 456 1606 456 1563 456 c 1,43,-1
 1563 446 l 1,44,-1
 1330 446 l 1,45,-1
 1418 456 l 1,46,-1
 1421 480 l 1,47,-1
 1306 480 l 1,48,49
 1305 509 1305 509 1304 511 c 2,50,-1
 1286 521 l 1,51,-1
 1263 521 l 1,52,53
 1244 511 1244 511 1243 509 c 2,54,-1
 1240 446 l 1,55,56
 1175 446 1175 446 1174 446 c 2,57,-1
 1166 436 l 1,58,-1
 1166 385 l 1,59,-1
 1134 385 l 1,60,61
 1135 385 1135 385 1120 374.5 c 128,-1,62
 1105 364 1105 364 1090 353 c 2,63,-1
 1075 343 l 1,64,65
 993 270 993 270 983 262 c 1,66,-1
 854 292 l 1,67,-1
 894 419 l 1,68,-1
 894 454 l 1,69,-1
 310 454 l 1,70,-1
 310 428 l 1,71,-1
 36 428 l 1,72,-1
 36 -2 l 1,73,-1
 257 -2 l 1,74,-1
 257 -8 l 1,75,-1
 506 -8 l 1,76,-1
 506 134 l 1,77,-1
 756 136 l 1,78,-1
 803 6 l 1,79,80
 824 -29 824 -29 826 -31 c 0,81,82
 964 -34 964 -34 1040 -34 c 1,83,-1
 1064 -30 l 1,84,-1
 1064 -8 l 1,85,-1
 1042 -4 l 1,86,-1
 1084 152 l 2,87,88
 1085 152 1085 152 1103.5 160.5 c 128,-1,89
 1122 169 1122 169 1143.5 178 c 128,-1,90
 1165 187 1165 187 1168 189 c 1,91,-1
 1168 175 l 1,92,-1
 1197 148 l 1,93,-1
 1229 140 l 1,94,-1
 1261 144 l 1,95,96
 1319 160 1319 160 1321 160 c 0,97,98
 1339 182 1339 182 1339 183 c 2,99,-1
 1339 236 l 1,100,-1
 1436 238 l 1,101,102
 1436 238 1436 238 1427 174 c 1,103,-1
 1436 169 l 1,104,-1
 1454 239 l 1,105,-1
 1458 239 l 1,106,-1
 1504 -6 l 1,107,-1
 1796 53 l 1,108,-1
 1760 249 l 1,109,110
 1797 254 1797 254 1798 256 c 2,111,-1
 1802 270 l 1,112,-1
 1940 248 l 1,113,-1
 2324 248 l 1,114,115
 2323 248 2323 248 2335 255 c 128,-1,116
 2347 262 2347 262 2360 269 c 2,117,-1
 2372 276 l 1,118,-1
 2430 276 l 1,119,-1
 2435 304 l 1,120,-1
 2723 304 l 1,121,-1
 2723 365 l 1,122,-1
 2914 365 l 1,123,-1
 2914 436 l 1,124,-1
 2690 436 l 1,125,-1
 2690 525 l 1,126,-1
 2644 525 l 1,127,-1
 2644 436 l 1,128,-1
 2616 430 l 1,129,-1
 2435 430 l 1,130,-1
 2435 450 l 1,131,132
 2429 467 2429 467 2429 468 c 1,133,134
 2429 467 2429 467 2419 469.5 c 128,-1,135
 2409 472 2409 472 2399 474 c 2,136,-1
 2389 477 l 1,137,-1
 2080 477 l 1,138,-1
 2066 463 l 1,139,-1
 2048 463 l 1,140,-1
 2048 482 l 1,141,-1
 2030 482 l 1,142,143
 2031 506 2031 506 2030 508 c 2,144,-1
 1991 523 l 1,145,-1
 1991 608 l 1,146,-1
 1920 608 l 1,147,148
 1920 602 1920 602 1920.5 587.5 c 128,-1,149
 1921 573 1921 573 1921 566 c 0,150,151
 1921 565 1921 565 1902 542.5 c 128,-1,152
 1883 520 1883 520 1878 515 c 1,21,-1
1262 157 m 1024,153,-1
1229 152 m 1024,154,-1
2080 477 m 1024,155,-1
2429 468 m 1024,156,-1
2435 450 m 1024,157,-1
1339 183 m 1024,158,-1
1321 160 m 1024,159,-1
1229 140 m 1024,160,-1
1197 148 m 1024,161,-1
1168 175 m 1024,162,-1
1170 189 m 1024,163,-1
1166 436 m 1024,164,-1
1263 521 m 1024,165,-1
1286 521 m 1024,166,-1
1843 480 m 1024,167,-1
EndSplineSet
EndChar

StartChar: eight
Encoding: 56 56 24
Width: 3478
GlyphClass: 1
Flags: W
LayerCount: 2
Fore
SplineSet
1250 164 m 1,0,1
 1248 174 1248 174 1243.5 194.5 c 128,-1,2
 1239 215 1239 215 1238 225 c 1,3,4
 1328 227 1328 227 1328 227 c 1,5,-1
 1328 170 l 1,6,7
 1294 144 1294 144 1294 144 c 1,8,9
 1259 140 1259 140 1259 140 c 1,10,11
 1253 144 1253 144 1242 152 c 128,-1,12
 1231 160 1231 160 1225 164 c 1,13,-1
 1250 164 l 1,0,1
1294 144 m 1024,14,-1
1259 140 m 1024,15,-1
2539 416 m 1,16,-1
 2539 436 l 1,17,18
 2533 456 2533 456 2530 458 c 2,19,-1
 2524 458 l 1,20,-1
 2524 503 l 1,21,-1
 2474 503 l 1,22,-1
 2474 468 l 1,23,-1
 2162 466 l 1,24,-1
 2145 451 l 1,25,-1
 2127 451 l 1,26,-1
 2127 472 l 1,27,-1
 2095 472 l 1,28,-1
 2093 536 l 1,29,-1
 2178 536 l 1,30,31
 2188 515 2188 515 2200 515 c 0,32,33
 2277 515 2277 515 2399 514.5 c 128,-1,34
 2521 514 2521 514 2598 514 c 1,35,-1
 2598 620 l 1,36,-1
 2200 620 l 2,37,38
 2188 620 2188 620 2178 598 c 1,39,-1
 2059 598 l 1,40,-1
 2059 620 l 1,41,-1
 1996 620 l 1,42,-1
 1996 598 l 1,43,-1
 1841 598 l 1,44,45
 1833 620 1833 620 1822 620 c 2,46,47
 1822 620 1822 620 1675 620 c 1,48,-1
 1675 514 l 1,49,50
 1675 514 1675 514 1822 514 c 0,51,52
 1827 514 1827 514 1832 519.5 c 128,-1,53
 1837 525 1837 525 1839 530 c 2,54,-1
 1841 536 l 1,55,-1
 1967 536 l 1,56,-1
 1967 494 l 1,57,-1
 1947 494 l 1,58,-1
 1947 472 l 1,59,-1
 1946 472 l 2,60,61
 1945 472 1945 472 1945 474.5 c 128,-1,62
 1945 477 1945 477 1944 479.5 c 128,-1,63
 1943 482 1943 482 1941 482 c 2,64,-1
 1938 482 l 1,65,-1
 1932 482 l 1,66,-1
 1932 472 l 1,67,-1
 1923 472 l 2,68,69
 1922 473 1922 473 1922 475.5 c 128,-1,70
 1922 478 1922 478 1922 479.5 c 128,-1,71
 1922 481 1922 481 1920 481 c 0,72,73
 1913 481 1913 481 1911 476.5 c 128,-1,74
 1909 472 1909 472 1909 452 c 1,75,76
 1876 452 1876 452 1874 451 c 2,77,-1
 1858 428 l 1,78,-1
 1858 456 l 1,79,-1
 1805 456 l 1,80,-1
 1805 465 l 1,81,82
 1699 463 1699 463 1699 463 c 1,83,-1
 1699 452 l 1,84,85
 1660 446 1660 446 1612 446 c 1,86,-1
 1612 436 l 1,87,-1
 1460 444 l 1,88,-1
 1462 469 l 1,89,-1
 1341 469 l 1,90,91
 1342 498 1342 498 1340 500 c 2,92,-1
 1318 512 l 1,93,-1
 1295 512 l 1,94,95
 1275 501 1275 501 1274 499 c 0,96,97
 1269 455 1269 455 1269 436 c 1,98,-1
 1201 434 l 1,99,-1
 1194 426 l 1,100,-1
 1194 374 l 1,101,-1
 1158 373 l 1,102,103
 1159 373 1159 373 1142.5 362.5 c 128,-1,104
 1126 352 1126 352 1110 341 c 2,105,-1
 1094 331 l 1,106,107
 1008 259 1008 259 998 251 c 1,108,-1
 876 281 l 1,109,-1
 918 407 l 1,110,-1
 918 444 l 1,111,-1
 318 444 l 1,112,-1
 318 418 l 1,113,114
 271 418 271 418 177 417 c 128,-1,115
 83 416 83 416 36 416 c 1,116,-1
 36 -16 l 1,117,-1
 263 -16 l 1,118,119
 263 -16 263 -16 266 -22 c 1,120,-1
 518 -22 l 1,121,-1
 518 122 l 1,122,-1
 771 124 l 1,123,-1
 821 -8 l 1,124,125
 844 -44 844 -44 846 -45 c 0,126,127
 1002 -50 1002 -50 1029 -50 c 128,-1,128
 1056 -50 1056 -50 1085 -44 c 1,129,-1
 1085 -19 l 1,130,-1
 1062 -16 l 1,131,-1
 1106 140 l 2,132,133
 1107 141 1107 141 1145.5 156 c 128,-1,134
 1184 171 1184 171 1195 175 c 1,135,-1
 1196 160 l 1,136,137
 1226 134 1226 134 1227 134 c 0,138,139
 1259 126 1259 126 1261 126 c 2,140,-1
 1292 131 l 1,141,142
 1356 148 1356 148 1358 148 c 0,143,144
 1376 169 1376 169 1377 170 c 2,145,-1
 1377 223 l 1,146,-1
 1477 225 l 1,147,-1
 1468 160 l 1,148,-1
 1480 156 l 1,149,-1
 1496 226 l 1,150,-1
 1502 227 l 1,151,-1
 1550 -20 l 1,152,-1
 1859 40 l 1,153,-1
 1821 236 l 1,154,155
 1861 242 1861 242 1863 244 c 2,156,-1
 1866 258 l 1,157,-1
 2012 236 l 1,158,-1
 2417 236 l 1,159,-1
 2468 264 l 1,160,-1
 2530 264 l 1,161,-1
 2535 292 l 1,162,-1
 2600 292 l 1,163,-1
 2600 358 l 1,164,-1
 3386 358 l 1,165,166
 3411 349 3411 349 3411 349 c 1,167,168
 3443 350 3443 350 3443 350 c 1,169,-1
 3443 424 l 1,170,-1
 3410 424 l 1,171,-1
 3387 416 l 1,172,-1
 3367 416 l 1,173,-1
 3344 430 l 1,174,-1
 3335 430 l 1,175,-1
 3335 416 l 1,176,-1
 2539 416 l 1,16,-1
2539 436 m 1024,177,-1
3410 424 m 1024,178,-1
3411 350 m 1024,179,-1
2417 236 m 1024,180,-1
1377 170 m 1024,181,-1
1358 148 m 1024,182,-1
1261 126 m 1024,183,-1
1227 134 m 1024,184,-1
1196 160 m 1024,185,-1
1197 176 m 1024,186,-1
918 407 m 1024,187,-1
1194 426 m 1024,188,-1
1201 434 m 1024,189,-1
1294 512 m 1024,190,-1
1318 512 m 1024,191,-1
1909 472 m 1024,192,-1
2160 466 m 1024,193,-1
EndSplineSet
EndChar

StartChar: nine
Encoding: 57 57 25
Width: 3423
GlyphClass: 1
Flags: W
LayerCount: 2
Fore
SplineSet
1075 182 m 1,0,1
 1071 214 1071 214 1066 235 c 1,2,3
 1067 235 1067 235 1104.5 235.5 c 128,-1,4
 1142 236 1142 236 1142 236 c 1,5,-1
 1142 187 l 1,6,7
 1113 164 1113 164 1113 164 c 1,8,9
 1084 160 1084 160 1084 160 c 2,10,11
 1081 163 1081 163 1069.5 170.5 c 128,-1,12
 1058 178 1058 178 1053 182 c 1,13,-1
 1075 182 l 1,0,1
1113 164 m 1024,14,-1
1084 160 m 1024,15,-1
2168 434 m 1,16,-1
 2168 484 l 1,17,-1
 2125 484 l 1,18,-1
 2125 442 l 1,19,-1
 1856 442 l 1,20,-1
 1841 428 l 1,21,-1
 1827 428 l 1,22,-1
 1827 446 l 1,23,-1
 1672 446 l 1,24,25
 1672 447 1672 447 1672 449 c 128,-1,26
 1672 451 1672 451 1671 452.5 c 128,-1,27
 1670 454 1670 454 1669 454 c 2,28,-1
 1660 454 l 1,29,-1
 1660 446 l 1,30,-1
 1653 446 l 2,31,32
 1652 447 1652 447 1652 449 c 128,-1,33
 1652 451 1652 451 1651.5 452.5 c 128,-1,34
 1651 454 1651 454 1649 454 c 0,35,36
 1643 454 1643 454 1641.5 449.5 c 128,-1,37
 1640 445 1640 445 1640 428 c 1,38,39
 1613 429 1613 429 1612 428 c 2,40,-1
 1598 407 l 1,41,-1
 1598 432 l 1,42,-1
 1552 432 l 1,43,-1
 1552 440 l 1,44,45
 1460 436 1460 436 1460 436 c 1,46,-1
 1460 428 l 1,47,48
 1427 424 1427 424 1387 424 c 1,49,-1
 1387 414 l 1,50,-1
 1256 422 l 1,51,-1
 1258 442 l 1,52,-1
 1154 442 l 1,53,54
 1155 468 1155 468 1154 470 c 2,55,-1
 1136 480 l 1,56,-1
 1114 480 l 1,57,58
 1098 469 1098 469 1096 468 c 0,59,60
 1093 436 1093 436 1093 414 c 1,61,-1
 1034 413 l 1,62,-1
 1028 406 l 1,63,-1
 1028 361 l 1,64,-1
 998 361 l 1,65,66
 998 361 998 361 984 351.5 c 128,-1,67
 970 342 970 342 956 333 c 2,68,-1
 941 324 l 1,69,70
 869 263 869 263 860 256 c 1,71,-1
 756 282 l 1,72,-1
 791 391 l 1,73,-1
 791 422 l 1,74,-1
 278 422 l 1,75,-1
 278 399 l 1,76,-1
 36 399 l 1,77,-1
 36 27 l 1,78,-1
 231 27 l 1,79,80
 231 27 231 27 233 22 c 1,81,-1
 448 22 l 1,82,-1
 448 146 l 1,83,-1
 667 148 l 1,84,-1
 708 34 l 1,85,86
 728 4 728 4 730 2 c 0,87,88
 859 -1 859 -1 884 -1 c 128,-1,89
 909 -1 909 -1 935 4 c 1,90,-1
 935 25 l 1,91,-1
 914 27 l 1,92,-1
 952 160 l 2,93,94
 953 161 953 161 970 167.5 c 128,-1,95
 987 174 987 174 1006.5 182 c 128,-1,96
 1026 190 1026 190 1030 191 c 1,97,-1
 1030 180 l 1,98,-1
 1056 157 l 1,99,100
 1083 148 1083 148 1084 148 c 2,101,-1
 1113 154 l 2,102,103
 1166 168 1166 168 1168 168 c 0,104,105
 1184 185 1184 185 1184 187 c 2,106,-1
 1184 232 l 1,107,-1
 1271 235 l 1,108,-1
 1262 178 l 1,109,-1
 1272 175 l 1,110,-1
 1286 235 l 1,111,-1
 1292 236 l 1,112,-1
 1333 25 l 1,113,-1
 1598 76 l 1,114,-1
 1565 243 l 1,115,116
 1598 248 1598 248 1600 250 c 2,117,-1
 1604 262 l 1,118,-1
 1728 243 l 1,119,-1
 2076 243 l 1,120,-1
 2120 266 l 1,121,-1
 2172 266 l 1,122,-1
 2176 292 l 1,123,-1
 2231 292 l 1,124,-1
 2231 349 l 1,125,-1
 2554 349 l 1,126,-1
 2576 341 l 1,127,-1
 2603 341 l 1,128,-1
 2603 301 l 1,129,-1
 3390 301 l 1,130,-1
 3390 446 l 1,131,-1
 2603 446 l 1,132,-1
 2603 404 l 1,133,-1
 2574 404 l 1,134,-1
 2553 396 l 1,135,-1
 2180 396 l 1,136,-1
 2180 414 l 1,137,138
 2173 432 2173 432 2172 434 c 2,139,-1
 2168 434 l 1,16,-1
2180 414 m 1024,140,-1
2574 404 m 1024,141,-1
2576 341 m 1024,142,-1
2076 243 m 1024,143,-1
1184 187 m 1024,144,-1
1168 168 m 1024,145,-1
1084 148 m 1024,146,-1
1056 157 m 1024,147,-1
1030 180 m 1024,148,-1
1030 191 m 1024,149,-1
791 391 m 1024,150,-1
1028 406 m 1024,151,-1
1033 413 m 1024,152,-1
1114 480 m 1024,153,-1
1134 480 m 1024,154,-1
1640 446 m 1024,155,-1
1856 442 m 1024,156,-1
EndSplineSet
EndChar

StartChar: colon
Encoding: 58 58 26
Width: 1029
GlyphClass: 1
Flags: W
LayerCount: 2
Fore
SplineSet
519 238 m 1,0,-1
 454 260 l 1,1,-1
 440 346 l 1,2,3
 486 384 486 384 490 388 c 1,4,5
 490 387 490 387 485.5 367.5 c 128,-1,6
 481 348 481 348 481 347 c 2,7,-1
 481 312 l 1,8,-1
 514 276 l 1,9,-1
 529 278 l 1,10,11
 517 310 517 310 517 310 c 1,12,-1
 517 347 l 2,13,14
 519 355 519 355 522 370.5 c 128,-1,15
 525 386 525 386 527 394 c 1,16,-1
 601 394 l 1,17,-1
 626 352 l 1,18,-1
 626 238 l 1,19,-1
 519 238 l 1,0,-1
53 495 m 1,20,-1
 53 393 l 1,21,22
 55 393 55 393 59.5 393.5 c 128,-1,23
 64 394 64 394 67 394 c 2,24,-1
 134 350 l 1,25,-1
 152 296 l 1,26,-1
 73 128 l 1,27,-1
 43 28 l 1,28,-1
 36 -67 l 1,29,-1
 117 -98 l 1,30,-1
 370 -132 l 1,31,32
 370 -130 370 -130 371.5 -126 c 128,-1,33
 373 -122 373 -122 373 -119 c 2,34,-1
 338 -68 l 1,35,-1
 338 26 l 1,36,37
 395 207 395 207 399 218 c 1,38,-1
 518 224 l 1,39,-1
 616 224 l 1,40,-1
 606 218 l 1,41,-1
 606 181 l 1,42,-1
 882 122 l 1,43,44
 886 135 886 135 895 160 c 128,-1,45
 904 185 904 185 908 197 c 1,46,-1
 974 220 l 1,47,-1
 995 352 l 1,48,-1
 956 371 l 1,49,-1
 965 436 l 1,50,-1
 965 663 l 1,51,52
 934 663 934 663 873.5 662.5 c 128,-1,53
 813 662 813 662 782 662 c 1,54,-1
 762 647 l 1,55,56
 637 633 637 633 634 633 c 2,57,-1
 632 631 l 1,58,-1
 191 631 l 1,59,-1
 136 656 l 1,60,-1
 119 655 l 1,61,-1
 111 631 l 1,62,-1
 53 495 l 1,20,-1
136 656 m 1024,63,-1
634 633 m 1024,64,-1
EndSplineSet
EndChar

StartChar: semicolon
Encoding: 59 59 27
Width: 2310
GlyphClass: 1
Flags: W
LayerCount: 2
Fore
SplineSet
1186 477 m 1,0,1
 1192 495 1192 495 1196 509 c 1,2,-1
 1246 509 l 1,3,-1
 1268 484 l 1,4,5
 1268 484 1268 484 1268 422 c 1,6,-1
 1251 410 l 1,7,8
 1236 410 1236 410 1162 410 c 1,9,-1
 1138 436 l 1,10,11
 1137 443 1137 443 1137 483 c 0,12,13
 1139 488 1139 488 1144.5 496 c 128,-1,14
 1150 504 1150 504 1152 509 c 1,15,-1
 1166 509 l 1,16,17
 1162 484 1162 484 1162 450 c 1,18,-1
 1186 422 l 1,19,-1
 1197 425 l 1,20,-1
 1186 450 l 1,21,-1
 1186 477 l 1,0,1
802 207 m 1,22,-1
 257 207 l 1,23,-1
 114 249 l 1,24,-1
 101 367 l 1,25,26
 104 386 104 386 108 425.5 c 128,-1,27
 112 465 112 465 114 484 c 1,28,-1
 256 526 l 1,29,-1
 800 526 l 1,30,-1
 800 509 l 1,31,-1
 834 509 l 1,32,-1
 846 493 l 1,33,-1
 976 485 l 2,34,35
 979 483 979 483 984 477 c 128,-1,36
 989 471 989 471 992 469 c 0,37,38
 987 434 987 434 987 434 c 1,39,-1
 955 316 l 1,40,41
 950 316 950 316 950 316 c 1,42,-1
 933 292 l 1,43,-1
 933 233 l 1,44,-1
 920 224 l 1,45,46
 920 224 920 224 802 224 c 1,47,-1
 802 207 l 1,22,-1
1505 554 m 1,48,-1
 1523 554 l 1,49,-1
 1523 549 l 1,50,-1
 1504 549 l 1,51,52
 1504 551 1504 551 1504 553 c 2,53,-1
 1505 554 l 1,48,-1
1504 606 m 1,54,-1
 1504 618 l 1,55,-1
 1522 618 l 1,56,-1
 1522 606 l 1,57,-1
 1504 606 l 1,54,-1
1558 606 m 1,58,-1
 1558 619 l 1,59,-1
 1590 619 l 1,60,-1
 1590 606 l 1,61,-1
 1558 606 l 1,58,-1
1280 671 m 1,62,-1
 1280 698 l 1,63,-1
 1131 698 l 1,64,-1
 1131 662 l 1,65,-1
 1115 662 l 1,66,-1
 1115 646 l 1,67,-1
 1101 646 l 1,68,-1
 1101 662 l 1,69,-1
 1083 662 l 1,70,-1
 1083 646 l 1,71,-1
 1067 646 l 1,72,-1
 1067 662 l 1,73,-1
 1051 662 l 1,74,-1
 1051 646 l 1,75,-1
 1036 646 l 1,76,-1
 1036 662 l 1,77,-1
 1018 662 l 1,78,-1
 1018 646 l 1,79,-1
 1006 646 l 1,80,-1
 1006 662 l 1,81,-1
 988 662 l 1,82,-1
 988 646 l 1,83,-1
 961 646 l 1,84,-1
 947 674 l 1,85,-1
 850 674 l 1,86,87
 847 668 847 668 841 659 c 128,-1,88
 835 650 835 650 832 645 c 2,89,-1
 832 586 l 1,90,-1
 797 586 l 1,91,-1
 797 574 l 1,92,-1
 55 574 l 1,93,-1
 36 525 l 1,94,-1
 47 364 l 2,95,96
 47 362 47 362 44 323.5 c 128,-1,97
 41 285 41 285 38 247.5 c 128,-1,98
 35 210 35 210 36 209 c 0,99,100
 56 158 56 158 56 158 c 1,101,-1
 800 158 l 1,102,-1
 800 150 l 1,103,-1
 992 150 l 1,104,-1
 992 -140 l 1,105,106
 1044 -140 1044 -140 1070 -138 c 1,107,-1
 1103 -105 l 1,108,-1
 1103 221 l 1,109,-1
 1118 221 l 1,110,-1
 1118 321 l 1,111,112
 1132 396 1132 396 1134 408 c 1,113,-1
 1162 401 l 1,114,115
 1258 401 1258 401 1258 401 c 1,116,-1
 1277 416 l 1,117,118
 1277 458 1277 458 1277 458 c 1,119,-1
 1389 458 l 2,120,121
 1390 456 1390 456 1390 452.5 c 128,-1,122
 1390 449 1390 449 1390 448 c 2,123,-1
 1401 438 l 1,124,-1
 1401 394 l 1,125,-1
 1387 339 l 1,126,-1
 1387 207 l 1,127,-1
 1492 207 l 1,128,-1
 1492 343 l 1,129,-1
 1478 396 l 1,130,-1
 1478 438 l 1,131,-1
 1490 448 l 1,132,-1
 1490 457 l 1,133,-1
 1529 457 l 1,134,-1
 1543 442 l 1,135,-1
 1543 393 l 1,136,-1
 1580 393 l 1,137,-1
 1580 484 l 1,138,-1
 1568 509 l 1,139,-1
 1568 551 l 1,140,-1
 1588 551 l 1,141,142
 1588 527 1588 527 1589 517 c 1,143,-1
 1600 506 l 1,144,-1
 1801 506 l 1,145,-1
 1819 517 l 1,146,-1
 2276 517 l 1,147,-1
 2276 664 l 1,148,-1
 1815 664 l 1,149,-1
 1799 673 l 1,150,151
 1598 673 1598 673 1598 673 c 2,152,153
 1597 672 1597 672 1594.5 669 c 128,-1,154
 1592 666 1592 666 1590 665 c 2,155,-1
 1562 665 l 1,156,-1
 1562 675 l 1,157,-1
 1520 675 l 1,158,-1
 1520 664 l 1,159,-1
 1508 664 l 1,160,-1
 1508 671 l 1,161,-1
 1464 671 l 1,162,163
 1464 680 1464 680 1464 680 c 1,164,165
 1463 680 1463 680 1461 682.5 c 128,-1,166
 1459 685 1459 685 1458 686 c 0,167,168
 1442 686 1442 686 1434 684 c 1,169,170
 1427 677 1427 677 1427 677 c 1,171,-1
 1427 671 l 1,172,-1
 1280 671 l 1,62,-1
EndSplineSet
EndChar

StartChar: less
Encoding: 60 60 28
Width: 1649
GlyphClass: 1
Flags: W
LayerCount: 2
Fore
SplineSet
1614 646 m 1,0,-1
 1614 582 l 1,1,-1
 1588 582 l 1,2,3
 1588 582 1588 582 1588 551 c 1,4,-1
 1568 551 l 1,5,-1
 1568 509 l 1,6,-1
 1580 484 l 1,7,8
 1580 484 1580 484 1580 393 c 1,9,-1
 1543 393 l 1,10,-1
 1543 442 l 1,11,-1
 1529 457 l 1,12,-1
 1490 457 l 1,13,-1
 1490 448 l 1,14,-1
 1478 438 l 1,15,-1
 1478 396 l 1,16,-1
 1492 343 l 1,17,18
 1492 343 1492 343 1492 207 c 1,19,-1
 1387 207 l 1,20,-1
 1387 339 l 1,21,-1
 1401 394 l 1,22,-1
 1401 438 l 1,23,-1
 1390 448 l 2,24,25
 1390 449 1390 449 1390 452.5 c 128,-1,26
 1390 456 1390 456 1389 458 c 2,27,-1
 1277 458 l 1,28,29
 1277 458 1277 458 1277 416 c 1,30,-1
 1258 401 l 1,31,32
 1258 401 1258 401 1162 401 c 1,33,-1
 1134 408 l 1,34,35
 1118 321 1118 321 1118 321 c 1,36,-1
 1118 221 l 1,37,-1
 1103 221 l 1,38,-1
 1103 -105 l 1,39,-1
 1070 -138 l 1,40,41
 1044 -140 1044 -140 992 -140 c 1,42,-1
 992 150 l 1,43,-1
 800 150 l 1,44,-1
 800 158 l 1,45,-1
 56 158 l 2,46,47
 55 159 55 159 36 209 c 0,48,49
 35 210 35 210 38 247.5 c 128,-1,50
 41 285 41 285 44 323.5 c 128,-1,51
 47 362 47 362 47 364 c 2,52,-1
 36 525 l 1,53,-1
 55 574 l 1,54,-1
 797 574 l 1,55,-1
 797 586 l 1,56,-1
 832 586 l 1,57,-1
 832 645 l 2,58,59
 835 650 835 650 841 659 c 128,-1,60
 847 668 847 668 850 674 c 1,61,-1
 947 674 l 1,62,-1
 961 646 l 1,63,-1
 988 646 l 1,64,-1
 988 662 l 1,65,-1
 1006 662 l 1,66,-1
 1006 646 l 1,67,-1
 1018 646 l 1,68,-1
 1018 662 l 1,69,-1
 1036 662 l 1,70,-1
 1036 646 l 1,71,-1
 1051 646 l 1,72,-1
 1051 662 l 1,73,-1
 1067 662 l 1,74,-1
 1067 646 l 1,75,-1
 1083 646 l 1,76,-1
 1083 662 l 1,77,-1
 1101 662 l 1,78,-1
 1101 646 l 1,79,-1
 1115 646 l 1,80,-1
 1115 662 l 1,81,-1
 1131 662 l 1,82,-1
 1131 698 l 1,83,-1
 1280 698 l 1,84,-1
 1280 671 l 1,85,-1
 1427 671 l 1,86,-1
 1427 677 l 1,87,88
 1427 677 1427 677 1434 684 c 1,89,90
 1442 686 1442 686 1458 686 c 0,91,92
 1459 685 1459 685 1461 682.5 c 128,-1,93
 1463 680 1463 680 1464 680 c 0,94,95
 1465 678 1465 678 1465 677 c 128,-1,96
 1465 676 1465 676 1464.5 674.5 c 128,-1,97
 1464 673 1464 673 1464 671 c 1,98,-1
 1508 671 l 1,99,-1
 1508 664 l 1,100,-1
 1520 664 l 1,101,-1
 1520 675 l 1,102,-1
 1562 675 l 1,103,-1
 1562 665 l 1,104,-1
 1590 665 l 1,105,-1
 1590 646 l 1,106,-1
 1614 646 l 1,0,-1
1186 477 m 1,107,-1
 1186 450 l 1,108,-1
 1197 425 l 1,109,-1
 1186 422 l 1,110,-1
 1162 450 l 1,111,112
 1162 484 1162 484 1166 509 c 1,113,-1
 1152 509 l 1,114,115
 1150 504 1150 504 1144.5 496 c 128,-1,116
 1139 488 1139 488 1137 483 c 0,117,118
 1137 443 1137 443 1138 436 c 1,119,-1
 1162 410 l 1,120,121
 1236 410 1236 410 1251 410 c 1,122,-1
 1268 422 l 1,123,124
 1268 484 1268 484 1268 484 c 1,125,-1
 1246 509 l 1,126,-1
 1196 509 l 1,127,128
 1186 477 1186 477 1186 477 c 1,107,-1
802 207 m 1,129,-1
 802 224 l 1,130,131
 920 224 920 224 920 224 c 1,132,-1
 933 233 l 1,133,-1
 933 292 l 1,134,-1
 950 316 l 1,135,136
 955 314 955 314 955 316 c 2,137,-1
 987 434 l 1,138,139
 987 434 987 434 992 469 c 0,140,141
 989 471 989 471 984 477 c 128,-1,142
 979 483 979 483 976 485 c 2,143,-1
 846 493 l 1,144,-1
 834 509 l 1,145,-1
 800 509 l 1,146,-1
 800 526 l 1,147,-1
 256 526 l 1,148,-1
 114 484 l 1,149,150
 112 465 112 465 108 425.5 c 128,-1,151
 104 386 104 386 101 367 c 1,152,-1
 114 249 l 1,153,-1
 257 207 l 1,154,-1
 802 207 l 1,129,-1
1505 554 m 2,155,156
 1504 551 1504 551 1504 549 c 1,157,-1
 1523 549 l 1,158,-1
 1523 554 l 1,159,-1
 1505 554 l 2,155,156
1504 606 m 1,160,-1
 1522 606 l 1,161,-1
 1522 618 l 1,162,-1
 1504 618 l 1,163,-1
 1504 606 l 1,160,-1
1558 606 m 1,164,-1
 1590 606 l 1,165,-1
 1590 619 l 1,166,-1
 1558 619 l 1,167,-1
 1558 606 l 1,164,-1
EndSplineSet
EndChar

StartChar: equal
Encoding: 61 61 29
Width: 2264
GlyphClass: 1
Flags: W
LayerCount: 2
Fore
SplineSet
1076 563 m 1,0,1
 1059 594 1059 594 1059 594 c 257,2,3
 1059 594 1059 594 1034 594 c 1,4,-1
 1030 590 l 2,5,6
 1027 590 1027 590 1022 594 c 1,7,-1
 1032 600 l 1,8,9
 1032 600 1032 600 1162 600 c 1,10,-1
 1144 564 l 2,11,12
 1143 564 1143 564 1131 563.5 c 128,-1,13
 1119 563 1119 563 1117 563 c 1,14,-1
 1117 595 l 1,15,-1
 1099 595 l 1,16,-1
 1099 563 l 1,17,-1
 1076 563 l 1,0,1
1030 282 m 1,18,19
 1030 281 1030 281 1027 270.5 c 128,-1,20
 1024 260 1024 260 1024 260 c 1,21,-1
 1028 214 l 1,22,-1
 1044 193 l 1,23,-1
 1046 193 l 1,24,25
 1038 213 1038 213 1038 213 c 1,26,-1
 1038 257 l 1,27,-1
 1059 282 l 1,28,29
 1059 282 1059 282 1077.5 282.5 c 128,-1,30
 1096 283 1096 283 1118 283.5 c 128,-1,31
 1140 284 1140 284 1148 284 c 1,32,-1
 1150 184 l 1,33,-1
 998 184 l 1,34,-1
 998 272 l 1,35,-1
 1004 282 l 1,36,-1
 1030 282 l 1,18,19
1038 213 m 1024,37,-1
1038 257 m 1024,38,-1
886 751 m 2,39,40
 884 751 884 751 884 748 c 2,41,-1
 884 633 l 1,42,-1
 980 633 l 1,43,-1
 987 640 l 1,44,-1
 1006 640 l 1,45,-1
 1004 628 l 1,46,-1
 952 628 l 1,47,-1
 941 614 l 1,48,-1
 894 614 l 1,49,-1
 894 606 l 1,50,-1
 852 608 l 1,51,52
 848 578 848 578 848 560 c 1,53,-1
 813 560 l 1,54,-1
 813 533 l 1,55,56
 821 533 821 533 836.5 534 c 128,-1,57
 852 535 852 535 860 535 c 1,58,-1
 661 533 l 1,59,-1
 659 584 l 1,60,61
 648 602 648 602 646 602 c 2,62,-1
 288 602 l 1,63,-1
 272 584 l 1,64,65
 259 541 259 541 257 533 c 1,66,-1
 130 533 l 1,67,-1
 130 536 l 1,68,-1
 125 540 l 1,69,-1
 69 540 l 1,70,71
 65 533 65 533 59.5 518.5 c 128,-1,72
 54 504 54 504 50 496 c 2,73,-1
 39 460 l 1,74,-1
 36 227 l 1,75,-1
 46 169 l 1,76,-1
 128 169 l 1,77,-1
 132 187 l 1,78,-1
 138 188 l 1,79,80
 138 188 138 188 138 154 c 1,81,-1
 158 156 l 1,82,83
 158 156 158 156 158 190 c 1,84,-1
 258 207 l 1,85,-1
 272 201 l 1,86,87
 336 -152 336 -152 336 -152 c 1,88,-1
 538 -110 l 1,89,-1
 477 242 l 1,90,-1
 508 258 l 1,91,-1
 508 340 l 1,92,-1
 590 385 l 1,93,-1
 773 385 l 1,94,95
 826 345 826 345 832 340 c 1,96,97
 832 340 832 340 832 278 c 1,98,-1
 839 254 l 1,99,100
 799 175 799 175 799 175 c 1,101,-1
 752 118 l 1,102,103
 682 -57 682 -57 682 -58 c 1,104,105
 694 -58 694 -58 718 -58.5 c 128,-1,106
 742 -59 742 -59 766.5 -59 c 128,-1,107
 791 -59 791 -59 814 -59 c 128,-1,108
 837 -59 837 -59 852.5 -59 c 128,-1,109
 868 -59 868 -59 868 -59 c 1,110,111
 881 -32 881 -32 906.5 22 c 128,-1,112
 932 76 932 76 945 104 c 1,113,114
 934 152 934 152 933 162 c 1,115,-1
 998 175 l 1,116,-1
 1272 175 l 1,117,118
 1272 203 1272 203 1273.5 257.5 c 128,-1,119
 1275 312 1275 312 1275 340 c 1,120,121
 1303 385 1303 385 1304 387 c 2,122,-1
 1304 391 l 1,123,-1
 1387 387 l 1,124,-1
 1387 353 l 1,125,-1
 1379 353 l 1,126,-1
 1379 313 l 1,127,-1
 1450 313 l 1,128,-1
 1445 186 l 1,129,-1
 1445 -24 l 1,130,-1
 1454 -55 l 1,131,-1
 1454 -74 l 1,132,-1
 1541 -74 l 1,133,-1
 1541 -53 l 1,134,-1
 1552 -22 l 1,135,-1
 1552 187 l 1,136,137
 1546 298 1546 298 1546 312 c 1,138,-1
 1709 312 l 1,139,-1
 1709 343 l 1,140,-1
 1909 343 l 1,141,-1
 1909 430 l 1,142,-1
 1971 430 l 1,143,-1
 1971 438 l 1,144,-1
 2064 438 l 1,145,-1
 2071 426 l 1,146,-1
 2229 426 l 1,147,-1
 2229 505 l 1,148,-1
 2072 505 l 1,149,-1
 2065 493 l 1,150,-1
 1970 493 l 1,151,-1
 1970 548 l 1,152,-1
 1967 548 l 1,153,-1
 1967 627 l 1,154,-1
 1965 639 l 1,155,-1
 1947 665 l 1,156,-1
 1930 665 l 1,157,-1
 1930 545 l 1,158,159
 1917 501 1917 501 1915 493 c 1,160,-1
 1909 493 l 1,161,-1
 1909 574 l 1,162,163
 1903 580 1903 580 1902 580 c 2,164,-1
 1899 580 l 1,165,-1
 1896 580 l 1,166,-1
 1893 580 l 1,167,-1
 1890 580 l 1,168,-1
 1887 580 l 1,169,-1
 1884 580 l 1,170,-1
 1881 580 l 1,171,-1
 1878 580 l 1,172,-1
 1875 580 l 1,173,-1
 1872 580 l 1,174,-1
 1869 580 l 1,175,-1
 1866 580 l 1,176,-1
 1863 580 l 1,177,-1
 1860 580 l 1,178,-1
 1857 580 l 1,179,-1
 1854 580 l 1,180,-1
 1851 580 l 1,181,-1
 1848 580 l 1,182,-1
 1845 580 l 1,183,-1
 1842 580 l 1,184,-1
 1839 580 l 1,185,-1
 1836 580 l 1,186,-1
 1833 580 l 1,187,-1
 1830 580 l 1,188,-1
 1827 580 l 1,189,-1
 1824 580 l 1,190,-1
 1821 580 l 1,191,-1
 1818 580 l 1,192,-1
 1815 580 l 1,193,-1
 1812 580 l 1,194,-1
 1809 580 l 1,195,-1
 1806 580 l 1,196,-1
 1803 580 l 1,197,-1
 1800 580 l 1,198,-1
 1797 580 l 1,199,-1
 1794 580 l 1,200,-1
 1791 580 l 1,201,-1
 1788 580 l 1,202,-1
 1785 580 l 1,203,-1
 1782 580 l 1,204,-1
 1779 580 l 1,205,-1
 1776 580 l 1,206,-1
 1773 580 l 1,207,-1
 1770 580 l 1,208,-1
 1767 580 l 1,209,-1
 1764 580 l 1,210,-1
 1761 580 l 1,211,-1
 1758 580 l 1,212,-1
 1755 580 l 1,213,-1
 1752 580 l 1,214,-1
 1749 580 l 1,215,-1
 1746 580 l 1,216,-1
 1743 580 l 1,217,-1
 1740 580 l 1,218,-1
 1737 580 l 1,219,-1
 1734 580 l 1,220,-1
 1731 580 l 1,221,-1
 1728 580 l 1,222,-1
 1725 580 l 1,223,-1
 1722 580 l 1,224,-1
 1719 580 l 1,225,-1
 1716 580 l 1,226,-1
 1713 580 l 1,227,-1
 1710 580 l 1,228,-1
 1707 580 l 1,229,-1
 1704 580 l 1,230,-1
 1701 580 l 1,231,-1
 1698 580 l 1,232,-1
 1695 580 l 1,233,-1
 1692 580 l 1,234,-1
 1689 580 l 1,235,-1
 1686 580 l 1,236,-1
 1683 580 l 1,237,-1
 1680 580 l 1,238,-1
 1677 580 l 1,239,-1
 1674 580 l 1,240,-1
 1671 580 l 1,241,-1
 1668 580 l 1,242,-1
 1665 580 l 1,243,-1
 1662 580 l 1,244,-1
 1659 580 l 1,245,-1
 1656 580 l 1,246,-1
 1653 580 l 1,247,-1
 1650 580 l 1,248,-1
 1647 580 l 1,249,-1
 1644 580 l 1,250,-1
 1641 580 l 1,251,-1
 1638 580 l 1,252,-1
 1635 580 l 1,253,-1
 1632 580 l 1,254,-1
 1629 580 l 1,255,-1
 1626 580 l 1,256,-1
 1623 580 l 1,257,-1
 1620 580 l 1,258,-1
 1617 580 l 1,259,-1
 1614 580 l 1,260,-1
 1611 580 l 1,261,-1
 1608 580 l 1,262,-1
 1605 580 l 1,263,-1
 1602 580 l 1,264,-1
 1599 580 l 1,265,-1
 1596 580 l 1,266,-1
 1593 580 l 1,267,-1
 1590 580 l 1,268,-1
 1587 580 l 1,269,-1
 1584 580 l 1,270,-1
 1581 580 l 1,271,-1
 1578 580 l 1,272,-1
 1575 580 l 1,273,-1
 1572 580 l 1,274,-1
 1569 580 l 1,275,-1
 1566 580 l 1,276,-1
 1564 580 l 1,277,-1
 1561 580 l 1,278,-1
 1558 580 l 1,279,-1
 1555 580 l 1,280,-1
 1552 580 l 1,281,-1
 1549 580 l 1,282,-1
 1546 580 l 1,283,-1
 1543 580 l 1,284,-1
 1540 580 l 1,285,-1
 1537 580 l 1,286,-1
 1534 580 l 1,287,-1
 1531 580 l 1,288,-1
 1528 580 l 1,289,-1
 1525 580 l 1,290,-1
 1522 580 l 1,291,-1
 1519 580 l 1,292,-1
 1516 580 l 1,293,-1
 1513 580 l 1,294,-1
 1510 580 l 1,295,-1
 1507 580 l 1,296,-1
 1504 580 l 1,297,-1
 1501 580 l 1,298,-1
 1498 580 l 1,299,-1
 1495 580 l 1,300,-1
 1492 580 l 1,301,-1
 1489 580 l 1,302,-1
 1486 580 l 1,303,-1
 1483 580 l 1,304,-1
 1480 580 l 1,305,-1
 1477 580 l 1,306,-1
 1474 580 l 1,307,-1
 1471 580 l 1,308,-1
 1468 580 l 1,309,-1
 1465 580 l 1,310,-1
 1462 580 l 1,311,-1
 1459 580 l 1,312,-1
 1456 580 l 1,313,-1
 1453 580 l 1,314,-1
 1450 580 l 1,315,-1
 1447 580 l 1,316,-1
 1444 580 l 1,317,-1
 1441 580 l 1,318,-1
 1439 580 l 1,319,-1
 1436 580 l 1,320,-1
 1433 580 l 1,321,-1
 1430 580 l 1,322,-1
 1427 580 l 1,323,-1
 1424 580 l 1,324,-1
 1421 580 l 1,325,-1
 1418 580 l 1,326,-1
 1415 580 l 1,327,-1
 1412 580 l 1,328,-1
 1409 580 l 1,329,-1
 1407 580 l 1,330,-1
 1404 580 l 1,331,-1
 1401 580 l 1,332,-1
 1394 580 l 2,333,334
 1393 579 1393 579 1390.5 576 c 128,-1,335
 1388 573 1388 573 1388 572 c 2,336,-1
 1388 548 l 1,337,-1
 1304 544 l 1,338,-1
 1304 551 l 1,339,-1
 1355 551 l 1,340,-1
 1355 584 l 1,341,-1
 1275 584 l 1,342,-1
 1275 600 l 1,343,-1
 1264 600 l 1,344,-1
 1264 628 l 1,345,-1
 1146 628 l 1,346,-1
 1146 635 l 1,347,348
 1173 634 1173 634 1228 631 c 128,-1,349
 1283 628 1283 628 1310 627 c 1,350,351
 1316 645 1316 645 1353 756 c 1,352,-1
 1146 748 l 1,353,354
 1147 752 1147 752 1145 752 c 2,355,-1
 1131 763 l 1,356,-1
 1040 762 l 1,357,-1
 1024 750 l 1,358,359
 1024 745 1024 745 1024 744 c 2,360,-1
 989 742 l 1,361,362
 980 751 980 751 980 751 c 1,363,-1
 886 751 l 2,39,40
1388 572 m 1024,364,-1
1909 574 m 1024,365,-1
1965 639 m 1024,366,-1
1967 627 m 1024,367,-1
1304 387 m 1024,368,-1
125 540 m 1024,369,-1
130 536 m 1024,370,-1
272 584 m 1024,371,-1
288 602 m 1024,372,-1
659 584 m 1024,373,-1
860 531 m 1024,374,-1
980 633 m 1024,375,-1
980 751 m 1024,376,-1
1024 750 m 1024,377,-1
EndSplineSet
EndChar

StartChar: greater
Encoding: 62 62 30
Width: 2264
GlyphClass: 1
Flags: W
LayerCount: 2
Fore
SplineSet
772 514 m 1,0,-1
 740 514 l 1,1,-1
 740 490 l 1,2,3
 740 490 740 490 782 490 c 1,4,-1
 601 490 l 1,5,-1
 601 537 l 1,6,-1
 590 552 l 1,7,8
 590 552 590 552 589 552 c 1,9,-1
 589 552 l 1,10,-1
 589 552 l 1,11,-1
 589 552 l 1,12,-1
 589 552 l 1,13,-1
 588 552 l 1,14,-1
 588 552 l 1,15,-1
 588 552 l 1,16,-1
 587 552 l 1,17,-1
 587 552 l 1,18,-1
 586 552 l 1,19,-1
 586 552 l 1,20,-1
 585 552 l 1,21,-1
 585 552 l 1,22,-1
 584 552 l 1,23,-1
 584 552 l 1,24,-1
 583 552 l 1,25,-1
 582 552 l 1,26,-1
 581 552 l 1,27,-1
 580 552 l 1,28,-1
 579 552 l 1,29,-1
 578 552 l 1,30,-1
 577 552 l 1,31,-1
 576 552 l 1,32,-1
 575 552 l 1,33,-1
 574 552 l 1,34,-1
 573 552 l 1,35,-1
 572 552 l 1,36,-1
 571 552 l 1,37,-1
 570 552 l 1,38,-1
 569 552 l 1,39,-1
 568 552 l 1,40,-1
 567 552 l 1,41,-1
 566 552 l 1,42,-1
 565 552 l 1,43,-1
 564 552 l 1,44,-1
 563 552 l 1,45,-1
 562 552 l 1,46,-1
 561 552 l 1,47,-1
 560 552 l 1,48,-1
 559 552 l 1,49,-1
 558 552 l 1,50,-1
 557 552 l 1,51,-1
 556 552 l 1,52,-1
 555 552 l 1,53,-1
 554 552 l 1,54,-1
 553 552 l 1,55,-1
 552 552 l 1,56,-1
 551 552 l 1,57,-1
 550 552 l 1,58,-1
 549 552 l 1,59,-1
 548 552 l 1,60,-1
 547 552 l 1,61,-1
 546 552 l 1,62,-1
 545 552 l 1,63,-1
 544 552 l 1,64,-1
 543 552 l 1,65,-1
 542 552 l 1,66,-1
 541 552 l 1,67,-1
 540 552 l 1,68,-1
 539 552 l 1,69,-1
 538 552 l 1,70,-1
 537 552 l 1,71,-1
 536 552 l 1,72,-1
 535 552 l 1,73,-1
 534 552 l 1,74,-1
 533 552 l 1,75,-1
 532 552 l 1,76,-1
 531 552 l 1,77,-1
 530 552 l 1,78,-1
 529 552 l 1,79,-1
 528 552 l 1,80,-1
 527 552 l 1,81,-1
 525 552 l 1,82,-1
 524 552 l 1,83,-1
 523 552 l 1,84,-1
 522 552 l 1,85,-1
 521 552 l 1,86,-1
 520 552 l 1,87,-1
 519 552 l 1,88,-1
 518 552 l 1,89,-1
 517 552 l 1,90,-1
 515 552 l 1,91,-1
 514 552 l 1,92,-1
 513 552 l 1,93,-1
 512 552 l 1,94,-1
 511 552 l 1,95,-1
 510 552 l 1,96,-1
 509 552 l 1,97,-1
 507 552 l 1,98,-1
 506 552 l 1,99,-1
 505 552 l 1,100,-1
 504 552 l 1,101,-1
 503 552 l 1,102,-1
 501 552 l 1,103,-1
 500 552 l 1,104,-1
 499 552 l 1,105,-1
 498 552 l 1,106,-1
 496 552 l 1,107,-1
 495 552 l 1,108,-1
 494 552 l 1,109,-1
 493 552 l 1,110,-1
 492 552 l 1,111,-1
 490 552 l 1,112,-1
 489 552 l 1,113,-1
 488 552 l 1,114,-1
 486 552 l 1,115,-1
 485 552 l 1,116,-1
 484 552 l 1,117,-1
 483 552 l 1,118,-1
 481 552 l 1,119,-1
 480 552 l 1,120,-1
 479 552 l 1,121,-1
 477 552 l 1,122,-1
 476 552 l 1,123,-1
 475 552 l 1,124,-1
 473 552 l 1,125,-1
 472 552 l 1,126,-1
 471 552 l 1,127,-1
 469 552 l 1,128,-1
 468 552 l 1,129,-1
 467 552 l 1,130,-1
 465 552 l 1,131,-1
 464 552 l 1,132,-1
 463 552 l 1,133,-1
 461 552 l 1,134,-1
 460 552 l 1,135,-1
 459 552 l 1,136,-1
 457 552 l 1,137,-1
 456 552 l 1,138,-1
 454 552 l 1,139,-1
 453 552 l 1,140,-1
 452 552 l 1,141,-1
 450 552 l 1,142,-1
 449 552 l 1,143,-1
 447 552 l 1,144,-1
 446 552 l 1,145,-1
 444 552 l 1,146,-1
 443 552 l 1,147,-1
 442 552 l 1,148,-1
 440 552 l 1,149,-1
 439 552 l 1,150,-1
 437 552 l 1,151,-1
 436 552 l 1,152,-1
 434 552 l 1,153,-1
 433 552 l 1,154,-1
 431 552 l 1,155,-1
 430 552 l 1,156,-1
 428 552 l 1,157,-1
 427 552 l 1,158,-1
 426 552 l 1,159,-1
 424 552 l 1,160,-1
 423 552 l 1,161,-1
 421 552 l 1,162,-1
 420 552 l 1,163,-1
 418 552 l 1,164,-1
 417 552 l 1,165,-1
 415 552 l 1,166,-1
 413 552 l 1,167,-1
 412 552 l 1,168,-1
 410 552 l 1,169,-1
 409 552 l 1,170,-1
 407 552 l 1,171,-1
 406 552 l 1,172,-1
 404 552 l 1,173,-1
 403 552 l 1,174,-1
 401 552 l 1,175,-1
 400 552 l 1,176,-1
 398 552 l 1,177,-1
 397 552 l 1,178,-1
 395 552 l 1,179,-1
 393 552 l 1,180,-1
 392 552 l 1,181,-1
 390 552 l 1,182,-1
 389 552 l 1,183,-1
 387 552 l 1,184,-1
 385 552 l 1,185,-1
 384 552 l 1,186,-1
 382 552 l 1,187,-1
 381 552 l 1,188,-1
 379 552 l 1,189,-1
 377 552 l 1,190,-1
 376 552 l 1,191,-1
 374 552 l 1,192,-1
 373 552 l 1,193,-1
 371 552 l 1,194,-1
 369 552 l 1,195,-1
 368 552 l 1,196,-1
 366 552 l 1,197,-1
 364 552 l 1,198,-1
 363 552 l 1,199,-1
 361 552 l 1,200,-1
 359 552 l 1,201,-1
 358 552 l 1,202,-1
 356 552 l 1,203,-1
 354 552 l 1,204,-1
 353 552 l 1,205,-1
 351 552 l 1,206,-1
 349 552 l 1,207,-1
 348 552 l 1,208,-1
 346 552 l 1,209,-1
 344 552 l 1,210,-1
 343 552 l 1,211,-1
 341 552 l 1,212,-1
 339 552 l 1,213,-1
 338 552 l 1,214,-1
 336 552 l 1,215,-1
 334 552 l 1,216,-1
 332 552 l 1,217,-1
 331 552 l 1,218,-1
 329 552 l 1,219,-1
 327 552 l 1,220,-1
 326 552 l 1,221,-1
 324 552 l 1,222,-1
 322 552 l 1,223,-1
 320 552 l 1,224,-1
 319 552 l 1,225,-1
 317 552 l 1,226,-1
 315 552 l 1,227,-1
 313 552 l 1,228,-1
 312 552 l 1,229,-1
 310 552 l 1,230,-1
 308 552 l 1,231,-1
 306 552 l 1,232,-1
 305 552 l 1,233,-1
 303 552 l 1,234,-1
 301 552 l 1,235,-1
 299 552 l 1,236,-1
 298 552 l 1,237,-1
 296 552 l 1,238,-1
 294 552 l 1,239,-1
 292 552 l 1,240,-1
 290 552 l 1,241,-1
 289 552 l 1,242,-1
 287 552 l 1,243,-1
 285 552 l 1,244,-1
 283 552 l 1,245,-1
 282 552 l 1,246,-1
 280 552 l 1,247,-1
 278 552 l 1,248,-1
 276 552 l 1,249,-1
 274 552 l 1,250,-1
 266 552 l 1,251,-1
 249 537 l 1,252,253
 238 498 238 498 237 490 c 1,254,-1
 120 490 l 1,255,-1
 120 491 l 1,256,-1
 117 496 l 1,257,258
 67 495 67 495 65 495 c 2,259,-1
 49 457 l 1,260,-1
 39 424 l 1,261,-1
 36 212 l 1,262,-1
 45 160 l 1,263,264
 118 159 118 159 119 160 c 2,265,-1
 122 176 l 1,266,-1
 128 176 l 1,267,-1
 128 148 l 1,268,-1
 146 148 l 1,269,270
 146 153 146 153 147 164 c 128,-1,271
 148 175 148 175 148 180 c 1,272,-1
 237 194 l 1,273,-1
 250 189 l 1,274,275
 307 -132 307 -132 307 -132 c 1,276,-1
 490 -93 l 1,277,-1
 436 225 l 1,278,279
 464 240 464 240 464 242 c 2,280,-1
 464 316 l 1,281,-1
 539 355 l 1,282,-1
 704 355 l 1,283,-1
 757 316 l 1,284,-1
 757 260 l 1,285,-1
 763 236 l 1,286,287
 728 164 728 164 728 164 c 1,288,-1
 686 114 l 1,289,290
 621 -44 621 -44 621 -45 c 1,291,292
 624 -45 624 -45 707 -46 c 128,-1,293
 790 -47 790 -47 790 -47 c 1,294,-1
 860 100 l 1,295,296
 850 146 850 146 848 154 c 1,297,-1
 908 164 l 1,298,-1
 1156 164 l 1,299,300
 1156 189 1156 189 1157 240 c 128,-1,301
 1158 291 1158 291 1158 316 c 1,302,303
 1184 356 1184 356 1186 357 c 2,304,-1
 1186 359 l 1,305,-1
 1259 357 l 1,306,-1
 1259 327 l 1,307,-1
 1255 327 l 1,308,-1
 1255 290 l 1,309,-1
 1318 290 l 1,310,-1
 1312 175 l 1,311,-1
 1314 -16 l 1,312,-1
 1321 -43 l 1,313,-1
 1321 -61 l 1,314,-1
 1401 -61 l 1,315,-1
 1401 -43 l 1,316,-1
 1409 -13 l 1,317,-1
 1409 176 l 1,318,319
 1405 277 1405 277 1405 290 c 1,320,-1
 1553 290 l 1,321,-1
 1553 316 l 1,322,-1
 1733 316 l 1,323,-1
 1733 395 l 1,324,-1
 1789 395 l 1,325,-1
 1789 404 l 1,326,-1
 1874 404 l 1,327,328
 1874 390 1874 390 1874 363 c 128,-1,329
 1874 336 1874 336 1874 322 c 1,330,331
 2229 324 2229 324 2229 324 c 1,332,333
 2228 530 2228 530 2228 530 c 1,334,-1
 1874 530 l 1,335,-1
 1874 454 l 1,336,-1
 1789 454 l 1,337,-1
 1789 502 l 1,338,-1
 1786 502 l 1,339,-1
 1786 574 l 1,340,-1
 1784 586 l 1,341,342
 1769 609 1769 609 1768 609 c 2,343,-1
 1752 609 l 1,344,345
 1752 591 1752 591 1753 555 c 128,-1,346
 1754 519 1754 519 1754 501 c 1,347,348
 1741 461 1741 461 1738 454 c 1,349,-1
 1733 454 l 1,350,-1
 1733 526 l 1,351,-1
 1728 533 l 1,352,353
 1267 532 1267 532 1265 532 c 2,354,-1
 1261 524 l 1,355,-1
 1261 502 l 1,356,-1
 1186 499 l 1,357,-1
 1186 506 l 1,358,-1
 1233 506 l 1,359,-1
 1233 536 l 1,360,361
 1222 536 1222 536 1197.5 536.5 c 128,-1,362
 1173 537 1173 537 1162 537 c 1,363,364
 1162 558 1162 558 1162 598 c 128,-1,365
 1162 638 1162 638 1162 659 c 1,366,-1
 1093 661 l 1,367,-1
 1093 632 l 1,368,369
 1084 607 1084 607 1060 582 c 1,370,-1
 944 582 l 1,371,-1
 944 546 l 1,372,-1
 776 558 l 1,373,374
 775 548 775 548 774 540 c 128,-1,375
 773 532 773 532 772.5 527 c 128,-1,376
 772 522 772 522 772 514 c 1,0,-1
907 175 m 2,377,-1
 907 254 l 1,378,-1
 914 262 l 1,379,-1
 937 262 l 1,380,381
 932 243 932 243 932 242 c 2,382,-1
 935 201 l 1,383,-1
 950 181 l 1,384,-1
 952 182 l 1,385,386
 944 200 944 200 944 200 c 1,387,-1
 944 241 l 1,388,-1
 963 262 l 1,389,390
 976 262 976 262 1002.5 262.5 c 128,-1,391
 1029 263 1029 263 1042 263 c 1,392,-1
 1045 174 l 1,393,-1
 908 174 l 2,394,395
 907 174 907 174 907 175 c 2,377,-1
907 254 m 1024,396,-1
914 262 m 1024,397,-1
944 200 m 1024,398,-1
944 241 m 1024,399,-1
1261 524 m 1024,400,-1
1728 533 m 1024,401,-1
1733 526 m 1024,402,-1
1784 586 m 1024,403,-1
1786 574 m 1024,404,-1
1186 357 m 1024,405,-1
117 496 m 1024,406,-1
120 493 m 1024,407,-1
249 537 m 1024,408,-1
264 552 m 1024,409,-1
601 537 m 1024,410,-1
783 488 m 1024,411,-1
EndSplineSet
EndChar

StartChar: question
Encoding: 63 63 31
Width: 2150
GlyphClass: 1
Flags: W
LayerCount: 2
Fore
SplineSet
857 616 m 0,0,1
 843 616 843 616 843 592 c 128,-1,2
 843 568 843 568 857 568 c 2,3,-1
 1114 568 l 2,4,5
 1123 568 1123 568 1127 579.5 c 128,-1,6
 1131 591 1131 591 1127.5 603 c 128,-1,7
 1124 615 1124 615 1115 615 c 0,8,9
 1065 615 1065 615 986 615.5 c 128,-1,10
 907 616 907 616 857 616 c 0,0,1
908 284 m 2,11,-1
 986 284 l 2,12,13
 990 284 990 284 990.5 279.5 c 128,-1,14
 991 275 991 275 989 267.5 c 128,-1,15
 987 260 987 260 987 257 c 0,16,17
 987 248 987 248 978.5 239.5 c 128,-1,18
 970 231 970 231 961 231 c 0,19,20
 955 231 955 231 947 229 c 128,-1,21
 939 227 939 227 932.5 225 c 128,-1,22
 926 223 926 223 920.5 222 c 128,-1,23
 915 221 915 221 911.5 223.5 c 128,-1,24
 908 226 908 226 908 232 c 0,25,26
 908 240 908 240 903.5 254 c 128,-1,27
 899 268 899 268 899 276 c 128,-1,28
 899 284 899 284 908 284 c 2,11,-1
36 592 m 0,29,30
 36 565 36 565 60.5 527.5 c 128,-1,31
 85 490 85 490 85 463 c 2,32,-1
 85 260 l 2,33,34
 85 245 85 245 104 239.5 c 128,-1,35
 123 234 123 234 142.5 239.5 c 128,-1,36
 162 245 162 245 162 260 c 0,37,38
 162 294 162 294 176 348 c 128,-1,39
 190 402 190 402 190 436 c 0,40,41
 190 455 190 455 215 463 c 128,-1,42
 240 471 240 471 265 463.5 c 128,-1,43
 290 456 290 456 290 438 c 0,44,45
 290 399 290 399 291 336.5 c 128,-1,46
 292 274 292 274 292 235 c 0,47,48
 292 226 292 226 300 225.5 c 128,-1,49
 308 225 308 225 322 229 c 128,-1,50
 336 233 336 233 343 233 c 0,51,52
 358 233 358 233 363.5 249 c 128,-1,53
 369 265 369 265 368.5 284 c 128,-1,54
 368 303 368 303 373.5 318.5 c 128,-1,55
 379 334 379 334 394 334 c 0,56,57
 418 334 418 334 457.5 333.5 c 128,-1,58
 497 333 497 333 521 333 c 0,59,60
 533 333 533 333 533.5 322 c 128,-1,61
 534 311 534 311 528.5 291 c 128,-1,62
 523 271 523 271 523 262 c 0,63,64
 523 240 523 240 506.5 222 c 128,-1,65
 490 204 490 204 471 194.5 c 128,-1,66
 452 185 452 185 435.5 167.5 c 128,-1,67
 419 150 419 150 419 128 c 0,68,69
 419 126 419 126 419 122 c 0,70,71
 419 106 419 106 419.5 97.5 c 128,-1,72
 420 89 420 89 422.5 77.5 c 128,-1,73
 425 66 425 66 431.5 60.5 c 128,-1,74
 438 55 438 55 448 55 c 0,75,76
 467 55 467 55 489.5 54 c 128,-1,77
 512 53 512 53 531 53 c 256,78,79
 550 53 550 53 574 96 c 128,-1,80
 598 139 598 139 598 162 c 0,81,82
 598 186 598 186 599 196.5 c 128,-1,83
 600 207 600 207 600 231 c 0,84,85
 600 237 600 237 608 241 c 128,-1,86
 616 245 616 245 631 246.5 c 128,-1,87
 646 248 646 248 659.5 248.5 c 128,-1,88
 673 249 673 249 692 249 c 128,-1,89
 711 249 711 249 718 249 c 0,90,91
 738 249 738 249 746 228 c 128,-1,92
 754 207 754 207 754 180 c 0,93,94
 754 120 754 120 753 26 c 128,-1,95
 752 -68 752 -68 752 -128 c 1,96,-1
 931 -128 l 1,97,98
 924 -121 924 -121 911.5 -112.5 c 128,-1,99
 899 -104 899 -104 891.5 -96 c 128,-1,100
 884 -88 884 -88 884 -76 c 0,101,102
 884 -42 884 -42 883.5 13 c 128,-1,103
 883 68 883 68 883 102 c 0,104,105
 883 113 883 113 890.5 120.5 c 128,-1,106
 898 128 898 128 909 128 c 0,107,108
 939 128 939 128 986 129 c 128,-1,109
 1033 130 1033 130 1063 130 c 0,110,111
 1077 130 1077 130 1079 146 c 128,-1,112
 1081 162 1081 162 1076.5 181 c 128,-1,113
 1072 200 1072 200 1074 216 c 128,-1,114
 1076 232 1076 232 1090 232 c 0,115,116
 1123 232 1123 232 1167 258 c 128,-1,117
 1211 284 1211 284 1244 284 c 0,118,119
 1259 284 1259 284 1269.5 292.5 c 128,-1,120
 1280 301 1280 301 1284.5 317.5 c 128,-1,121
 1289 334 1289 334 1290.5 348.5 c 128,-1,122
 1292 363 1292 363 1292 383 c 0,123,124
 1292 387 1292 387 1240 387 c 1,125,-1
 1240 438 l 1,126,-1
 1292 438 l 1,127,128
 1296 431 1296 431 1299 417.5 c 128,-1,129
 1302 404 1302 404 1306.5 396.5 c 128,-1,130
 1311 389 1311 389 1321 389 c 0,131,132
 1471 389 1471 389 1705 388 c 128,-1,133
 1939 387 1939 387 2089 387 c 0,134,135
 2100 387 2100 387 2108 395 c 128,-1,136
 2116 403 2116 403 2116 413 c 2,137,-1
 2116 513 l 2,138,139
 2116 523 2116 523 2108.5 531 c 128,-1,140
 2101 539 2101 539 2091 539 c 2,141,-1
 1321 539 l 2,142,143
 1311 539 1311 539 1306.5 531.5 c 128,-1,144
 1302 524 1302 524 1299 509.5 c 128,-1,145
 1296 495 1296 495 1292 488 c 1,146,-1
 1241 489 l 1,147,-1
 1240 515 l 1,148,149
 1234 532 1234 532 1232.5 567 c 128,-1,150
 1231 602 1231 602 1223 621.5 c 128,-1,151
 1215 641 1215 641 1192 641 c 2,152,-1
 756 641 l 2,153,154
 743 641 743 641 742.5 622.5 c 128,-1,155
 742 604 742 604 741.5 585 c 128,-1,156
 741 566 741 566 728 566 c 2,157,-1
 600 566 l 2,158,159
 594 566 594 566 592 569.5 c 128,-1,160
 590 573 590 573 591.5 578.5 c 128,-1,161
 593 584 593 584 595 590 c 128,-1,162
 597 596 597 596 599 603.5 c 128,-1,163
 601 611 601 611 601 616 c 0,164,165
 601 626 601 626 593.5 626 c 128,-1,166
 586 626 586 626 572 621 c 128,-1,167
 558 616 558 616 551 616 c 0,168,169
 546 616 546 616 551 605 c 128,-1,170
 556 594 556 594 551 594 c 0,171,172
 506 594 506 594 434.5 593 c 128,-1,173
 363 592 363 592 318 592 c 0,174,175
 307 592 307 592 305.5 567 c 128,-1,176
 304 542 304 542 292 542 c 2,177,-1
 163 542 l 2,178,179
 150 542 150 542 149.5 567 c 128,-1,180
 149 592 149 592 142 592 c 0,181,182
 141 592 141 592 111.5 601 c 128,-1,183
 82 610 82 610 59 610 c 128,-1,184
 36 610 36 610 36 592 c 0,29,30
EndSplineSet
EndChar

StartChar: at
Encoding: 64 64 32
Width: 3545
GlyphClass: 1
Flags: W
LayerCount: 2
Fore
SplineSet
1146 172 m 1,0,1
 1146 184 1146 184 1145.5 207.5 c 128,-1,2
 1145 231 1145 231 1145 243 c 1,3,4
 1250 244 1250 244 1252 244 c 1,5,6
 1250 175 1250 175 1250 175 c 1,7,-1
 1227 146 l 1,8,9
 1227 146 1227 146 1217 146 c 128,-1,10
 1207 146 1207 146 1193 146 c 128,-1,11
 1179 146 1179 146 1165.5 146.5 c 128,-1,12
 1152 147 1152 147 1142.5 147.5 c 128,-1,13
 1133 148 1133 148 1134 148 c 1,14,15
 1128 152 1128 152 1115.5 160 c 128,-1,16
 1103 168 1103 168 1097 172 c 1,17,-1
 1146 172 l 1,0,1
1652 389 m 1,18,-1
 1742 389 l 1,19,-1
 1742 373 l 1,20,-1
 1652 373 l 1,21,-1
 1652 389 l 1,18,-1
2265 422 m 1,22,-1
 2315 422 l 1,23,24
 2315 410 2315 410 2320.5 402.5 c 128,-1,25
 2326 395 2326 395 2326 389 c 1,26,-1
 2300 389 l 1,27,-1
 2300 405 l 1,28,-1
 2265 405 l 1,29,-1
 2265 422 l 1,22,-1
93 472 m 1,30,-1
 464 472 l 1,31,-1
 464 460 l 1,32,-1
 456 460 l 1,33,-1
 456 428 l 1,34,-1
 426 428 l 1,35,-1
 426 349 l 1,36,-1
 456 349 l 1,37,-1
 456 314 l 1,38,-1
 464 314 l 1,39,-1
 464 302 l 1,40,-1
 93 302 l 1,41,-1
 93 472 l 1,30,-1
1250 175 m 1024,42,-1
2326 395 m 1024,43,-1
2399 312 m 1,44,-1
 2399 324 l 1,45,-1
 2478 324 l 1,46,-1
 2497 319 l 1,47,-1
 2523 318 l 1,48,-1
 2523 399 l 1,49,-1
 2492 399 l 1,50,-1
 2476 395 l 1,51,52
 2478 395 2478 395 2461 394.5 c 128,-1,53
 2444 394 2444 394 2424 394 c 128,-1,54
 2404 394 2404 394 2398 394 c 1,55,56
 2399 394 2399 394 2405 404 c 128,-1,57
 2411 414 2411 414 2411 418 c 1,58,-1
 3143 418 l 1,59,-1
 3143 408 l 1,60,-1
 3511 408 l 1,61,-1
 3511 502 l 1,62,-1
 3143 502 l 1,63,-1
 3143 493 l 1,64,-1
 2410 493 l 1,65,-1
 2410 502 l 1,66,-1
 2398 502 l 1,67,-1
 2391 535 l 1,68,-1
 2328 535 l 1,69,-1
 2320 503 l 1,70,-1
 2310 502 l 1,71,-1
 2310 493 l 1,72,-1
 2270 493 l 1,73,-1
 2270 557 l 1,74,-1
 1738 557 l 1,75,-1
 1738 506 l 1,76,-1
 1655 506 l 1,77,-1
 1655 574 l 1,78,-1
 1312 574 l 1,79,-1
 1312 582 l 1,80,81
 1312 581 1312 581 1299.5 602.5 c 128,-1,82
 1287 624 1287 624 1274 646 c 128,-1,83
 1261 668 1261 668 1261 669 c 1,84,-1
 1166 669 l 1,85,-1
 1166 574 l 1,86,-1
 1073 574 l 1,87,-1
 1047 556 l 1,88,-1
 713 556 l 1,89,-1
 713 430 l 1,90,-1
 674 430 l 1,91,-1
 674 464 l 1,92,-1
 619 464 l 1,93,-1
 619 468 l 1,94,-1
 699 468 l 1,95,-1
 699 511 l 1,96,-1
 619 511 l 1,97,-1
 619 520 l 1,98,-1
 460 520 l 1,99,-1
 460 509 l 1,100,-1
 98 509 l 1,101,-1
 98 537 l 1,102,-1
 36 537 l 1,103,-1
 36 208 l 1,104,-1
 98 208 l 1,105,-1
 98 263 l 1,106,-1
 460 263 l 1,107,108
 460 263 460 263 460 256 c 0,109,110
 460 255 460 255 462 256 c 2,111,-1
 620 256 l 1,112,-1
 620 263 l 1,113,-1
 699 263 l 1,114,-1
 699 307 l 1,115,-1
 619 307 l 1,116,-1
 619 312 l 1,117,-1
 674 312 l 1,118,-1
 674 346 l 1,119,-1
 714 346 l 1,120,-1
 714 281 l 1,121,-1
 757 239 l 1,122,-1
 757 239 l 1,123,-1
 757 239 l 1,124,-1
 757 239 l 1,125,-1
 758 239 l 1,126,-1
 758 239 l 1,127,-1
 759 239 l 1,128,-1
 759 239 l 1,129,-1
 760 239 l 1,130,-1
 761 239 l 1,131,-1
 762 239 l 1,132,-1
 763 239 l 1,133,-1
 764 239 l 1,134,-1
 765 239 l 1,135,-1
 766 239 l 1,136,-1
 767 239 l 1,137,-1
 768 239 l 1,138,-1
 769 239 l 1,139,-1
 770 239 l 1,140,-1
 771 239 l 1,141,-1
 772 239 l 1,142,-1
 773 239 l 1,143,-1
 774 239 l 1,144,-1
 775 239 l 1,145,-1
 776 239 l 1,146,-1
 777 239 l 1,147,-1
 778 239 l 1,148,-1
 779 239 l 1,149,-1
 780 239 l 1,150,-1
 781 239 l 1,151,-1
 782 239 l 1,152,-1
 783 239 l 1,153,-1
 784 239 l 1,154,-1
 785 239 l 1,155,-1
 786 239 l 1,156,-1
 787 239 l 1,157,-1
 788 239 l 1,158,-1
 789 239 l 1,159,-1
 790 239 l 1,160,-1
 792 239 l 1,161,-1
 793 239 l 1,162,-1
 794 239 l 1,163,-1
 795 239 l 1,164,-1
 796 239 l 1,165,-1
 797 239 l 1,166,-1
 798 239 l 1,167,-1
 799 239 l 1,168,-1
 800 239 l 1,169,-1
 801 239 l 1,170,-1
 803 239 l 1,171,-1
 804 239 l 1,172,-1
 805 239 l 1,173,-1
 806 239 l 1,174,-1
 807 239 l 1,175,-1
 808 239 l 1,176,-1
 810 239 l 1,177,-1
 811 239 l 1,178,-1
 812 239 l 1,179,-1
 813 239 l 1,180,-1
 815 239 l 1,181,-1
 816 239 l 1,182,-1
 817 239 l 1,183,-1
 818 239 l 1,184,-1
 820 239 l 1,185,-1
 821 239 l 1,186,-1
 822 239 l 1,187,-1
 823 239 l 1,188,-1
 825 239 l 1,189,-1
 826 239 l 1,190,-1
 827 239 l 1,191,-1
 829 239 l 1,192,-1
 830 239 l 1,193,-1
 831 239 l 1,194,-1
 833 239 l 1,195,-1
 834 239 l 1,196,-1
 835 239 l 1,197,-1
 837 239 l 1,198,-1
 838 239 l 1,199,-1
 839 239 l 1,200,-1
 841 239 l 1,201,-1
 842 239 l 1,202,-1
 843 239 l 1,203,-1
 845 239 l 1,204,-1
 846 239 l 1,205,-1
 848 239 l 1,206,-1
 849 239 l 1,207,-1
 850 239 l 1,208,-1
 852 239 l 1,209,-1
 853 239 l 1,210,-1
 855 239 l 1,211,-1
 856 239 l 1,212,-1
 858 239 l 1,213,-1
 859 239 l 1,214,-1
 860 239 l 1,215,-1
 862 239 l 1,216,-1
 863 239 l 1,217,-1
 865 239 l 1,218,-1
 866 239 l 1,219,-1
 868 239 l 1,220,-1
 869 239 l 1,221,-1
 871 239 l 1,222,-1
 872 239 l 1,223,-1
 873 239 l 1,224,-1
 875 239 l 1,225,-1
 876 239 l 1,226,-1
 878 239 l 1,227,-1
 879 239 l 1,228,-1
 881 239 l 1,229,-1
 882 239 l 1,230,-1
 884 239 l 1,231,-1
 885 239 l 1,232,-1
 887 239 l 1,233,-1
 888 239 l 1,234,-1
 889 239 l 1,235,-1
 891 239 l 1,236,-1
 892 239 l 1,237,-1
 894 239 l 1,238,-1
 895 239 l 1,239,-1
 897 239 l 1,240,-1
 898 239 l 1,241,-1
 899 239 l 1,242,-1
 901 239 l 1,243,-1
 910 239 l 1,244,-1
 923 201 l 1,245,-1
 908 174 l 1,246,-1
 826 92 l 1,247,-1
 774 18 l 2,248,249
 765 5 765 5 765 2 c 2,250,-1
 771 -20 l 1,251,252
 770 -20 770 -20 813.5 -35.5 c 128,-1,253
 857 -51 857 -51 901.5 -67 c 128,-1,254
 946 -83 946 -83 947 -83 c 2,255,-1
 964 -59 l 1,256,-1
 964 -12 l 2,257,258
 964 -10 964 -10 1069 148 c 1,259,-1
 1127 134 l 1,260,261
 1239 134 1239 134 1240 134 c 2,262,-1
 1268 174 l 1,263,-1
 1268 239 l 1,264,-1
 1292 239 l 1,265,-1
 1292 302 l 1,266,-1
 1314 302 l 1,267,-1
 1314 45 l 1,268,269
 1337 -35 1337 -35 1338 -37 c 2,270,271
 1338 -37 1338 -37 1560 -52 c 1,272,-1
 1618 47 l 1,273,274
 1624 124 1624 124 1624 193 c 1,275,-1
 1758 193 l 2,276,277
 1786 192 1786 192 1832 191 c 128,-1,278
 1878 190 1878 190 1975.5 188 c 128,-1,279
 2073 186 2073 186 2137 185 c 128,-1,280
 2201 184 2201 184 2200 184 c 2,281,-1
 2120 221 l 1,282,-1
 2120 308 l 1,283,-1
 2399 312 l 1,44,-1
2411 416 m 1024,284,-1
2492 399 m 1024,285,-1
2497 318 m 1024,286,-1
1620 208 m 1024,287,-1
1268 174 m 1024,288,-1
964 -59 m 1024,289,-1
714 281 m 1024,290,-1
1073 574 m 1024,291,-1
EndSplineSet
EndChar

StartChar: A
Encoding: 65 65 33
Width: 1167
GlyphClass: 1
Flags: W
LayerCount: 2
Fore
SplineSet
40 282 m 1,0,1
 33 272 33 272 36 257 c 128,-1,2
 39 242 39 242 44.5 231 c 128,-1,3
 50 220 50 220 61 203 c 0,4,5
 102 142 102 142 136 150 c 1,6,-1
 269 244 l 1,7,8
 282 246 282 246 284 246 c 2,9,-1
 318 201 l 1,10,-1
 316 196 l 1,11,-1
 183 102 l 1,12,13
 179 91 179 91 178.5 81.5 c 128,-1,14
 178 72 178 72 181.5 62 c 128,-1,15
 185 52 185 52 189 45.5 c 128,-1,16
 193 39 193 39 200 27 c 0,17,18
 201 26 201 26 202 24.5 c 128,-1,19
 203 23 203 23 204 21.5 c 128,-1,20
 205 20 205 20 206 18 c 0,21,22
 208 16 208 16 212 10 c 0,23,24
 247 -40 247 -40 281 -30 c 1,25,-1
 412 63 l 1,26,27
 428 67 428 67 430 67 c 2,28,-1
 436 59 l 1,29,-1
 319 -24 l 2,30,31
 315 -28 315 -28 313.5 -33 c 128,-1,32
 312 -38 312 -38 311 -42.5 c 128,-1,33
 310 -47 310 -47 312 -53 c 128,-1,34
 314 -59 314 -59 315 -62.5 c 128,-1,35
 316 -66 316 -66 319.5 -73 c 128,-1,36
 323 -80 323 -80 324.5 -82.5 c 128,-1,37
 326 -85 326 -85 330.5 -92 c 128,-1,38
 335 -99 335 -99 336 -100 c 0,39,40
 338 -103 338 -103 340.5 -106 c 128,-1,41
 343 -109 343 -109 345 -114 c 0,42,43
 346 -115 346 -115 347 -117 c 0,44,45
 352 -124 352 -124 355 -127.5 c 128,-1,46
 358 -131 358 -131 363.5 -137 c 128,-1,47
 369 -143 369 -143 373 -146 c 128,-1,48
 377 -149 377 -149 382.5 -152.5 c 128,-1,49
 388 -156 388 -156 393 -157.5 c 128,-1,50
 398 -159 398 -159 404 -158.5 c 128,-1,51
 410 -158 410 -158 416 -156 c 2,52,-1
 546 -64 l 1,53,-1
 572 -58 l 1,54,-1
 580 -63 l 1,55,-1
 588 -61 l 1,56,-1
 632 -47 l 1,57,58
 965 187 965 187 968 188 c 2,59,-1
 970 203 l 2,60,61
 968 213 968 213 968 215 c 2,62,-1
 974 220 l 1,63,-1
 992 244 l 1,64,-1
 1132 344 l 1,65,66
 1141 366 1141 366 1095 432 c 0,67,68
 1089 438 1089 438 1085 442 c 0,69,70
 1085 443 1085 443 1083 445 c 0,71,72
 1079 450 1079 450 1077 452.5 c 128,-1,73
 1075 455 1075 455 1070.5 460.5 c 128,-1,74
 1066 466 1066 466 1063 469 c 128,-1,75
 1060 472 1060 472 1055.5 476 c 128,-1,76
 1051 480 1051 480 1048 481.5 c 128,-1,77
 1045 483 1045 483 1041 485 c 128,-1,78
 1037 487 1037 487 1034 486.5 c 128,-1,79
 1031 486 1031 486 1028 484 c 2,80,-1
 890 386 l 1,81,82
 876 381 876 381 868 379 c 1,83,-1
 996 469 l 1,84,85
 1003 486 1003 486 988 515.5 c 128,-1,86
 973 545 973 545 957 563 c 0,87,88
 956 564 956 564 953.5 567 c 128,-1,89
 951 570 951 570 950 572 c 0,90,91
 941 582 941 582 936 588 c 128,-1,92
 931 594 931 594 922.5 602 c 128,-1,93
 914 610 914 610 907 612.5 c 128,-1,94
 900 615 900 615 895 612 c 2,95,-1
 754 513 l 1,96,97
 734 506 734 506 730 505 c 2,98,-1
 704 537 l 1,99,-1
 716 551 l 1,100,-1
 856 651 l 1,101,102
 860 668 860 668 843.5 699.5 c 128,-1,103
 827 731 827 731 820 739 c 0,104,105
 771 800 771 800 751 790 c 2,106,-1
 614 693 l 1,107,108
 581 682 581 682 580 682 c 2,109,-1
 578 681 l 1,110,-1
 562 689 l 1,111,-1
 551 687 l 1,112,113
 541 679 541 679 538 677 c 1,114,-1
 526 710 l 1,115,-1
 512 716 l 1,116,-1
 483 702 l 1,117,-1
 478 694 l 1,118,-1
 496 646 l 1,119,-1
 214 448 l 1,120,-1
 190 413 l 1,121,-1
 189 404 l 1,122,-1
 175 376 l 1,123,-1
 40 282 l 1,0,1
190 413 m 1024,124,-1
483 702 m 1024,125,-1
512 716 m 1024,126,-1
526 710 m 1024,127,-1
551 687 m 1024,128,-1
562 689 m 1024,129,-1
580 682 m 1024,130,-1
970 203 m 1024,131,-1
968 188 m 1024,132,-1
580 -63 m 1024,133,-1
524 206 m 1,134,-1
 693 326 l 1,135,136
 714 313 714 313 725.5 301.5 c 128,-1,137
 737 290 737 290 748 268 c 1,138,-1
 578 148 l 1,139,-1
 574 148 l 1,140,141
 553 163 553 163 543.5 173.5 c 128,-1,142
 534 184 534 184 524 206 c 1,134,-1
496 646 m 1024,143,-1
EndSplineSet
EndChar

StartChar: B
Encoding: 66 66 34
Width: 905
GlyphClass: 1
Flags: W
LayerCount: 2
Fore
SplineSet
460 160 m 1,0,-1
 490 188 l 1,1,-1
 542 272 l 1,2,3
 665 286 665 286 665 286 c 2,4,5
 671 287 671 287 682 289 c 128,-1,6
 693 291 693 291 699 292 c 1,7,-1
 699 74 l 1,8,-1
 689 74 l 1,9,10
 557 147 557 147 535 160 c 1,11,-1
 460 160 l 1,0,-1
616 379 m 1,12,13
 625 374 625 374 641.5 363 c 128,-1,14
 658 352 658 352 667 346 c 1,15,-1
 667 296 l 1,16,-1
 582 298 l 2,17,18
 581 302 581 302 578 309 c 128,-1,19
 575 316 575 316 574 320 c 2,20,-1
 574 353 l 1,21,22
 584 377 584 377 584 379 c 1,23,-1
 616 379 l 1,12,13
387 679 m 0,24,25
 386 680 386 680 384 680.5 c 128,-1,26
 382 681 382 681 379 681 c 128,-1,27
 376 681 376 681 374 682 c 2,28,-1
 385 706 l 1,29,-1
 539 706 l 1,30,-1
 548 664 l 1,31,-1
 383 664 l 1,32,33
 384 665 384 665 385 665.5 c 128,-1,34
 386 666 386 666 387 667 c 0,35,36
 393 671 393 671 387 679 c 0,24,25
304 682 m 1,37,-1
 284 682 l 1,38,-1
 272 676 l 1,39,-1
 272 667 l 1,40,-1
 274 667 l 1,41,-1
 106 667 l 1,42,43
 76 659 76 659 58.5 630.5 c 128,-1,44
 41 602 41 602 36 568 c 1,45,-1
 36 363 l 1,46,-1
 82 363 l 1,47,-1
 82 144 l 1,48,-1
 38 144 l 1,49,-1
 38 -110 l 1,50,51
 43 -142 43 -142 80 -152 c 1,52,-1
 802 -152 l 1,53,54
 828 -147 828 -147 839 -130 c 128,-1,55
 850 -113 850 -113 857 -80 c 1,56,-1
 857 75 l 1,57,-1
 812 75 l 1,58,-1
 812 337 l 1,59,-1
 857 337 l 1,60,-1
 857 426 l 1,61,-1
 870 426 l 1,62,-1
 870 483 l 1,63,-1
 857 483 l 1,64,-1
 857 602 l 1,65,66
 851 622 851 622 846 633 c 128,-1,67
 841 644 841 644 829.5 654.5 c 128,-1,68
 818 665 818 665 801 667 c 2,69,-1
 628 667 l 1,70,-1
 621 708 l 1,71,-1
 614 704 l 1,72,-1
 609 707 l 1,73,-1
 600 704 l 1,74,-1
 558 756 l 1,75,76
 546 762 546 762 539 762 c 2,77,-1
 373 762 l 2,78,79
 364 759 364 759 359 754 c 0,80,81
 314 691 314 691 312 687 c 2,82,-1
 304 682 l 1,37,-1
294 364 m 1,83,-1
 310 364 l 1,84,-1
 310 379 l 1,85,-1
 420 379 l 1,86,-1
 416 296 l 1,87,-1
 382 262 l 1,88,-1
 355 255 l 2,89,90
 345 253 345 253 324.5 250 c 128,-1,91
 304 247 304 247 294 245 c 1,92,-1
 294 364 l 1,83,-1
615 377 m 1,93,-1
 535 430 l 1,94,95
 327 428 327 428 316 428 c 1,96,-1
 308 416 l 1,97,-1
 310 377 l 1,98,-1
 306 416 l 1,99,-1
 316 430 l 1,100,-1
 535 432 l 1,101,-1
 616 379 l 1,102,-1
 615 377 l 1,93,-1
811 337 m 1,103,-1
 677 337 l 1,104,-1
 665 345 l 1,105,-1
 667 346 l 1,106,-1
 679 339 l 1,107,-1
 811 339 l 1,108,-1
 811 337 l 1,103,-1
699 337 m 1,109,-1
 698 337 l 1,110,-1
 698 292 l 1,111,-1
 699 292 l 1,112,-1
 699 337 l 1,109,-1
EndSplineSet
EndChar

StartChar: C
Encoding: 67 67 35
Width: 1894
GlyphClass: 1
Flags: W
LayerCount: 2
Fore
SplineSet
1059 683 m 1,0,-1
 1060 680 l 2,1,2
 1061 678 1061 678 1059 678 c 128,-1,3
 1057 678 1057 678 1056 677 c 2,4,-1
 1048 663 l 1,5,-1
 1066 621 l 1,6,-1
 1028 609 l 2,7,8
 1022 610 1022 610 1009 611 c 128,-1,9
 996 612 996 612 990 613 c 1,10,-1
 969 580 l 2,11,12
 964 578 964 578 954 573 c 128,-1,13
 944 568 944 568 939 566 c 0,14,15
 937 566 937 566 932.5 568 c 128,-1,16
 928 570 928 570 927 570 c 0,17,18
 787 524 787 524 787 524 c 1,19,-1
 450 343 l 1,20,-1
 438 308 l 1,21,22
 427 301 427 301 405 289.5 c 128,-1,23
 383 278 383 278 380 276 c 1,24,-1
 394 371 l 1,25,-1
 1007 702 l 1,26,27
 1031 690 1031 690 1039.5 686.5 c 128,-1,28
 1048 683 1048 683 1059 683 c 1,0,-1
1289 680 m 1,29,-1
 1306 704 l 1,30,-1
 1338 686 l 1,31,32
 1334 670 1334 670 1324 666 c 128,-1,33
 1314 662 1314 662 1304.5 667 c 128,-1,34
 1295 672 1295 672 1289 680 c 1,29,-1
1300 758 m 1,35,-1
 1295 752 l 1,36,37
 1299 730 1299 730 1295 726 c 1,38,-1
 1281 736 l 1,39,-1
 1268 730 l 1,40,41
 1262 747 1262 747 1271 758.5 c 128,-1,42
 1280 770 1280 770 1300 758 c 1,35,-1
1316 766 m 1,43,44
 1307 780 1307 780 1288.5 780.5 c 128,-1,45
 1270 781 1270 781 1257 767 c 128,-1,46
 1244 753 1244 753 1250 730 c 1,47,-1
 1232 722 l 1,48,-1
 1231 728 l 1,49,-1
 1121 734 l 1,50,51
 1110 740 1110 740 1088.5 750.5 c 128,-1,52
 1067 761 1067 761 1056 766 c 1,53,-1
 977 740 l 1,54,55
 294 371 294 371 286 368 c 1,56,57
 286 360 286 360 285.5 348.5 c 128,-1,58
 285 337 285 337 284 330 c 0,59,60
 280 290 280 290 281 270 c 128,-1,61
 282 250 282 250 292 250 c 2,62,-1
 319 242 l 1,63,-1
 320 226 l 1,64,-1
 278 212 l 1,65,66
 148 143 148 143 146 142 c 2,67,-1
 154 22 l 1,68,-1
 36 -39 l 1,69,70
 37 -48 37 -48 37.5 -64 c 128,-1,71
 38 -80 38 -80 39 -94 c 128,-1,72
 40 -108 40 -108 40 -119 c 1,73,-1
 94 -172 l 1,74,75
 143 -155 143 -155 146 -154 c 0,76,77
 218 -114 218 -114 227 -110 c 1,78,-1
 274 -160 l 1,79,80
 272 -159 272 -159 275 -161 c 2,81,82
 275 -161 275 -161 277 -163 c 0,83,84
 291 -173 291 -173 292 -172 c 2,85,-1
 410 -132 l 1,86,-1
 535 -67 l 1,87,-1
 600 -45 l 1,88,-1
 618 -34 l 1,89,-1
 757 13 l 1,90,91
 755 12 755 12 841 57.5 c 128,-1,92
 927 103 927 103 1013.5 149.5 c 128,-1,93
 1100 196 1100 196 1100 196 c 1,94,95
 1101 202 1101 202 1104 213 c 128,-1,96
 1107 224 1107 224 1108 230 c 2,97,-1
 1107 248 l 1,98,-1
 1134 256 l 2,99,100
 1134 257 1134 257 1265 330 c 1,101,-1
 1264 375 l 1,102,103
 1373 398 1373 398 1314 487 c 1,104,-1
 1274 633 l 1,105,106
 1259 662 1259 662 1257 670 c 1,107,-1
 1272 676 l 1,108,109
 1276 668 1276 668 1287 660.5 c 128,-1,110
 1298 653 1298 653 1315.5 653 c 128,-1,111
 1333 653 1333 653 1347 669 c 1,112,-1
 1354 582 l 2,113,114
 1356 565 1356 565 1370 548 c 1,115,116
 1599 417 1599 417 1771 319 c 0,117,118
 1828 286 1828 286 1828 286 c 1,119,120
 1837 286 1837 286 1847 294.5 c 128,-1,121
 1857 303 1857 303 1859 318 c 2,122,-1
 1838 568 l 2,123,124
 1833 593 1833 593 1819 606 c 1,125,126
 1819 606 1819 606 1794.5 619.5 c 128,-1,127
 1770 633 1770 633 1730.5 655.5 c 128,-1,128
 1691 678 1691 678 1642.5 705.5 c 128,-1,129
 1594 733 1594 733 1545.5 760.5 c 128,-1,130
 1497 788 1497 788 1456.5 810.5 c 128,-1,131
 1416 833 1416 833 1390.5 847.5 c 128,-1,132
 1365 862 1365 862 1365 862 c 1,133,134
 1355 863 1355 863 1344.5 852 c 128,-1,135
 1334 841 1334 841 1334 833 c 0,136,137
 1339 777 1339 777 1340 765 c 1,138,139
 1337 766 1337 766 1324 770 c 1,140,-1
 1316 766 l 1,43,44
532 -65 m 1,141,-1
 536 -49 l 1,142,-1
 523 111 l 2,143,144
 523 112 523 112 494 143 c 128,-1,145
 465 174 465 174 431 210 c 128,-1,146
 397 246 397 246 395 248 c 2,147,-1
 321 224 l 1,148,-1
 321 226 l 1,149,-1
 395 250 l 2,150,151
 396 250 396 250 409.5 235.5 c 128,-1,152
 423 221 423 221 442 201 c 128,-1,153
 461 181 461 181 480 161 c 128,-1,154
 499 141 499 141 512 127 c 128,-1,155
 525 113 525 113 525 113 c 1,156,157
 526 103 526 103 527.5 86.5 c 128,-1,158
 529 70 529 70 532 34.5 c 128,-1,159
 535 -1 535 -1 537 -24.5 c 128,-1,160
 539 -48 539 -48 539 -47 c 1,161,-1
 535 -67 l 1,162,-1
 532 -65 l 1,141,-1
537 -46 m 1,163,-1
 538 -50 l 1,164,-1
 572 -38 l 1,165,166
 564 71 564 71 560 132 c 1,167,168
 560 131 560 131 530 162 c 128,-1,169
 500 193 500 193 469 226 c 128,-1,170
 438 259 438 259 434 264 c 1,171,-1
 440 284 l 1,172,173
 562 349 562 349 562 349 c 1,174,175
 561 348 561 348 566.5 358.5 c 128,-1,176
 572 369 572 369 578 380 c 2,177,-1
 584 392 l 1,178,179
 928 570 928 570 928 570 c 1,180,-1
 926 572 l 1,181,-1
 584 394 l 1,182,183
 560 350 560 350 560 349 c 2,184,-1
 440 286 l 1,185,186
 432 265 432 265 432 263 c 0,187,188
 557 133 557 133 557 131 c 2,189,-1
 569 -36 l 1,190,-1
 537 -46 l 1,163,-1
EndSplineSet
EndChar

StartChar: D
Encoding: 68 68 36
Width: 1716
GlyphClass: 1
Flags: W
LayerCount: 2
Fore
SplineSet
833 286 m 1,0,1
 835 282 835 282 841.5 261.5 c 128,-1,2
 848 241 848 241 852 229 c 1,3,-1
 773 128 l 1,4,-1
 670 128 l 1,5,-1
 618 209 l 1,6,-1
 644 286 l 1,7,-1
 833 286 l 1,0,1
1004 189 m 1,8,-1
 994 248 l 2,9,10
 996 255 996 255 1003.5 269 c 128,-1,11
 1011 283 1011 283 1012 286 c 0,12,13
 1013 286 1013 286 1047 286 c 1,14,-1
 1042 254 l 1,15,-1
 1047 225 l 1,16,-1
 1073 202 l 1,17,-1
 1078 202 l 1,18,-1
 1067 224 l 2,19,20
 1068 229 1068 229 1066 255 c 0,21,22
 1068 260 1068 260 1072.5 270.5 c 128,-1,23
 1077 281 1077 281 1079 286 c 1,24,-1
 1172 286 l 1,25,-1
 1170 189 l 1,26,-1
 1004 189 l 1,8,-1
1010 766 m 1,27,-1
 1010 704 l 1,28,29
 1006 701 1006 701 998 694 c 1,30,-1
 994 676 l 1,31,-1
 940 676 l 1,32,-1
 940 645 l 1,33,-1
 902 645 l 1,34,-1
 902 592 l 1,35,-1
 226 592 l 1,36,-1
 99 481 l 1,37,-1
 38 481 l 1,38,-1
 38 140 l 2,39,40
 37 126 37 126 36 82 c 1,41,-1
 505 76 l 1,42,43
 520 138 520 138 520 138 c 1,44,-1
 520 316 l 1,45,-1
 523 318 l 1,46,47
 523 172 523 172 524 144 c 1,48,-1
 602 58 l 1,49,-1
 602 -83 l 1,50,-1
 805 -83 l 1,51,-1
 922 89 l 2,52,53
 926 90 926 90 938.5 94 c 128,-1,54
 951 98 951 98 957 100 c 2,55,-1
 1014 178 l 1,56,-1
 1257 178 l 1,57,-1
 1257 164 l 1,58,-1
 1234 154 l 1,59,60
 1234 -140 1234 -140 1234 -140 c 2,61,62
 1237 -142 1237 -142 1242 -147 c 128,-1,63
 1247 -152 1247 -152 1250 -154 c 0,64,65
 1268 -154 1268 -154 1303 -153 c 128,-1,66
 1338 -152 1338 -152 1355 -152 c 1,67,-1
 1371 -138 l 1,68,-1
 1371 152 l 1,69,-1
 1347 164 l 1,70,-1
 1347 177 l 1,71,-1
 1357 177 l 1,72,-1
 1357 250 l 1,73,-1
 1412 250 l 1,74,-1
 1466 150 l 1,75,-1
 1492 150 l 1,76,-1
 1492 349 l 1,77,-1
 1681 349 l 1,78,-1
 1681 434 l 1,79,-1
 1492 434 l 1,80,-1
 1492 497 l 1,81,-1
 1460 584 l 1,82,-1
 1460 656 l 1,83,-1
 1436 658 l 1,84,-1
 1420 590 l 1,85,-1
 1403 574 l 1,86,-1
 1403 635 l 1,87,-1
 1364 635 l 1,88,-1
 1364 645 l 1,89,-1
 1310 645 l 1,90,-1
 1310 676 l 1,91,-1
 1253 676 l 1,92,-1
 1253 694 l 2,93,94
 1251 695 1251 695 1247 698.5 c 128,-1,95
 1243 702 1243 702 1240 704 c 2,96,-1
 1131 704 l 1,97,-1
 1094 766 l 1,98,-1
 1010 766 l 1,27,-1
EndSplineSet
EndChar

StartChar: E
Encoding: 69 69 37
Width: 2127
GlyphClass: 1
Flags: W
LayerCount: 2
Fore
SplineSet
658 124 m 1,0,-1
 608 205 l 1,1,-1
 632 280 l 1,2,3
 632 280 632 280 820 280 c 1,4,-1
 838 224 l 1,5,-1
 760 124 l 1,6,-1
 658 124 l 1,0,-1
987 183 m 1,7,8
 977 242 977 242 977 242 c 1,9,-1
 995 280 l 2,10,11
 995 281 995 281 1030 281 c 1,12,13
 1030 280 1030 280 1028 265 c 128,-1,14
 1026 250 1026 250 1026 249 c 2,15,-1
 1030 219 l 1,16,17
 1055 197 1055 197 1056 197 c 2,18,-1
 1060 197 l 1,19,20
 1047 219 1047 219 1047 219 c 1,21,-1
 1047 249 l 1,22,-1
 1060 280 l 2,23,24
 1061 280 1061 280 1080 280 c 128,-1,25
 1099 280 1099 280 1121.5 280.5 c 128,-1,26
 1144 281 1144 281 1152 281 c 1,27,28
 1152 281 1152 281 1151.5 259.5 c 128,-1,29
 1151 238 1151 238 1150.5 213.5 c 128,-1,30
 1150 189 1150 189 1150 183 c 1,31,-1
 987 183 l 1,7,8
1047 219 m 1024,32,-1
1076 752 m 1,33,-1
 992 752 l 1,34,-1
 992 689 l 1,35,-1
 981 681 l 1,36,37
 979 666 979 666 977 662 c 1,38,-1
 923 662 l 1,39,-1
 923 632 l 1,40,-1
 886 632 l 1,41,-1
 886 580 l 1,42,-1
 223 580 l 1,43,-1
 98 470 l 1,44,-1
 39 470 l 1,45,-1
 39 142 l 1,46,-1
 36 81 l 1,47,48
 128 80 128 80 242.5 78.5 c 128,-1,49
 357 77 357 77 427 76 c 128,-1,50
 497 75 497 75 497 75 c 1,51,52
 500 85 500 85 505.5 104.5 c 128,-1,53
 511 124 511 124 513 134 c 2,54,-1
 513 308 l 1,55,-1
 515 310 l 1,56,-1
 515 140 l 1,57,58
 515 141 515 141 534.5 120.5 c 128,-1,59
 554 100 554 100 573 79 c 2,60,-1
 592 58 l 1,61,-1
 592 -85 l 1,62,-1
 791 -85 l 1,63,64
 868 29 868 29 907 86 c 1,65,-1
 941 98 l 1,66,67
 993 166 993 166 998 174 c 1,68,-1
 1234 174 l 1,69,-1
 1234 160 l 1,70,-1
 1213 152 l 1,71,-1
 1213 -136 l 1,72,-1
 1227 -150 l 1,73,-1
 1333 -150 l 1,74,-1
 1346 -136 l 1,75,-1
 1346 150 l 1,76,-1
 1324 160 l 1,77,-1
 1324 172 l 1,78,-1
 1334 172 l 1,79,-1
 1334 244 l 1,80,-1
 1385 244 l 1,81,-1
 1439 146 l 1,82,-1
 1466 146 l 1,83,-1
 1466 352 l 1,84,-1
 1484 352 l 1,85,-1
 1508 318 l 1,86,-1
 2073 318 l 1,87,-1
 2092 325 l 1,88,-1
 2092 440 l 2,89,90
 2089 441 2089 441 2082.5 444 c 128,-1,91
 2076 447 2076 447 2072 448 c 2,92,-1
 1508 448 l 1,93,-1
 1484 413 l 1,94,-1
 1466 413 l 1,95,-1
 1466 487 l 1,96,-1
 1433 570 l 1,97,-1
 1433 644 l 1,98,99
 1420 644 1420 644 1410 645 c 1,100,101
 1408 634 1408 634 1402 612 c 128,-1,102
 1396 590 1396 590 1394 578 c 1,103,104
 1381 568 1381 568 1377 563 c 1,105,-1
 1377 624 l 1,106,-1
 1341 624 l 1,107,-1
 1341 632 l 1,108,-1
 1286 632 l 1,109,-1
 1286 663 l 1,110,-1
 1232 663 l 1,111,112
 1232 679 1232 679 1231 681 c 2,113,-1
 1219 689 l 1,114,-1
 1112 689 l 1,115,-1
 1076 752 l 1,33,-1
2073 318 m 1024,116,-1
1333 -150 m 1024,117,-1
1227 -150 m 1024,118,-1
1213 -136 m 1024,119,-1
981 681 m 1024,120,-1
EndSplineSet
EndChar

StartChar: F
Encoding: 70 70 38
Width: 3509
GlyphClass: 1
Flags: W
LayerCount: 2
Fore
SplineSet
1240 224 m 1,0,1
 1240 224 1240 224 1254 224 c 128,-1,2
 1268 224 1268 224 1282.5 224 c 128,-1,3
 1297 224 1297 224 1298 224 c 1,4,-1
 1289 187 l 1,5,6
 1293 176 1293 176 1301 153.5 c 128,-1,7
 1309 131 1309 131 1313 120 c 1,8,-1
 1279 120 l 1,9,-1
 1241 142 l 2,10,11
 1240 143 1240 143 1240 224 c 1,0,1
1326 119 m 1,12,13
 1326 119 1326 119 1316 185 c 1,14,-1
 1332 223 l 2,15,16
 1337 226 1337 226 1449 226 c 1,17,-1
 1454 185 l 1,18,-1
 1416 121 l 2,19,20
 1414 119 1414 119 1326 119 c 1,12,13
1517 525 m 1,21,-1
 1512 605 l 1,22,23
 1512 605 1512 605 1605.5 605 c 128,-1,24
 1699 605 1699 605 1793 605 c 128,-1,25
 1887 605 1887 605 1888 605 c 1,26,-1
 1881 525 l 1,27,-1
 1517 525 l 1,21,-1
1925 721 m 1,28,-1
 1885 721 l 1,29,-1
 1884 716 l 1,30,-1
 1879 715 l 1,31,-1
 1876 712 l 1,32,-1
 1876 705 l 1,33,-1
 1824 705 l 1,34,-1
 1823 720 l 1,35,-1
 1826 723 l 1,36,-1
 1829 727 l 1,37,-1
 1832 730 l 1,38,-1
 1831 735 l 1,39,-1
 1832 746 l 1,40,-1
 1832 757 l 1,41,-1
 1735 757 l 1,42,-1
 1736 747 l 1,43,-1
 1736 737 l 1,44,-1
 1736 728 l 1,45,-1
 1738 726 l 1,46,-1
 1742 722 l 1,47,-1
 1744 721 l 1,48,-1
 1744 705 l 1,49,-1
 1523 705 l 1,50,-1
 1514 721 l 1,51,-1
 1475 721 l 1,52,-1
 1473 715 l 1,53,-1
 1469 713 l 1,54,-1
 1466 705 l 1,55,-1
 1350 705 l 1,56,-1
 1328 711 l 1,57,-1
 1288 722 l 1,58,-1
 1266 728 l 1,59,-1
 879 728 l 1,60,-1
 879 579 l 1,61,-1
 1267 579 l 1,62,-1
 1287 585 l 1,63,-1
 1327 595 l 1,64,-1
 1348 601 l 1,65,-1
 1473 601 l 1,66,-1
 1473 507 l 1,67,-1
 929 507 l 1,68,-1
 929 526 l 1,69,-1
 916 526 l 1,70,-1
 904 526 l 1,71,-1
 893 525 l 1,72,-1
 871 496 l 1,73,-1
 85 496 l 1,74,-1
 85 561 l 1,75,-1
 72 561 l 1,76,-1
 49 561 l 1,77,-1
 36 561 l 1,78,-1
 36 -109 l 1,79,-1
 86 -109 l 1,80,-1
 86 -83 l 1,81,-1
 287 -83 l 1,82,-1
 287 39 l 1,83,-1
 497 166 l 1,84,-1
 504 167 l 1,85,-1
 517 167 l 1,86,-1
 528 167 l 1,87,-1
 528 35 l 1,88,-1
 836 35 l 1,89,-1
 836 168 l 1,90,-1
 850 168 l 1,91,-1
 850 253 l 1,92,-1
 1039 253 l 1,93,-1
 1067 220 l 1,94,-1
 1046 151 l 1,95,-1
 1036 138 l 1,96,-1
 1018 115 l 1,97,-1
 1009 102 l 1,98,-1
 999 94 l 1,99,-1
 979 79 l 1,100,-1
 969 71 l 1,101,-1
 956 45 l 1,102,-1
 931 -3 l 1,103,-1
 918 -29 l 1,104,-1
 917 -58 l 1,105,-1
 914 -113 l 1,106,-1
 913 -144 l 1,107,-1
 919 -149 l 1,108,-1
 929 -159 l 1,109,-1
 934 -165 l 1,110,-1
 990 -166 l 1,111,-1
 1095 -170 l 1,112,-1
 1154 -172 l 1,113,-1
 1160 -166 l 1,114,-1
 1173 -156 l 1,115,-1
 1179 -149 l 1,116,-1
 1179 -37 l 1,117,-1
 1182 -10 l 1,118,-1
 1188 44 l 1,119,-1
 1193 81 l 1,120,-1
 1275 103 l 1,121,-1
 1315 104 l 1,122,-1
 1387 106 l 1,123,-1
 1427 107 l 1,124,-1
 1442 133 l 1,125,-1
 1457 159 l 1,126,-1
 1472 186 l 1,127,-1
 1475 195 l 1,128,-1
 1478 214 l 1,129,-1
 1481 224 l 1,130,-1
 1482 228 l 1,131,-1
 1488 246 l 1,132,-1
 1500 291 l 1,133,-1
 1867 291 l 1,134,-1
 1868 290 l 1,135,-1
 1876 283 l 1,136,-1
 1897 263 l 1,137,-1
 1908 272 l 1,138,-1
 1918 282 l 1,139,-1
 1929 292 l 1,140,-1
 1931 292 l 1,141,-1
 1932 291 l 1,142,-1
 1933 286 l 1,143,-1
 2721 286 l 1,144,-1
 2718 283 l 1,145,-1
 2719 275 l 1,146,-1
 2718 259 l 1,147,-1
 2720 250 l 1,148,-1
 2724 244 l 1,149,-1
 2725 238 l 1,150,-1
 2731 234 l 1,151,-1
 2731 218 l 1,152,-1
 2712 213 l 1,153,-1
 2760 75 l 1,154,-1
 2780 86 l 1,155,-1
 2800 98 l 1,156,-1
 2820 109 l 1,157,-1
 2823 114 l 1,158,-1
 2828 126 l 1,159,-1
 2831 135 l 1,160,-1
 3341 135 l 1,161,-1
 3349 116 l 1,162,-1
 3349 94 l 1,163,-1
 3366 94 l 1,164,-1
 3366 101 l 1,165,-1
 3366 109 l 1,166,-1
 3366 116 l 1,167,-1
 3367 117 l 1,168,-1
 3369 120 l 1,169,-1
 3371 122 l 1,170,-1
 3406 114 l 1,171,-1
 3410 111 l 1,172,-1
 3416 105 l 1,173,-1
 3420 101 l 1,174,-1
 3425 101 l 1,175,-1
 3434 102 l 1,176,-1
 3439 102 l 1,177,-1
 3448 112 l 1,178,-1
 3465 131 l 1,179,-1
 3474 141 l 1,180,-1
 3474 157 l 1,181,-1
 3474 186 l 1,182,-1
 3474 203 l 1,183,-1
 3465 211 l 1,184,-1
 3449 226 l 1,185,-1
 3440 236 l 1,186,-1
 3435 235 l 1,187,-1
 3425 236 l 1,188,-1
 3419 235 l 1,189,-1
 3406 218 l 1,190,-1
 3398 217 l 1,191,-1
 3382 214 l 1,192,-1
 3370 211 l 1,193,-1
 3361 221 l 1,194,-1
 3358 221 l 1,195,-1
 3352 221 l 1,196,-1
 3349 219 l 1,197,-1
 3342 199 l 1,198,-1
 3153 199 l 1,199,-1
 3153 220 l 1,200,-1
 3133 220 l 1,201,-1
 3133 199 l 1,202,-1
 2860 199 l 1,203,-1
 2865 211 l 1,204,-1
 2845 218 l 1,205,-1
 2845 234 l 1,206,-1
 2986 234 l 1,207,-1
 2986 248 l 1,208,-1
 2988 248 l 1,209,-1
 2989 249 l 1,210,-1
 2989 250 l 1,211,-1
 2989 291 l 1,212,-1
 2986 291 l 1,213,-1
 2986 350 l 1,214,-1
 3348 350 l 1,215,-1
 3348 392 l 1,216,-1
 3107 392 l 1,217,-1
 3107 401 l 1,218,-1
 3348 401 l 1,219,-1
 3348 431 l 1,220,-1
 2986 431 l 1,221,-1
 2874 477 l 1,222,-1
 2872 477 l 1,223,-1
 2872 488 l 1,224,-1
 1928 507 l 1,225,-1
 1928 602 l 1,226,-1
 2090 602 l 1,227,-1
 2171 584 l 1,228,-1
 2320 551 l 1,229,-1
 2400 533 l 1,230,-1
 2819 533 l 1,231,-1
 2819 775 l 1,232,-1
 2393 775 l 1,233,-1
 2087 705 l 1,234,-1
 1934 705 l 1,235,-1
 1925 721 l 1,28,-1
1280 120 m 1024,236,-1
1454 185 m 1024,237,-1
3361 221 m 1024,238,-1
3440 236 m 1024,239,-1
3474 203 m 1024,240,-1
3474 141 m 1024,241,-1
3439 102 m 1024,242,-1
3420 101 m 1024,243,-1
2820 110 m 1024,244,-1
2718 283 m 1024,245,-1
1154 -172 m 1024,246,-1
935 -165 m 1024,247,-1
913 -144 m 1024,248,-1
1736 728 m 1024,249,-1
1832 730 m 1024,250,-1
EndSplineSet
EndChar

StartChar: G
Encoding: 71 71 39
Width: 3499
GlyphClass: 1
Flags: W
LayerCount: 2
Fore
SplineSet
1251 282 m 1,0,-1
 1258 272 l 2,1,2
 1258 271 1258 271 1210 172 c 1,3,4
 1210 172 1210 172 1175.5 173.5 c 128,-1,5
 1141 175 1141 175 1103 176.5 c 128,-1,6
 1065 178 1065 178 1057 178 c 1,7,8
 1057 178 1057 178 1036 242 c 0,9,10
 1036 244 1036 244 1059 284 c 1,11,12
 1251 282 1251 282 1251 282 c 1,0,-1
2701 410 m 1,13,-1
 3229 410 l 1,14,-1
 3229 398 l 1,15,-1
 3290 398 l 1,16,-1
 3290 382 l 1,17,-1
 2701 382 l 1,18,-1
 2701 410 l 1,13,-1
1791 512 m 1,19,-1
 3230 512 l 1,20,-1
 3230 495 l 1,21,-1
 1791 495 l 1,22,-1
 1791 512 l 1,19,-1
1312 556 m 1,23,-1
 1257 556 l 1,24,-1
 1257 612 l 1,25,26
 1244 612 1244 612 1215.5 611 c 128,-1,27
 1187 610 1187 610 1174 610 c 1,28,29
 1125 578 1125 578 1124 576 c 2,30,-1
 1124 555 l 1,31,-1
 1051 555 l 1,32,-1
 934 530 l 1,33,34
 806 514 806 514 806 514 c 1,35,-1
 806 495 l 1,36,-1
 716 495 l 1,37,-1
 716 515 l 1,38,-1
 63 515 l 1,39,-1
 63 532 l 1,40,-1
 36 530 l 1,41,-1
 36 124 l 1,42,-1
 62 124 l 1,43,44
 193 157 193 157 563 254 c 1,45,-1
 563 368 l 1,46,-1
 716 368 l 1,47,-1
 716 398 l 1,48,-1
 802 398 l 1,49,-1
 802 336 l 1,50,51
 819 280 819 280 821 278 c 2,52,-1
 883 278 l 1,53,-1
 884 260 l 2,54,55
 884 259 884 259 797 126 c 128,-1,56
 710 -7 710 -7 700 -22 c 1,57,-1
 692 -52 l 1,58,59
 717 -66 717 -66 718 -67 c 2,60,-1
 868 -107 l 1,61,62
 870 -101 870 -101 876 -86.5 c 128,-1,63
 882 -72 882 -72 884 -65 c 2,64,-1
 1000 148 l 1,65,66
 1062 154 1062 154 1062 154 c 1,67,68
 1229 158 1229 158 1232 158 c 2,69,-1
 1258 172 l 1,70,-1
 1402 278 l 1,71,72
 1776 278 1776 278 1778 280 c 2,73,-1
 1783 290 l 1,74,-1
 2036 290 l 1,75,-1
 2036 263 l 1,76,-1
 2705 263 l 1,77,-1
 2705 290 l 1,78,-1
 3285 290 l 1,79,-1
 3285 272 l 1,80,-1
 3370 272 l 1,81,-1
 3370 292 l 1,82,-1
 3424 292 l 1,83,-1
 3424 388 l 1,84,-1
 3370 388 l 1,85,-1
 3370 394 l 1,86,-1
 3436 394 l 1,87,-1
 3436 406 l 1,88,-1
 3466 406 l 1,89,-1
 3466 502 l 1,90,-1
 3436 502 l 1,91,92
 3436 513 3436 513 3437 503.5 c 128,-1,93
 3438 494 3438 494 3438 505 c 0,94,95
 3439 517 3439 517 3439 555 c 1,96,-1
 3424 555 l 1,97,-1
 3424 566 l 1,98,-1
 3417 566 l 1,99,-1
 3417 578 l 1,100,101
 3404 578 3404 578 3377.5 577 c 128,-1,102
 3351 576 3351 576 3338 576 c 1,103,-1
 3317 562 l 2,104,105
 3316 561 3316 561 3287.5 558.5 c 128,-1,106
 3259 556 3259 556 3256 555 c 2,107,108
 3256 555 3256 555 3212 555.5 c 128,-1,109
 3168 556 3168 556 3092.5 556.5 c 128,-1,110
 3017 557 3017 557 2918.5 557.5 c 128,-1,111
 2820 558 2820 558 2708 558.5 c 128,-1,112
 2596 559 2596 559 2482 559.5 c 128,-1,113
 2368 560 2368 560 2258 561 c 128,-1,114
 2148 562 2148 562 2057 562.5 c 128,-1,115
 1966 563 1966 563 1898 563 c 128,-1,116
 1830 563 1830 563 1801 563 c 1,117,118
 1798 598 1798 598 1796 600 c 2,119,-1
 1742 618 l 1,120,-1
 1635 618 l 2,121,122
 1634 618 1634 618 1630 620.5 c 128,-1,123
 1626 623 1626 623 1621 626.5 c 128,-1,124
 1616 630 1616 630 1615 631 c 2,125,-1
 1615 728 l 1,126,-1
 1456 728 l 1,127,128
 1456 700 1456 700 1452 664 c 1,129,-1
 1430 612 l 1,130,-1
 1430 555 l 1,131,-1
 1425 555 l 1,132,-1
 1424 564 l 1,133,134
 1397 587 1397 587 1396 588 c 2,135,-1
 1339 586 l 1,136,137
 1326 598 1326 598 1326 598 c 257,138,139
 1326 598 1326 598 1322 608 c 128,-1,140
 1318 618 1318 618 1318 619 c 2,141,-1
 1306 625 l 1,142,143
 1291 624 1291 624 1290 624 c 2,144,-1
 1280 608 l 1,145,146
 1270 580 1270 580 1270 578 c 2,147,-1
 1281 569 l 1,148,149
 1305 562 1305 562 1312 560 c 1,150,-1
 1312 556 l 1,23,-1
3257 556 m 1024,151,-1
3338 576 m 1024,152,-1
1232 158 m 1024,153,-1
700 -22 m 1024,154,-1
1174 610 m 1024,155,-1
1281 569 m 1024,156,-1
1280 608 m 1024,157,-1
1306 625 m 1024,158,-1
1318 619 m 1024,159,-1
1396 588 m 1024,160,-1
1424 564 m 1024,161,-1
EndSplineSet
EndChar

StartChar: H
Encoding: 72 72 40
Width: 1373
GlyphClass: 1
Flags: W
LayerCount: 2
Fore
SplineSet
724 408 m 1,0,1
 724 408 724 408 748 358 c 1,2,3
 745 343 745 343 738.5 312.5 c 128,-1,4
 732 282 732 282 728 266 c 1,5,6
 520 264 520 264 520 264 c 1,7,8
 509 272 509 272 487 288 c 128,-1,9
 465 304 465 304 454 312 c 1,10,-1
 462 343 l 1,11,-1
 503 408 l 1,12,-1
 555 408 l 1,13,14
 545 343 545 343 545 343 c 1,15,-1
 570 276 l 1,16,-1
 595 276 l 1,17,18
 590 343 590 343 590 343 c 1,19,-1
 610 408 l 1,20,-1
 724 408 l 1,0,1
1338 590 m 1,21,-1
 1338 640 l 1,22,-1
 1102 640 l 1,23,-1
 1095 676 l 1,24,-1
 1046 680 l 1,25,-1
 1032 640 l 1,26,-1
 278 640 l 1,27,-1
 266 664 l 1,28,29
 267 664 267 664 248.5 667 c 128,-1,30
 230 670 230 670 200 674.5 c 128,-1,31
 170 679 170 679 144 683 c 1,32,33
 143 675 143 675 142.5 659 c 128,-1,34
 142 643 142 643 142 635 c 2,35,-1
 99 544 l 1,36,-1
 65 518 l 1,37,38
 44 419 44 419 44 418 c 2,39,-1
 142 353 l 1,40,-1
 162 290 l 1,41,-1
 142 221 l 1,42,-1
 92 140 l 1,43,44
 36 -124 36 -124 36 -126 c 0,45,46
 65 -128 65 -128 121.5 -131.5 c 128,-1,47
 178 -135 178 -135 206 -136 c 0,48,49
 371 -134 371 -134 373 -134 c 0,50,51
 376 -98 376 -98 382 -24.5 c 128,-1,52
 388 49 388 49 391 86 c 1,53,54
 438 243 438 243 442 256 c 1,55,-1
 524 239 l 1,56,57
 749 244 749 244 751 244 c 2,58,-1
 793 362 l 1,59,-1
 1189 361 l 1,60,-1
 1304 408 l 1,61,-1
 1338 590 l 1,21,-1
531 638 m 1,62,-1
 531 590 l 1,63,-1
 710 590 l 1,64,-1
 710 638 l 1,65,-1
 712 638 l 1,66,-1
 712 586 l 1,67,-1
 529 586 l 1,68,-1
 529 638 l 1,69,-1
 531 638 l 1,62,-1
EndSplineSet
EndChar

StartChar: I
Encoding: 73 73 41
Width: 2439
GlyphClass: 1
Flags: W
LayerCount: 2
Fore
SplineSet
2082 485 m 1,0,-1
 2170 485 l 1,1,-1
 2170 476 l 1,2,-1
 2082 476 l 1,3,-1
 2082 485 l 1,0,-1
751 512 m 1,4,-1
 646 512 l 1,5,-1
 646 499 l 1,6,-1
 586 499 l 1,7,-1
 586 512 l 1,8,9
 586 512 586 512 76 512 c 1,10,11
 52 526 52 526 51 526 c 2,12,-1
 36 526 l 1,13,-1
 36 389 l 1,14,15
 43 321 43 321 68 83 c 0,16,17
 70 83 70 83 76 84.5 c 128,-1,18
 82 86 82 86 85 86 c 1,19,20
 84 86 84 86 145 166.5 c 128,-1,21
 206 247 206 247 223 268 c 1,22,-1
 219 205 l 1,23,24
 236 218 236 218 270 245.5 c 128,-1,25
 304 273 304 273 321 286 c 1,26,-1
 436 286 l 1,27,-1
 436 292 l 1,28,-1
 456 292 l 1,29,-1
 456 371 l 1,30,-1
 586 371 l 1,31,-1
 586 388 l 1,32,-1
 690 388 l 2,33,34
 691 385 691 385 693 385 c 2,35,-1
 716 385 l 1,36,-1
 716 326 l 1,37,-1
 742 326 l 1,38,-1
 796 300 l 2,39,40
 797 300 797 300 804 292 c 128,-1,41
 811 284 811 284 812 284 c 2,42,-1
 821 284 l 1,43,-1
 812 229 l 1,44,45
 688 19 688 19 687 18 c 1,46,47
 714 10 714 10 769 -7 c 128,-1,48
 824 -24 824 -24 851 -32 c 1,49,50
 869 -25 869 -25 870 -25 c 2,51,52
 870 -25 870 -25 872 -10 c 1,53,-1
 858 8 l 1,54,-1
 950 160 l 1,55,-1
 950 166 l 1,56,-1
 1128 166 l 1,57,58
 1128 165 1128 165 1129 162.5 c 128,-1,59
 1130 160 1130 160 1132 160 c 2,60,-1
 1160 164 l 2,61,62
 1162 161 1162 161 1190 168 c 1,63,-1
 1195 117 l 1,64,-1
 1232 -16 l 1,65,66
 1298 -150 1298 -150 1298 -152 c 1,67,-1
 1488 -63 l 1,68,69
 1479 -45 1479 -45 1460.5 -8.5 c 128,-1,70
 1442 28 1442 28 1433 46 c 2,71,-1
 1402 160 l 1,72,73
 1399 199 1399 199 1399 207 c 1,74,75
 1403 207 1403 207 1410.5 209.5 c 128,-1,76
 1418 212 1418 212 1418 214 c 2,77,-1
 1416 223 l 1,78,79
 1409 228 1409 228 1407 230 c 2,80,-1
 1407 333 l 1,81,-1
 1434 347 l 1,82,-1
 1434 352 l 1,83,-1
 1834 352 l 1,84,-1
 1834 74 l 1,85,-1
 1914 74 l 1,86,-1
 1914 353 l 1,87,-1
 2007 353 l 1,88,-1
 2007 430 l 1,89,-1
 2047 430 l 1,90,-1
 2047 422 l 1,91,-1
 2084 422 l 1,92,-1
 2084 430 l 1,93,-1
 2166 430 l 1,94,-1
 2166 420 l 1,95,-1
 2204 420 l 1,96,-1
 2204 430 l 1,97,-1
 2254 430 l 1,98,-1
 2254 420 l 1,99,-1
 2405 420 l 1,100,-1
 2405 485 l 1,101,-1
 2254 485 l 1,102,-1
 2254 480 l 1,103,-1
 2206 480 l 1,104,-1
 2206 485 l 1,105,-1
 2200 485 l 1,106,-1
 2200 506 l 1,107,-1
 2174 506 l 1,108,-1
 2174 520 l 1,109,-1
 2233 520 l 1,110,-1
 2273 544 l 1,111,-1
 2273 564 l 1,112,-1
 2135 564 l 1,113,-1
 2135 557 l 1,114,115
 2131 558 2131 558 2131 556 c 2,116,-1
 2131 506 l 1,117,-1
 2050 506 l 1,118,-1
 2050 487 l 1,119,120
 2046 487 2046 487 2046 485 c 2,121,-1
 2046 480 l 1,122,-1
 2007 480 l 1,123,-1
 2007 568 l 1,124,-1
 1432 568 l 1,125,-1
 1432 564 l 1,126,-1
 1246 564 l 1,127,-1
 1246 619 l 1,128,-1
 1233 631 l 1,129,-1
 1132 637 l 1,130,-1
 1102 662 l 1,131,-1
 1102 669 l 1,132,133
 1101 669 1101 669 1079 754 c 1,134,-1
 976 754 l 1,135,136
 976 732 976 732 974 688 c 1,137,-1
 955 644 l 1,138,139
 938 638 938 638 938 638 c 1,140,141
 938 626 938 626 936.5 601 c 128,-1,142
 935 576 935 576 935 564 c 1,143,-1
 860 564 l 1,144,-1
 860 580 l 1,145,-1
 846 592 l 1,146,147
 788 593 788 593 788 592 c 1,148,-1
 778 600 l 1,149,-1
 736 600 l 1,150,-1
 724 588 l 1,151,152
 724 567 724 567 724 566 c 2,153,-1
 736 554 l 1,154,-1
 769 554 l 1,155,-1
 769 543 l 1,156,157
 753 516 753 516 751 512 c 1,4,-1
1026 286 m 2,158,-1
 1105 286 l 1,159,-1
 1137 258 l 1,160,-1
 1148 224 l 1,161,-1
 1137 195 l 2,162,163
 1137 191 1137 191 1132.5 186.5 c 128,-1,164
 1128 182 1128 182 1127 181 c 0,165,166
 1127 180 1127 180 1127.5 177.5 c 128,-1,167
 1128 175 1128 175 1128 174 c 1,168,-1
 1127 174 l 1,169,-1
 1126 174 l 1,170,-1
 1125 174 l 1,171,-1
 1123 174 l 1,172,-1
 1122 174 l 1,173,-1
 1121 174 l 1,174,-1
 1120 174 l 1,175,-1
 1119 174 l 1,176,-1
 1117 174 l 1,177,-1
 1116 174 l 1,178,-1
 1115 174 l 1,179,-1
 1114 174 l 1,180,-1
 1112 174 l 1,181,-1
 1111 174 l 1,182,-1
 1110 174 l 1,183,-1
 1108 174 l 1,184,-1
 1107 174 l 1,185,-1
 1106 174 l 1,186,-1
 1104 174 l 1,187,-1
 1103 174 l 1,188,-1
 1102 174 l 1,189,-1
 1100 174 l 1,190,-1
 1099 174 l 1,191,-1
 1097 174 l 1,192,-1
 1096 174 l 1,193,-1
 1095 174 l 1,194,-1
 1093 174 l 1,195,-1
 1092 174 l 1,196,-1
 1090 174 l 1,197,-1
 1089 174 l 1,198,-1
 1087 174 l 1,199,-1
 1086 174 l 1,200,-1
 1084 174 l 1,201,-1
 1083 174 l 1,202,-1
 1081 174 l 1,203,-1
 1080 174 l 1,204,-1
 1078 174 l 1,205,-1
 1077 174 l 1,206,-1
 1075 174 l 1,207,-1
 1073 174 l 1,208,-1
 1072 174 l 1,209,-1
 1070 174 l 1,210,-1
 1069 174 l 1,211,-1
 1067 174 l 1,212,-1
 1065 174 l 1,213,-1
 1064 174 l 1,214,-1
 1062 174 l 1,215,-1
 1061 174 l 1,216,-1
 1059 174 l 1,217,-1
 1057 174 l 1,218,-1
 1056 174 l 1,219,-1
 1054 174 l 1,220,-1
 1052 174 l 1,221,-1
 1051 174 l 1,222,-1
 1049 174 l 1,223,-1
 1047 174 l 1,224,-1
 1045 174 l 1,225,-1
 1044 174 l 1,226,-1
 1042 174 l 1,227,-1
 1040 174 l 1,228,-1
 1038 174 l 1,229,-1
 1037 174 l 1,230,-1
 1035 174 l 1,231,-1
 1033 174 l 1,232,-1
 1031 174 l 1,233,-1
 1029 174 l 1,234,-1
 1028 174 l 1,235,-1
 1026 174 l 1,236,-1
 1024 174 l 1,237,-1
 1022 174 l 1,238,-1
 1020 174 l 1,239,-1
 1018 174 l 1,240,-1
 1016 174 l 1,241,-1
 1015 174 l 1,242,-1
 1013 174 l 1,243,-1
 1004 174 l 1,244,-1
 978 194 l 1,245,246
 975 203 975 203 973 211 c 1,247,-1
 1024 211 l 1,248,-1
 1024 286 l 1,249,250
 1024 286 1024 286 1026 286 c 2,158,-1
1105 286 m 1024,251,-1
1137 258 m 1024,252,-1
1148 224 m 1024,253,-1
1137 191 m 1024,254,-1
978 194 m 1024,255,-1
1233 631 m 1024,256,-1
1246 619 m 1024,257,-1
1416 223 m 1024,258,-1
1409 208 m 1024,259,-1
950 160 m 1024,260,-1
870 -25 m 1024,261,-1
851 -32 m 1024,262,-1
51 526 m 1024,263,-1
736 554 m 1024,264,-1
724 566 m 1024,265,-1
724 588 m 1024,266,-1
736 600 m 1024,267,-1
778 600 m 1024,268,-1
846 592 m 1024,269,-1
860 580 m 1024,270,-1
EndSplineSet
EndChar

StartChar: J
Encoding: 74 74 42
Width: 3222
GlyphClass: 1
Flags: W
LayerCount: 2
Fore
SplineSet
2902 440 m 1,0,1
 2902 440 2902 440 2999 440 c 1,2,-1
 2999 430 l 1,3,4
 2999 430 2999 430 2999 430 c 1,5,-1
 2999 430 l 1,6,-1
 2999 430 l 1,7,-1
 2999 430 l 1,8,-1
 2999 430 l 1,9,-1
 2999 430 l 1,10,-1
 2999 430 l 1,11,-1
 2999 430 l 1,12,-1
 2999 430 l 1,13,-1
 2999 430 l 1,14,-1
 2999 430 l 1,15,-1
 2998 430 l 1,16,-1
 2998 430 l 1,17,-1
 2998 430 l 1,18,-1
 2998 430 l 1,19,-1
 2997 430 l 1,20,-1
 2997 430 l 1,21,-1
 2997 430 l 1,22,-1
 2996 430 l 1,23,-1
 2996 430 l 1,24,-1
 2996 430 l 1,25,-1
 2995 430 l 1,26,-1
 2995 430 l 1,27,-1
 2994 430 l 1,28,-1
 2994 430 l 1,29,-1
 2993 430 l 1,30,-1
 2993 430 l 1,31,-1
 2992 430 l 1,32,-1
 2992 430 l 1,33,-1
 2991 430 l 1,34,-1
 2991 430 l 1,35,-1
 2990 430 l 1,36,-1
 2989 430 l 1,37,-1
 2989 430 l 1,38,-1
 2988 430 l 1,39,-1
 2987 430 l 1,40,-1
 2987 430 l 1,41,-1
 2986 430 l 1,42,-1
 2985 430 l 1,43,-1
 2984 430 l 1,44,-1
 2983 430 l 1,45,-1
 2982 430 l 1,46,-1
 2981 430 l 1,47,-1
 2980 430 l 1,48,-1
 2979 430 l 1,49,-1
 2978 430 l 1,50,-1
 2977 430 l 1,51,-1
 2976 430 l 1,52,-1
 2975 430 l 1,53,-1
 2974 430 l 1,54,-1
 2973 430 l 1,55,-1
 2972 430 l 1,56,-1
 2971 430 l 1,57,-1
 2970 430 l 1,58,-1
 2969 430 l 1,59,-1
 2968 430 l 1,60,-1
 2967 430 l 1,61,-1
 2966 430 l 1,62,-1
 2965 430 l 1,63,-1
 2964 430 l 1,64,-1
 2963 430 l 1,65,-1
 2962 430 l 1,66,-1
 2961 430 l 1,67,-1
 2960 430 l 1,68,-1
 2959 430 l 1,69,-1
 2958 430 l 1,70,-1
 2957 430 l 1,71,-1
 2956 430 l 1,72,-1
 2955 430 l 1,73,-1
 2954 430 l 1,74,-1
 2953 430 l 1,75,-1
 2952 430 l 1,76,-1
 2951 430 l 1,77,-1
 2950 430 l 1,78,-1
 2949 430 l 1,79,-1
 2948 430 l 1,80,-1
 2947 430 l 1,81,-1
 2946 430 l 1,82,-1
 2945 430 l 1,83,-1
 2944 430 l 1,84,-1
 2943 430 l 1,85,-1
 2942 430 l 1,86,-1
 2941 430 l 1,87,-1
 2940 430 l 1,88,-1
 2939 430 l 1,89,-1
 2938 430 l 1,90,-1
 2937 430 l 1,91,-1
 2936 430 l 1,92,-1
 2935 430 l 1,93,-1
 2934 430 l 1,94,-1
 2933 430 l 1,95,-1
 2932 430 l 1,96,-1
 2931 430 l 1,97,-1
 2930 430 l 1,98,-1
 2929 430 l 1,99,-1
 2928 430 l 1,100,-1
 2927 430 l 1,101,-1
 2926 430 l 1,102,-1
 2925 430 l 1,103,-1
 2924 430 l 1,104,-1
 2923 430 l 1,105,-1
 2922 430 l 1,106,-1
 2921 430 l 1,107,-1
 2920 430 l 1,108,-1
 2919 430 l 1,109,-1
 2918 430 l 1,110,-1
 2917 430 l 1,111,-1
 2916 430 l 1,112,-1
 2915 430 l 1,113,-1
 2906 430 l 2,114,115
 2905 430 2905 430 2905 430 c 2,116,117
 2904 430 2904 430 2903.5 430 c 128,-1,118
 2903 430 2903 430 2902.5 432.5 c 128,-1,119
 2902 435 2902 435 2902 440 c 1,0,1
2197 456 m 1,120,-1
 2596 456 l 1,121,-1
 2596 430 l 1,122,-1
 2197 430 l 1,123,-1
 2197 456 l 1,120,-1
1213 524 m 1,124,125
 1199 554 1199 554 1198 555 c 1,126,-1
 1244 555 l 1,127,-1
 1244 524 l 1,128,-1
 1213 524 l 1,124,125
1263 555 m 1,129,-1
 1314 555 l 1,130,-1
 1298 524 l 2,131,132
 1298 523 1298 523 1263 523 c 1,133,-1
 1263 555 l 1,129,-1
1120 142 m 1,134,-1
 1120 225 l 1,135,-1
 1208 225 l 1,136,137
 1244 191 1244 191 1244 191 c 1,138,-1
 1256 154 l 1,139,140
 1243 118 1243 118 1243 118 c 1,141,-1
 1234 107 l 1,142,-1
 1237 99 l 1,143,-1
 1100 99 l 1,144,-1
 1071 119 l 2,145,146
 1070 123 1070 123 1067 130.5 c 128,-1,147
 1064 138 1064 138 1063 142 c 1,148,-1
 1120 142 l 1,134,-1
1208 225 m 1024,149,-1
1244 191 m 1024,150,-1
1256 154 m 1024,151,-1
1100 99 m 1024,152,-1
1071 119 m 1024,153,-1
1010 722 m 2,154,155
 1007 722 1007 722 1007 720 c 2,156,-1
 1007 592 l 1,157,-1
 1114 592 l 1,158,-1
 1121 601 l 1,159,-1
 1139 601 l 1,160,-1
 1137 588 l 1,161,-1
 1081 588 l 1,162,-1
 1070 572 l 1,163,-1
 1018 572 l 1,164,-1
 1018 527 l 1,165,-1
 941 527 l 1,166,-1
 941 544 l 1,167,-1
 928 556 l 1,168,-1
 864 556 l 1,169,170
 852 566 852 566 852 566 c 1,171,172
 807 566 807 566 805 566 c 2,173,-1
 793 552 l 1,174,-1
 793 527 l 1,175,-1
 807 514 l 1,176,-1
 842 514 l 1,177,-1
 842 502 l 2,178,179
 842 500 842 500 821 468 c 1,180,-1
 707 468 l 1,181,-1
 707 454 l 1,182,-1
 640 454 l 1,183,-1
 640 470 l 1,184,185
 547 470 547 470 360.5 469.5 c 128,-1,186
 174 469 174 469 81 469 c 0,187,188
 80 469 80 469 67 477 c 128,-1,189
 54 485 54 485 53 485 c 2,190,-1
 36 484 l 1,191,-1
 36 336 l 1,192,193
 43 260 43 260 71 -4 c 0,194,195
 74 -4 74 -4 80 -2 c 128,-1,196
 86 0 86 0 89 0 c 2,197,198
 89 0 89 0 122 45 c 128,-1,199
 155 90 155 90 193 140 c 128,-1,200
 231 190 231 190 242 202 c 1,201,-1
 236 132 l 1,202,203
 255 146 255 146 292.5 175.5 c 128,-1,204
 330 205 330 205 349 219 c 1,205,-1
 477 219 l 1,206,-1
 477 229 l 1,207,-1
 497 229 l 1,208,-1
 497 316 l 1,209,-1
 639 316 l 1,210,-1
 639 334 l 1,211,-1
 756 334 l 1,212,213
 756 334 756 334 756 331 c 128,-1,214
 756 328 756 328 758 328 c 2,215,-1
 783 328 l 1,216,-1
 783 263 l 1,217,-1
 813 263 l 1,218,-1
 870 237 l 1,219,220
 887 222 887 222 888 220 c 2,221,-1
 898 220 l 1,222,-1
 888 160 l 1,223,-1
 750 -73 l 1,224,225
 780 -82 780 -82 840 -101 c 128,-1,226
 900 -120 900 -120 931 -130 c 1,227,228
 947 -124 947 -124 952 -122 c 0,229,230
 952 -118 952 -118 952.5 -112 c 128,-1,231
 953 -106 953 -106 953 -104 c 0,232,233
 941 -88 941 -88 939 -85 c 2,234,-1
 1040 83 l 1,235,-1
 1040 88 l 1,236,-1
 1101 88 l 1,237,-1
 1101 89 l 1,238,-1
 1234 89 l 1,239,240
 1234 89 1234 89 1237 83 c 1,241,-1
 1266 87 l 1,242,243
 1265 84 1265 84 1271 85 c 256,244,245
 1277 86 1277 86 1304 93 c 1,246,-1
 1306 37 l 1,247,248
 1348 -110 1348 -110 1348 -112 c 1,249,-1
 1571 -42 l 1,250,251
 1565 -21 1565 -21 1554 20 c 128,-1,252
 1543 61 1543 61 1537 82 c 1,253,254
 1533 126 1533 126 1532 136 c 1,255,256
 1553 140 1553 140 1553 144 c 2,257,-1
 1551 152 l 1,258,259
 1543 158 1543 158 1541 160 c 2,260,-1
 1541 272 l 1,261,-1
 1574 296 l 1,262,-1
 2012 296 l 1,263,-1
 2012 -12 l 1,264,-1
 2099 -12 l 1,265,-1
 2099 296 l 1,266,-1
 2202 296 l 1,267,-1
 2202 380 l 1,268,-1
 2592 380 l 1,269,-1
 2592 353 l 1,270,-1
 2606 340 l 1,271,-1
 2650 340 l 1,272,-1
 2650 379 l 1,273,-1
 2863 379 l 1,274,-1
 2863 369 l 1,275,-1
 2906 369 l 1,276,-1
 2906 380 l 1,277,-1
 2996 380 l 1,278,-1
 2996 368 l 1,279,-1
 3038 368 l 1,280,-1
 3038 380 l 1,281,-1
 3188 380 l 1,282,-1
 3188 434 l 1,283,-1
 3038 434 l 1,284,285
 3038 434 3038 434 3036 440 c 1,286,-1
 3034 440 l 1,287,-1
 3034 463 l 1,288,-1
 3003 463 l 1,289,-1
 3003 477 l 1,290,-1
 3070 477 l 1,291,292
 3094 486 3094 486 3113 506 c 1,293,-1
 3113 526 l 1,294,-1
 2960 526 l 1,295,296
 2961 524 2961 524 2961 522 c 128,-1,297
 2961 520 2961 520 2959 519 c 0,298,299
 2956 519 2956 519 2956 517 c 2,300,-1
 2956 463 l 1,301,-1
 2867 463 l 1,302,-1
 2867 442 l 2,303,304
 2867 441 2867 441 2863 440 c 1,305,-1
 2863 434 l 1,306,-1
 2650 434 l 1,307,-1
 2650 452 l 1,308,-1
 2675 452 l 1,309,-1
 2675 507 l 1,310,-1
 2650 507 l 1,311,-1
 2650 525 l 1,312,-1
 2591 525 l 1,313,-1
 2591 507 l 1,314,-1
 2200 507 l 1,315,-1
 2200 531 l 1,316,-1
 1571 531 l 1,317,-1
 1571 527 l 1,318,-1
 1439 527 l 1,319,-1
 1439 556 l 1,320,-1
 1426 556 l 1,321,-1
 1426 588 l 1,322,323
 1434 588 1434 588 1452 587 c 128,-1,324
 1470 586 1470 586 1478 586 c 1,325,326
 1481 593 1481 593 1484 602 c 128,-1,327
 1487 611 1487 611 1498 644.5 c 128,-1,328
 1509 678 1509 678 1527 730 c 1,329,-1
 1296 720 l 1,330,331
 1296 723 1296 723 1280 736 c 1,332,-1
 1279 736 l 1,333,-1
 1279 736 l 1,334,-1
 1279 736 l 1,335,-1
 1278 736 l 1,336,-1
 1278 736 l 1,337,-1
 1277 736 l 1,338,-1
 1276 736 l 1,339,-1
 1275 736 l 1,340,-1
 1274 736 l 1,341,-1
 1273 736 l 1,342,-1
 1272 736 l 1,343,-1
 1271 736 l 1,344,-1
 1270 736 l 1,345,-1
 1269 736 l 1,346,-1
 1268 736 l 1,347,-1
 1267 736 l 1,348,-1
 1266 736 l 1,349,-1
 1265 736 l 1,350,-1
 1264 736 l 1,351,-1
 1263 736 l 1,352,-1
 1262 736 l 1,353,-1
 1261 736 l 1,354,-1
 1260 736 l 1,355,-1
 1259 736 l 1,356,-1
 1257 736 l 1,357,-1
 1256 736 l 1,358,-1
 1255 736 l 1,359,-1
 1254 736 l 1,360,-1
 1253 736 l 1,361,-1
 1252 736 l 1,362,-1
 1250 736 l 1,363,-1
 1249 736 l 1,364,-1
 1248 736 l 1,365,-1
 1246 736 l 1,366,-1
 1245 736 l 1,367,-1
 1244 736 l 1,368,-1
 1243 736 l 1,369,-1
 1241 736 l 1,370,-1
 1240 736 l 1,371,-1
 1238 736 l 1,372,-1
 1237 736 l 1,373,-1
 1236 736 l 1,374,-1
 1234 736 l 1,375,-1
 1233 736 l 1,376,-1
 1231 736 l 1,377,-1
 1230 736 l 1,378,-1
 1228 736 l 1,379,-1
 1227 736 l 1,380,-1
 1225 736 l 1,381,-1
 1224 736 l 1,382,-1
 1222 736 l 1,383,-1
 1221 736 l 1,384,-1
 1219 736 l 1,385,-1
 1217 736 l 1,386,-1
 1216 736 l 1,387,-1
 1214 736 l 1,388,-1
 1213 736 l 1,389,-1
 1211 736 l 1,390,-1
 1209 736 l 1,391,-1
 1208 736 l 1,392,-1
 1206 736 l 1,393,-1
 1204 736 l 1,394,-1
 1203 736 l 1,395,-1
 1201 736 l 1,396,-1
 1199 736 l 1,397,-1
 1197 736 l 1,398,-1
 1196 736 l 1,399,-1
 1194 736 l 1,400,-1
 1192 736 l 1,401,-1
 1190 736 l 1,402,-1
 1189 736 l 1,403,-1
 1187 736 l 1,404,-1
 1178 736 l 1,405,-1
 1162 722 l 1,406,407
 1162 716 1162 716 1162 714 c 2,408,-1
 1122 713 l 1,409,410
 1113 722 1113 722 1113 722 c 1,411,-1
 1010 722 l 2,154,155
1298 588 m 1,412,-1
 1298 592 l 1,413,-1
 1298 588 l 1,412,-1
3113 506 m 1024,414,-1
2606 340 m 1024,415,-1
2592 352 m 1024,416,-1
1551 152 m 1024,417,-1
1543 136 m 1024,418,-1
1040 83 m 1024,419,-1
953 -104 m 1024,420,-1
931 -130 m 1024,421,-1
888 220 m 1024,422,-1
52 485 m 1024,423,-1
807 514 m 1024,424,-1
793 527 m 1024,425,-1
793 552 m 1024,426,-1
805 566 m 1024,427,-1
852 566 m 1024,428,-1
928 556 m 1024,429,-1
941 544 m 1024,430,-1
1114 592 m 1024,431,-1
1113 722 m 1024,432,-1
1162 722 m 1024,433,-1
EndSplineSet
EndChar

StartChar: K
Encoding: 75 75 43
Width: 2669
GlyphClass: 1
Flags: W
LayerCount: 2
Fore
SplineSet
2052 481 m 1,0,-1
 2139 481 l 1,1,-1
 2139 470 l 1,2,-1
 2052 470 l 1,3,-1
 2052 481 l 1,0,-1
740 505 m 1,4,-1
 638 505 l 1,5,-1
 638 493 l 1,6,-1
 578 493 l 1,7,-1
 578 507 l 1,8,9
 578 507 578 507 75 507 c 1,10,-1
 51 520 l 1,11,12
 51 520 51 520 36 520 c 1,13,-1
 36 387 l 1,14,15
 43 320 43 320 68 83 c 0,16,17
 70 83 70 83 75 84.5 c 128,-1,18
 80 86 80 86 82 86 c 1,19,20
 81 86 81 86 111.5 125.5 c 128,-1,21
 142 165 142 165 178.5 212 c 128,-1,22
 215 259 215 259 220 266 c 1,23,-1
 214 205 l 1,24,25
 232 218 232 218 265.5 244 c 128,-1,26
 299 270 299 270 316 284 c 1,27,-1
 430 284 l 1,28,-1
 430 290 l 1,29,-1
 448 290 l 1,30,-1
 448 369 l 1,31,-1
 578 369 l 1,32,-1
 578 386 l 1,33,-1
 681 386 l 1,34,35
 680 381 680 381 682 381 c 2,36,-1
 707 381 l 1,37,-1
 707 322 l 1,38,-1
 732 322 l 1,39,-1
 782 298 l 1,40,-1
 799 282 l 1,41,-1
 809 282 l 1,42,-1
 801 227 l 2,43,44
 801 225 801 225 676 19 c 1,45,46
 703 11 703 11 757.5 -6 c 128,-1,47
 812 -23 812 -23 839 -31 c 1,48,49
 856 -22 856 -22 857 -22 c 0,50,51
 860 -9 860 -9 860 -8 c 2,52,-1
 846 10 l 1,53,-1
 935 160 l 1,54,-1
 935 164 l 1,55,56
 935 164 935 164 938.5 164 c 128,-1,57
 942 164 942 164 949 164.5 c 128,-1,58
 956 165 956 165 966 165 c 128,-1,59
 976 165 976 165 990.5 165 c 128,-1,60
 1005 165 1005 165 1022.5 165.5 c 128,-1,61
 1040 166 1040 166 1063 166 c 128,-1,62
 1086 166 1086 166 1112 166 c 1,63,64
 1112 165 1112 165 1113 162.5 c 128,-1,65
 1114 160 1114 160 1115 160 c 0,66,67
 1139 163 1139 163 1143.5 161.5 c 128,-1,68
 1148 160 1148 160 1174 166 c 1,69,-1
 1177 117 l 1,70,-1
 1213 -13 l 1,71,72
 1278 -147 1278 -147 1278 -148 c 1,73,-1
 1466 -59 l 1,74,-1
 1413 47 l 1,75,-1
 1382 158 l 1,76,77
 1378 198 1378 198 1378 206 c 1,78,79
 1394 210 1394 210 1396 212 c 0,80,81
 1395 219 1395 219 1395 220 c 2,82,-1
 1387 227 l 1,83,-1
 1387 331 l 1,84,85
 1414 344 1414 344 1414 345 c 2,86,-1
 1414 350 l 1,87,-1
 1809 350 l 1,88,-1
 1809 74 l 1,89,-1
 1888 74 l 1,90,-1
 1888 351 l 1,91,-1
 1978 351 l 1,92,-1
 1978 428 l 1,93,-1
 2018 428 l 1,94,-1
 2018 416 l 1,95,-1
 2054 416 l 1,96,-1
 2054 426 l 1,97,-1
 2137 426 l 1,98,-1
 2137 416 l 1,99,-1
 2174 416 l 1,100,-1
 2174 428 l 1,101,-1
 2222 428 l 1,102,-1
 2222 391 l 1,103,-1
 2634 391 l 1,104,-1
 2634 506 l 1,105,-1
 2222 506 l 1,106,-1
 2222 474 l 1,107,-1
 2174 474 l 1,108,-1
 2174 481 l 1,109,-1
 2170 481 l 1,110,-1
 2170 500 l 1,111,-1
 2142 500 l 1,112,-1
 2142 513 l 1,113,-1
 2200 513 l 1,114,115
 2223 523 2223 523 2241 539 c 1,116,-1
 2241 556 l 1,117,118
 2104 557 2104 557 2104 557 c 1,119,-1
 2104 551 l 1,120,121
 2099 551 2099 551 2099 549 c 2,122,-1
 2099 500 l 1,123,-1
 2020 500 l 1,124,-1
 2020 482 l 1,125,126
 2016 482 2016 482 2016 480 c 2,127,-1
 2016 474 l 1,128,-1
 1977 474 l 1,129,-1
 1977 560 l 1,130,-1
 1413 560 l 1,131,132
 1413 558 1413 558 1412 558 c 2,133,-1
 1228 558 l 1,134,-1
 1227 612 l 1,135,-1
 1215 624 l 1,136,-1
 1115 628 l 1,137,-1
 1087 656 l 1,138,139
 1064 744 1064 744 1064 744 c 1,140,-1
 963 744 l 1,141,142
 962 733 962 733 960 710.5 c 128,-1,143
 958 688 958 688 958 677 c 1,144,-1
 941 637 l 2,145,146
 940 636 940 636 932 633 c 128,-1,147
 924 630 924 630 923 629 c 2,148,-1
 922 558 l 1,149,-1
 848 558 l 1,150,-1
 848 572 l 1,151,-1
 834 584 l 1,152,-1
 778 584 l 1,153,154
 768 592 768 592 768 592 c 1,155,-1
 724 592 l 1,156,-1
 714 582 l 1,157,-1
 714 558 l 1,158,-1
 726 546 l 1,159,-1
 758 546 l 1,160,-1
 758 536 l 1,161,162
 742 509 742 509 740 505 c 1,4,-1
1010 211 m 1,163,-1
 1010 286 l 1,164,-1
 1088 286 l 1,165,-1
 1121 256 l 1,166,-1
 1131 224 l 1,167,168
 1120 190 1120 190 1120 190 c 1,169,-1
 1112 181 l 1,170,-1
 1113 174 l 1,171,-1
 1112 174 l 1,172,-1
 1111 174 l 1,173,-1
 1110 174 l 1,174,-1
 1109 174 l 1,175,-1
 1108 174 l 1,176,-1
 1107 174 l 1,177,-1
 1106 174 l 1,178,-1
 1105 174 l 1,179,-1
 1104 174 l 1,180,-1
 1103 174 l 1,181,-1
 1102 174 l 1,182,-1
 1100 174 l 1,183,-1
 1099 174 l 1,184,-1
 1098 174 l 1,185,-1
 1097 174 l 1,186,-1
 1096 174 l 1,187,-1
 1095 174 l 1,188,-1
 1093 174 l 1,189,-1
 1092 174 l 1,190,-1
 1091 174 l 1,191,-1
 1090 174 l 1,192,-1
 1088 174 l 1,193,-1
 1087 174 l 1,194,-1
 1086 174 l 1,195,-1
 1084 174 l 1,196,-1
 1083 174 l 1,197,-1
 1082 174 l 1,198,-1
 1080 174 l 1,199,-1
 1079 174 l 1,200,-1
 1078 174 l 1,201,-1
 1076 174 l 1,202,-1
 1075 174 l 1,203,-1
 1073 174 l 1,204,-1
 1072 174 l 1,205,-1
 1071 174 l 1,206,-1
 1069 174 l 1,207,-1
 1068 174 l 1,208,-1
 1066 174 l 1,209,-1
 1065 174 l 1,210,-1
 1063 174 l 1,211,-1
 1062 174 l 1,212,-1
 1060 174 l 1,213,-1
 1059 174 l 1,214,-1
 1057 174 l 1,215,-1
 1056 174 l 1,216,-1
 1054 174 l 1,217,-1
 1053 174 l 1,218,-1
 1051 174 l 1,219,-1
 1049 174 l 1,220,-1
 1048 174 l 1,221,-1
 1046 174 l 1,222,-1
 1045 174 l 1,223,-1
 1043 174 l 1,224,-1
 1041 174 l 1,225,-1
 1040 174 l 1,226,-1
 1038 174 l 1,227,-1
 1036 174 l 1,228,-1
 1035 174 l 1,229,-1
 1033 174 l 1,230,-1
 1031 174 l 1,231,-1
 1030 174 l 1,232,-1
 1028 174 l 1,233,-1
 1026 174 l 1,234,-1
 1024 174 l 1,235,-1
 1023 174 l 1,236,-1
 1021 174 l 1,237,-1
 1019 174 l 1,238,-1
 1017 174 l 1,239,-1
 1016 174 l 1,240,-1
 1014 174 l 1,241,-1
 1012 174 l 1,242,-1
 1010 174 l 1,243,-1
 1008 174 l 1,244,-1
 1006 174 l 1,245,-1
 1005 174 l 1,246,-1
 1003 174 l 1,247,-1
 1001 174 l 1,248,-1
 999 174 l 1,249,-1
 989 174 l 1,250,-1
 964 191 l 2,251,252
 963 194 963 194 960.5 201 c 128,-1,253
 958 208 958 208 957 211 c 1,254,-1
 1010 211 l 1,163,-1
1088 286 m 1024,255,-1
1121 256 m 1024,256,-1
1131 224 m 1024,257,-1
964 191 m 1024,258,-1
1215 624 m 1024,259,-1
1227 613 m 1024,260,-1
935 160 m 1024,261,-1
857 -22 m 1024,262,-1
839 -31 m 1024,263,-1
799 282 m 1024,264,-1
51 520 m 1024,265,-1
726 546 m 1024,266,-1
714 558 m 1024,267,-1
714 582 m 1024,268,-1
724 592 m 1024,269,-1
768 592 m 1024,270,-1
834 584 m 1024,271,-1
848 572 m 1024,272,-1
EndSplineSet
EndChar

StartChar: braceright
Encoding: 125 125 44
Width: 382
GlyphClass: 1
Flags: W
LayerCount: 2
Fore
SplineSet
380 16 m 0,0,1
 380 7 380 7 368 2 c 0,2,3
 348 -4 348 -4 347 -4 c 0,4,5
 334 -4 334 -4 327 2 c 2,6,-1
 193 117 l 1,7,-1
 56 2 l 2,8,9
 51 -2 51 -2 33 -2 c 0,10,11
 4 -2 4 -2 4 14 c 0,12,13
 4 24 4 24 14 32 c 2,14,-1
 154 148 l 1,15,-1
 19 262 l 2,16,17
 10 268 10 268 10 278 c 0,18,19
 10 292 10 292 24 294 c 0,20,21
 25 294 25 294 27.5 294.5 c 128,-1,22
 30 295 30 295 35.5 295.5 c 128,-1,23
 41 296 41 296 47 296 c 0,24,25
 52 296 52 296 61 290 c 2,26,-1
 193 181 l 1,27,-1
 324 290 l 2,28,29
 333 296 333 296 352 296 c 0,30,31
 374 296 374 296 374 278 c 0,32,33
 374 268 374 268 364 262 c 2,34,-1
 231 148 l 1,35,-1
 369 32 l 2,36,37
 380 24 380 24 380 16 c 0,0,1
EndSplineSet
EndChar

StartChar: asciitilde
Encoding: 126 126 45
Width: 3813
GlyphClass: 1
Flags: W
LayerCount: 2
Fore
SplineSet
36 418 m 1,0,-1
 43 -20 l 1,1,-1
 3780 0 l 1,2,-1
 3758 440 l 1,3,-1
 36 418 l 1,0,-1
EndSplineSet
EndChar
